G04 #@! TF.GenerationSoftware,KiCad,Pcbnew,(5.0.2)-1*
G04 #@! TF.CreationDate,2019-03-05T16:27:41-05:00*
G04 #@! TF.ProjectId,piezo_V2,7069657a-6f5f-4563-922e-6b696361645f,rev?*
G04 #@! TF.SameCoordinates,Original*
G04 #@! TF.FileFunction,Copper,L1,Top*
G04 #@! TF.FilePolarity,Positive*
%FSLAX46Y46*%
G04 Gerber Fmt 4.6, Leading zero omitted, Abs format (unit mm)*
G04 Created by KiCad (PCBNEW (5.0.2)-1) date 3/5/2019 4:27:41 PM*
%MOMM*%
%LPD*%
G01*
G04 APERTURE LIST*
G04 #@! TA.AperFunction,ComponentPad*
%ADD10O,2.500000X1.500000*%
G04 #@! TD*
G04 #@! TA.AperFunction,ComponentPad*
%ADD11C,1.260000*%
G04 #@! TD*
G04 #@! TA.AperFunction,SMDPad,CuDef*
%ADD12R,2.000000X1.600000*%
G04 #@! TD*
G04 #@! TA.AperFunction,SMDPad,CuDef*
%ADD13R,1.600000X2.000000*%
G04 #@! TD*
G04 #@! TA.AperFunction,ComponentPad*
%ADD14R,1.600000X1.600000*%
G04 #@! TD*
G04 #@! TA.AperFunction,ComponentPad*
%ADD15C,1.600000*%
G04 #@! TD*
G04 #@! TA.AperFunction,ComponentPad*
%ADD16C,4.000000*%
G04 #@! TD*
G04 #@! TA.AperFunction,ComponentPad*
%ADD17O,2.300000X3.800000*%
G04 #@! TD*
G04 #@! TA.AperFunction,ComponentPad*
%ADD18O,2.300000X3.500000*%
G04 #@! TD*
G04 #@! TA.AperFunction,SMDPad,CuDef*
%ADD19R,2.000000X1.700000*%
G04 #@! TD*
G04 #@! TA.AperFunction,SMDPad,CuDef*
%ADD20R,1.700000X2.000000*%
G04 #@! TD*
G04 #@! TA.AperFunction,SMDPad,CuDef*
%ADD21R,0.600000X1.500000*%
G04 #@! TD*
G04 #@! TA.AperFunction,SMDPad,CuDef*
%ADD22R,0.650000X1.560000*%
G04 #@! TD*
G04 #@! TA.AperFunction,ViaPad*
%ADD23C,1.500000*%
G04 #@! TD*
G04 #@! TA.AperFunction,ViaPad*
%ADD24C,1.000000*%
G04 #@! TD*
G04 #@! TA.AperFunction,Conductor*
%ADD25C,0.750000*%
G04 #@! TD*
G04 #@! TA.AperFunction,Conductor*
%ADD26C,0.500000*%
G04 #@! TD*
G04 #@! TA.AperFunction,Conductor*
%ADD27C,0.250000*%
G04 #@! TD*
G04 APERTURE END LIST*
D10*
G04 #@! TO.P,J1,6*
G04 #@! TO.N,GND*
X182000000Y-67630000D03*
G04 #@! TO.P,J1,5*
G04 #@! TO.N,ch3_dout*
X182000000Y-70170000D03*
G04 #@! TO.P,J1,4*
G04 #@! TO.N,GND*
X182000000Y-72710000D03*
G04 #@! TO.P,J1,3*
G04 #@! TO.N,ch2_dout*
X182000000Y-75290000D03*
G04 #@! TO.P,J1,2*
G04 #@! TO.N,GND*
X182000000Y-77830000D03*
G04 #@! TO.P,J1,1*
G04 #@! TO.N,ch1_dout*
X182000000Y-80370000D03*
X187000000Y-80370000D03*
G04 #@! TO.P,J1,2*
G04 #@! TO.N,GND*
X187000000Y-77830000D03*
G04 #@! TO.P,J1,6*
X187000000Y-67630000D03*
G04 #@! TO.P,J1,5*
G04 #@! TO.N,ch3_dout*
X187000000Y-70170000D03*
G04 #@! TO.P,J1,4*
G04 #@! TO.N,GND*
X187000000Y-72710000D03*
G04 #@! TO.P,J1,3*
G04 #@! TO.N,ch2_dout*
X187000000Y-75290000D03*
G04 #@! TD*
G04 #@! TO.P,J3,6*
G04 #@! TO.N,GND*
X182000000Y-104630000D03*
G04 #@! TO.P,J3,5*
G04 #@! TO.N,ch3_aout*
X182000000Y-107170000D03*
G04 #@! TO.P,J3,4*
G04 #@! TO.N,GND*
X182000000Y-109710000D03*
G04 #@! TO.P,J3,3*
G04 #@! TO.N,ch2_aout*
X182000000Y-112290000D03*
G04 #@! TO.P,J3,2*
G04 #@! TO.N,GND*
X182000000Y-114830000D03*
G04 #@! TO.P,J3,1*
G04 #@! TO.N,ch1_aout*
X182000000Y-117370000D03*
X187000000Y-117370000D03*
G04 #@! TO.P,J3,2*
G04 #@! TO.N,GND*
X187000000Y-114830000D03*
G04 #@! TO.P,J3,6*
X187000000Y-104630000D03*
G04 #@! TO.P,J3,5*
G04 #@! TO.N,ch3_aout*
X187000000Y-107170000D03*
G04 #@! TO.P,J3,4*
G04 #@! TO.N,GND*
X187000000Y-109710000D03*
G04 #@! TO.P,J3,3*
G04 #@! TO.N,ch2_aout*
X187000000Y-112290000D03*
G04 #@! TD*
G04 #@! TO.P,J2,6*
G04 #@! TO.N,GND*
X115000000Y-100370000D03*
G04 #@! TO.P,J2,5*
G04 #@! TO.N,ch3*
X115000000Y-97830000D03*
G04 #@! TO.P,J2,4*
G04 #@! TO.N,GND*
X115000000Y-95290000D03*
G04 #@! TO.P,J2,3*
G04 #@! TO.N,ch2*
X115000000Y-92710000D03*
G04 #@! TO.P,J2,2*
G04 #@! TO.N,GND*
X115000000Y-90170000D03*
G04 #@! TO.P,J2,1*
G04 #@! TO.N,ch1*
X115000000Y-87630000D03*
X110000000Y-87630000D03*
G04 #@! TO.P,J2,2*
G04 #@! TO.N,GND*
X110000000Y-90170000D03*
G04 #@! TO.P,J2,6*
X110000000Y-100370000D03*
G04 #@! TO.P,J2,5*
G04 #@! TO.N,ch3*
X110000000Y-97830000D03*
G04 #@! TO.P,J2,4*
G04 #@! TO.N,GND*
X110000000Y-95290000D03*
G04 #@! TO.P,J2,3*
G04 #@! TO.N,ch2*
X110000000Y-92710000D03*
G04 #@! TD*
D11*
G04 #@! TO.P,RV4,1*
G04 #@! TO.N,Net-(R19-Pad1)*
X165460000Y-100250000D03*
G04 #@! TO.P,RV4,2*
G04 #@! TO.N,Net-(R20-Pad2)*
X168000000Y-102790000D03*
G04 #@! TO.P,RV4,3*
X170540000Y-100250000D03*
G04 #@! TD*
D12*
G04 #@! TO.P,C1,1*
G04 #@! TO.N,+5V*
X142500000Y-61500000D03*
G04 #@! TO.P,C1,2*
G04 #@! TO.N,GND*
X138500000Y-61500000D03*
G04 #@! TD*
G04 #@! TO.P,C2,1*
G04 #@! TO.N,+5V*
X169500000Y-55000000D03*
G04 #@! TO.P,C2,2*
G04 #@! TO.N,GND*
X173500000Y-55000000D03*
G04 #@! TD*
D13*
G04 #@! TO.P,C3,1*
G04 #@! TO.N,Net-(C3-Pad1)*
X151500000Y-58750000D03*
G04 #@! TO.P,C3,2*
G04 #@! TO.N,Net-(C3-Pad2)*
X151500000Y-54750000D03*
G04 #@! TD*
D12*
G04 #@! TO.P,C4,1*
G04 #@! TO.N,GND*
X126500000Y-61750000D03*
G04 #@! TO.P,C4,2*
G04 #@! TO.N,Net-(C4-Pad2)*
X130500000Y-61750000D03*
G04 #@! TD*
G04 #@! TO.P,C5,1*
G04 #@! TO.N,GND*
X126500000Y-70250000D03*
G04 #@! TO.P,C5,2*
G04 #@! TO.N,Net-(C5-Pad2)*
X130500000Y-70250000D03*
G04 #@! TD*
G04 #@! TO.P,C6,1*
G04 #@! TO.N,+5V*
X142750000Y-97000000D03*
G04 #@! TO.P,C6,2*
G04 #@! TO.N,GND*
X138750000Y-97000000D03*
G04 #@! TD*
G04 #@! TO.P,C7,1*
G04 #@! TO.N,+5V*
X169750000Y-90500000D03*
G04 #@! TO.P,C7,2*
G04 #@! TO.N,GND*
X173750000Y-90500000D03*
G04 #@! TD*
D13*
G04 #@! TO.P,C8,1*
G04 #@! TO.N,Net-(C8-Pad1)*
X151750000Y-94250000D03*
G04 #@! TO.P,C8,2*
G04 #@! TO.N,Net-(C8-Pad2)*
X151750000Y-90250000D03*
G04 #@! TD*
D12*
G04 #@! TO.P,C9,1*
G04 #@! TO.N,GND*
X126750000Y-97500000D03*
G04 #@! TO.P,C9,2*
G04 #@! TO.N,Net-(C9-Pad2)*
X130750000Y-97500000D03*
G04 #@! TD*
G04 #@! TO.P,C10,1*
G04 #@! TO.N,GND*
X126750000Y-106000000D03*
G04 #@! TO.P,C10,2*
G04 #@! TO.N,Net-(C10-Pad2)*
X130750000Y-106000000D03*
G04 #@! TD*
G04 #@! TO.P,C11,1*
G04 #@! TO.N,+5V*
X142750000Y-132250000D03*
G04 #@! TO.P,C11,2*
G04 #@! TO.N,GND*
X138750000Y-132250000D03*
G04 #@! TD*
G04 #@! TO.P,C12,1*
G04 #@! TO.N,+5V*
X169500000Y-125750000D03*
G04 #@! TO.P,C12,2*
G04 #@! TO.N,GND*
X173500000Y-125750000D03*
G04 #@! TD*
D13*
G04 #@! TO.P,C13,1*
G04 #@! TO.N,Net-(C13-Pad1)*
X151750000Y-129500000D03*
G04 #@! TO.P,C13,2*
G04 #@! TO.N,Net-(C13-Pad2)*
X151750000Y-125500000D03*
G04 #@! TD*
D12*
G04 #@! TO.P,C14,1*
G04 #@! TO.N,GND*
X126750000Y-132750000D03*
G04 #@! TO.P,C14,2*
G04 #@! TO.N,Net-(C14-Pad2)*
X130750000Y-132750000D03*
G04 #@! TD*
G04 #@! TO.P,C15,1*
G04 #@! TO.N,GND*
X126750000Y-140750000D03*
G04 #@! TO.P,C15,2*
G04 #@! TO.N,Net-(C15-Pad2)*
X130750000Y-140750000D03*
G04 #@! TD*
D14*
G04 #@! TO.P,C16,1*
G04 #@! TO.N,+5V*
X115000000Y-56500000D03*
D15*
G04 #@! TO.P,C16,2*
G04 #@! TO.N,GND*
X118500000Y-56500000D03*
G04 #@! TD*
D16*
G04 #@! TO.P,J4,*
G04 #@! TO.N,*
X118000000Y-41500000D03*
D17*
X124200000Y-40500000D03*
X114300000Y-40500000D03*
D18*
G04 #@! TO.P,J4,1*
G04 #@! TO.N,+5V*
X114700000Y-47800000D03*
G04 #@! TO.P,J4,3*
G04 #@! TO.N,GND*
X118000000Y-47800000D03*
G04 #@! TO.P,J4,2*
X123300000Y-47800000D03*
G04 #@! TD*
D19*
G04 #@! TO.P,R1,1*
G04 #@! TO.N,ch1*
X126500000Y-54750000D03*
G04 #@! TO.P,R1,2*
G04 #@! TO.N,Net-(R1-Pad2)*
X130500000Y-54750000D03*
G04 #@! TD*
D20*
G04 #@! TO.P,R2,1*
G04 #@! TO.N,Net-(R2-Pad1)*
X134500000Y-57750000D03*
G04 #@! TO.P,R2,2*
G04 #@! TO.N,Net-(C4-Pad2)*
X134500000Y-61750000D03*
G04 #@! TD*
G04 #@! TO.P,R3,1*
G04 #@! TO.N,Net-(C4-Pad2)*
X134500000Y-66250000D03*
G04 #@! TO.P,R3,2*
G04 #@! TO.N,Net-(C5-Pad2)*
X134500000Y-70250000D03*
G04 #@! TD*
G04 #@! TO.P,R4,1*
G04 #@! TO.N,GND*
X130500000Y-46750000D03*
G04 #@! TO.P,R4,2*
G04 #@! TO.N,Net-(R1-Pad2)*
X130500000Y-50750000D03*
G04 #@! TD*
G04 #@! TO.P,R5,1*
G04 #@! TO.N,Net-(C3-Pad2)*
X155500000Y-54750000D03*
G04 #@! TO.P,R5,2*
G04 #@! TO.N,GND*
X155500000Y-58750000D03*
G04 #@! TD*
D19*
G04 #@! TO.P,R6,1*
G04 #@! TO.N,Net-(C3-Pad1)*
X147250000Y-62750000D03*
G04 #@! TO.P,R6,2*
G04 #@! TO.N,Net-(R6-Pad2)*
X151250000Y-62750000D03*
G04 #@! TD*
G04 #@! TO.P,R7,1*
G04 #@! TO.N,Net-(R7-Pad1)*
X134500000Y-41000000D03*
G04 #@! TO.P,R7,2*
G04 #@! TO.N,GND*
X130500000Y-41000000D03*
G04 #@! TD*
G04 #@! TO.P,R8,1*
G04 #@! TO.N,Net-(R6-Pad2)*
X151500000Y-66750000D03*
G04 #@! TO.P,R8,2*
G04 #@! TO.N,GND*
X155500000Y-66750000D03*
G04 #@! TD*
G04 #@! TO.P,R9,1*
G04 #@! TO.N,Net-(R9-Pad1)*
X161000000Y-58500000D03*
G04 #@! TO.P,R9,2*
G04 #@! TO.N,+5V*
X165000000Y-58500000D03*
G04 #@! TD*
D20*
G04 #@! TO.P,R10,1*
G04 #@! TO.N,GND*
X160750000Y-63250000D03*
G04 #@! TO.P,R10,2*
G04 #@! TO.N,Net-(R10-Pad2)*
X160750000Y-67250000D03*
G04 #@! TD*
D19*
G04 #@! TO.P,R11,1*
G04 #@! TO.N,ch2*
X126750000Y-90500000D03*
G04 #@! TO.P,R11,2*
G04 #@! TO.N,Net-(R11-Pad2)*
X130750000Y-90500000D03*
G04 #@! TD*
D20*
G04 #@! TO.P,R12,1*
G04 #@! TO.N,Net-(R12-Pad1)*
X134750000Y-93500000D03*
G04 #@! TO.P,R12,2*
G04 #@! TO.N,Net-(C9-Pad2)*
X134750000Y-97500000D03*
G04 #@! TD*
G04 #@! TO.P,R13,1*
G04 #@! TO.N,Net-(C9-Pad2)*
X134750000Y-102000000D03*
G04 #@! TO.P,R13,2*
G04 #@! TO.N,Net-(C10-Pad2)*
X134750000Y-106000000D03*
G04 #@! TD*
G04 #@! TO.P,R14,1*
G04 #@! TO.N,GND*
X131000000Y-82500000D03*
G04 #@! TO.P,R14,2*
G04 #@! TO.N,Net-(R11-Pad2)*
X131000000Y-86500000D03*
G04 #@! TD*
G04 #@! TO.P,R15,1*
G04 #@! TO.N,Net-(C8-Pad2)*
X155750000Y-90250000D03*
G04 #@! TO.P,R15,2*
G04 #@! TO.N,GND*
X155750000Y-94250000D03*
G04 #@! TD*
D19*
G04 #@! TO.P,R16,1*
G04 #@! TO.N,Net-(C8-Pad1)*
X147500000Y-98500000D03*
G04 #@! TO.P,R16,2*
G04 #@! TO.N,Net-(R16-Pad2)*
X151500000Y-98500000D03*
G04 #@! TD*
G04 #@! TO.P,R17,1*
G04 #@! TO.N,Net-(R17-Pad1)*
X135000000Y-76750000D03*
G04 #@! TO.P,R17,2*
G04 #@! TO.N,GND*
X131000000Y-76750000D03*
G04 #@! TD*
G04 #@! TO.P,R18,1*
G04 #@! TO.N,Net-(R16-Pad2)*
X151250000Y-102750000D03*
G04 #@! TO.P,R18,2*
G04 #@! TO.N,GND*
X155250000Y-102750000D03*
G04 #@! TD*
G04 #@! TO.P,R19,1*
G04 #@! TO.N,Net-(R19-Pad1)*
X161250000Y-94000000D03*
G04 #@! TO.P,R19,2*
G04 #@! TO.N,+5V*
X165250000Y-94000000D03*
G04 #@! TD*
D20*
G04 #@! TO.P,R20,1*
G04 #@! TO.N,GND*
X161000000Y-98750000D03*
G04 #@! TO.P,R20,2*
G04 #@! TO.N,Net-(R20-Pad2)*
X161000000Y-102750000D03*
G04 #@! TD*
D19*
G04 #@! TO.P,R21,1*
G04 #@! TO.N,ch3*
X126750000Y-125750000D03*
G04 #@! TO.P,R21,2*
G04 #@! TO.N,Net-(R21-Pad2)*
X130750000Y-125750000D03*
G04 #@! TD*
D20*
G04 #@! TO.P,R22,1*
G04 #@! TO.N,Net-(R22-Pad1)*
X134750000Y-128750000D03*
G04 #@! TO.P,R22,2*
G04 #@! TO.N,Net-(C14-Pad2)*
X134750000Y-132750000D03*
G04 #@! TD*
G04 #@! TO.P,R23,1*
G04 #@! TO.N,Net-(C14-Pad2)*
X134750000Y-136750000D03*
G04 #@! TO.P,R23,2*
G04 #@! TO.N,Net-(C15-Pad2)*
X134750000Y-140750000D03*
G04 #@! TD*
G04 #@! TO.P,R24,1*
G04 #@! TO.N,GND*
X130750000Y-117750000D03*
G04 #@! TO.P,R24,2*
G04 #@! TO.N,Net-(R21-Pad2)*
X130750000Y-121750000D03*
G04 #@! TD*
G04 #@! TO.P,R25,1*
G04 #@! TO.N,Net-(C13-Pad2)*
X155750000Y-125500000D03*
G04 #@! TO.P,R25,2*
G04 #@! TO.N,GND*
X155750000Y-129500000D03*
G04 #@! TD*
D19*
G04 #@! TO.P,R26,1*
G04 #@! TO.N,Net-(C13-Pad1)*
X147500000Y-133500000D03*
G04 #@! TO.P,R26,2*
G04 #@! TO.N,Net-(R26-Pad2)*
X151500000Y-133500000D03*
G04 #@! TD*
G04 #@! TO.P,R27,1*
G04 #@! TO.N,Net-(R27-Pad1)*
X134750000Y-112250000D03*
G04 #@! TO.P,R27,2*
G04 #@! TO.N,GND*
X130750000Y-112250000D03*
G04 #@! TD*
G04 #@! TO.P,R28,1*
G04 #@! TO.N,Net-(R26-Pad2)*
X151750000Y-137500000D03*
G04 #@! TO.P,R28,2*
G04 #@! TO.N,GND*
X155750000Y-137500000D03*
G04 #@! TD*
G04 #@! TO.P,R29,1*
G04 #@! TO.N,Net-(R29-Pad1)*
X161250000Y-129250000D03*
G04 #@! TO.P,R29,2*
G04 #@! TO.N,+5V*
X165250000Y-129250000D03*
G04 #@! TD*
D20*
G04 #@! TO.P,R30,1*
G04 #@! TO.N,GND*
X161000000Y-134000000D03*
G04 #@! TO.P,R30,2*
G04 #@! TO.N,Net-(R30-Pad2)*
X161000000Y-138000000D03*
G04 #@! TD*
D11*
G04 #@! TO.P,RV1,3*
G04 #@! TO.N,Net-(R7-Pad1)*
X144330000Y-43500000D03*
G04 #@! TO.P,RV1,2*
X141790000Y-40960000D03*
G04 #@! TO.P,RV1,1*
G04 #@! TO.N,Net-(RV1-Pad1)*
X139250000Y-43500000D03*
G04 #@! TD*
G04 #@! TO.P,RV2,1*
G04 #@! TO.N,Net-(R9-Pad1)*
X165210000Y-64750000D03*
G04 #@! TO.P,RV2,2*
G04 #@! TO.N,Net-(R10-Pad2)*
X167750000Y-67290000D03*
G04 #@! TO.P,RV2,3*
X170290000Y-64750000D03*
G04 #@! TD*
G04 #@! TO.P,RV3,3*
G04 #@! TO.N,Net-(R17-Pad1)*
X144580000Y-79250000D03*
G04 #@! TO.P,RV3,2*
X142040000Y-76710000D03*
G04 #@! TO.P,RV3,1*
G04 #@! TO.N,Net-(RV3-Pad1)*
X139500000Y-79250000D03*
G04 #@! TD*
G04 #@! TO.P,RV5,3*
G04 #@! TO.N,Net-(R27-Pad1)*
X144580000Y-114750000D03*
G04 #@! TO.P,RV5,2*
X142040000Y-112210000D03*
G04 #@! TO.P,RV5,1*
G04 #@! TO.N,Net-(RV5-Pad1)*
X139500000Y-114750000D03*
G04 #@! TD*
G04 #@! TO.P,RV6,1*
G04 #@! TO.N,Net-(R29-Pad1)*
X165460000Y-135500000D03*
G04 #@! TO.P,RV6,2*
G04 #@! TO.N,Net-(R30-Pad2)*
X168000000Y-138040000D03*
G04 #@! TO.P,RV6,3*
X170540000Y-135500000D03*
G04 #@! TD*
D21*
G04 #@! TO.P,U1,1*
G04 #@! TO.N,Net-(R2-Pad1)*
X139190000Y-57700000D03*
G04 #@! TO.P,U1,2*
X140460000Y-57700000D03*
G04 #@! TO.P,U1,3*
G04 #@! TO.N,Net-(R1-Pad2)*
X141730000Y-57700000D03*
G04 #@! TO.P,U1,4*
G04 #@! TO.N,+5V*
X143000000Y-57700000D03*
G04 #@! TO.P,U1,5*
G04 #@! TO.N,Net-(C5-Pad2)*
X144270000Y-57700000D03*
G04 #@! TO.P,U1,6*
G04 #@! TO.N,Net-(R6-Pad2)*
X145540000Y-57700000D03*
G04 #@! TO.P,U1,7*
G04 #@! TO.N,Net-(C3-Pad1)*
X146810000Y-57700000D03*
G04 #@! TO.P,U1,8*
G04 #@! TO.N,ch1_aout*
X146810000Y-52300000D03*
G04 #@! TO.P,U1,9*
X145540000Y-52300000D03*
G04 #@! TO.P,U1,10*
G04 #@! TO.N,Net-(RV1-Pad1)*
X144270000Y-52300000D03*
G04 #@! TO.P,U1,11*
G04 #@! TO.N,GND*
X143000000Y-52300000D03*
G04 #@! TO.P,U1,12*
G04 #@! TO.N,Net-(C3-Pad2)*
X141730000Y-52300000D03*
G04 #@! TO.P,U1,13*
G04 #@! TO.N,Net-(R7-Pad1)*
X140460000Y-52300000D03*
G04 #@! TO.P,U1,14*
G04 #@! TO.N,Net-(RV1-Pad1)*
X139190000Y-52300000D03*
G04 #@! TD*
D22*
G04 #@! TO.P,U2,1*
G04 #@! TO.N,ch1_dout*
X165700000Y-52150000D03*
G04 #@! TO.P,U2,2*
G04 #@! TO.N,GND*
X164750000Y-52150000D03*
G04 #@! TO.P,U2,3*
G04 #@! TO.N,ch1_aout*
X163800000Y-52150000D03*
G04 #@! TO.P,U2,4*
G04 #@! TO.N,Net-(R9-Pad1)*
X163800000Y-54850000D03*
G04 #@! TO.P,U2,5*
G04 #@! TO.N,+5V*
X165700000Y-54850000D03*
G04 #@! TD*
D21*
G04 #@! TO.P,U3,1*
G04 #@! TO.N,Net-(R12-Pad1)*
X139440000Y-93200000D03*
G04 #@! TO.P,U3,2*
X140710000Y-93200000D03*
G04 #@! TO.P,U3,3*
G04 #@! TO.N,Net-(R11-Pad2)*
X141980000Y-93200000D03*
G04 #@! TO.P,U3,4*
G04 #@! TO.N,+5V*
X143250000Y-93200000D03*
G04 #@! TO.P,U3,5*
G04 #@! TO.N,Net-(C10-Pad2)*
X144520000Y-93200000D03*
G04 #@! TO.P,U3,6*
G04 #@! TO.N,Net-(R16-Pad2)*
X145790000Y-93200000D03*
G04 #@! TO.P,U3,7*
G04 #@! TO.N,Net-(C8-Pad1)*
X147060000Y-93200000D03*
G04 #@! TO.P,U3,8*
G04 #@! TO.N,ch2_aout*
X147060000Y-87800000D03*
G04 #@! TO.P,U3,9*
X145790000Y-87800000D03*
G04 #@! TO.P,U3,10*
G04 #@! TO.N,Net-(RV3-Pad1)*
X144520000Y-87800000D03*
G04 #@! TO.P,U3,11*
G04 #@! TO.N,GND*
X143250000Y-87800000D03*
G04 #@! TO.P,U3,12*
G04 #@! TO.N,Net-(C8-Pad2)*
X141980000Y-87800000D03*
G04 #@! TO.P,U3,13*
G04 #@! TO.N,Net-(R17-Pad1)*
X140710000Y-87800000D03*
G04 #@! TO.P,U3,14*
G04 #@! TO.N,Net-(RV3-Pad1)*
X139440000Y-87800000D03*
G04 #@! TD*
D22*
G04 #@! TO.P,U4,1*
G04 #@! TO.N,ch2_dout*
X165950000Y-87650000D03*
G04 #@! TO.P,U4,2*
G04 #@! TO.N,GND*
X165000000Y-87650000D03*
G04 #@! TO.P,U4,3*
G04 #@! TO.N,ch2_aout*
X164050000Y-87650000D03*
G04 #@! TO.P,U4,4*
G04 #@! TO.N,Net-(R19-Pad1)*
X164050000Y-90350000D03*
G04 #@! TO.P,U4,5*
G04 #@! TO.N,+5V*
X165950000Y-90350000D03*
G04 #@! TD*
D21*
G04 #@! TO.P,U5,1*
G04 #@! TO.N,Net-(R22-Pad1)*
X139440000Y-128700000D03*
G04 #@! TO.P,U5,2*
X140710000Y-128700000D03*
G04 #@! TO.P,U5,3*
G04 #@! TO.N,Net-(R21-Pad2)*
X141980000Y-128700000D03*
G04 #@! TO.P,U5,4*
G04 #@! TO.N,+5V*
X143250000Y-128700000D03*
G04 #@! TO.P,U5,5*
G04 #@! TO.N,Net-(C15-Pad2)*
X144520000Y-128700000D03*
G04 #@! TO.P,U5,6*
G04 #@! TO.N,Net-(R26-Pad2)*
X145790000Y-128700000D03*
G04 #@! TO.P,U5,7*
G04 #@! TO.N,Net-(C13-Pad1)*
X147060000Y-128700000D03*
G04 #@! TO.P,U5,8*
G04 #@! TO.N,ch3_aout*
X147060000Y-123300000D03*
G04 #@! TO.P,U5,9*
X145790000Y-123300000D03*
G04 #@! TO.P,U5,10*
G04 #@! TO.N,Net-(RV5-Pad1)*
X144520000Y-123300000D03*
G04 #@! TO.P,U5,11*
G04 #@! TO.N,GND*
X143250000Y-123300000D03*
G04 #@! TO.P,U5,12*
G04 #@! TO.N,Net-(C13-Pad2)*
X141980000Y-123300000D03*
G04 #@! TO.P,U5,13*
G04 #@! TO.N,Net-(R27-Pad1)*
X140710000Y-123300000D03*
G04 #@! TO.P,U5,14*
G04 #@! TO.N,Net-(RV5-Pad1)*
X139440000Y-123300000D03*
G04 #@! TD*
D22*
G04 #@! TO.P,U6,1*
G04 #@! TO.N,ch3_dout*
X165950000Y-122900000D03*
G04 #@! TO.P,U6,2*
G04 #@! TO.N,GND*
X165000000Y-122900000D03*
G04 #@! TO.P,U6,3*
G04 #@! TO.N,ch3_aout*
X164050000Y-122900000D03*
G04 #@! TO.P,U6,4*
G04 #@! TO.N,Net-(R29-Pad1)*
X164050000Y-125600000D03*
G04 #@! TO.P,U6,5*
G04 #@! TO.N,+5V*
X165950000Y-125600000D03*
G04 #@! TD*
D23*
G04 #@! TO.N,+5V*
X142800000Y-143400000D03*
X142750000Y-108000000D03*
X142500000Y-72750000D03*
X142750000Y-135000000D03*
X142750000Y-100000000D03*
X142500000Y-64500000D03*
D24*
G04 #@! TO.N,GND*
X176500000Y-125750000D03*
D23*
X176750000Y-90500000D03*
X155750000Y-134000000D03*
X155750000Y-98750000D03*
X176500000Y-55000000D03*
X155500000Y-63250000D03*
D24*
X165000000Y-120500000D03*
X143250000Y-121000000D03*
D23*
X138750000Y-135000000D03*
X126750000Y-137000000D03*
X130750000Y-114750000D03*
X131000000Y-79500000D03*
X130500000Y-43750000D03*
D24*
X143250000Y-85500000D03*
X165000000Y-85000000D03*
D23*
X138750000Y-100000000D03*
X126750000Y-101750000D03*
D24*
X164750000Y-49750000D03*
X143000000Y-50000000D03*
D23*
X138500000Y-64500000D03*
X126500000Y-66000000D03*
D24*
G04 #@! TO.N,ch2_aout*
X153800000Y-87700000D03*
X149500000Y-87700000D03*
G04 #@! TO.N,ch3_aout*
X153750000Y-123000000D03*
X149750000Y-123000000D03*
G04 #@! TO.N,ch1_aout*
X153500000Y-52300000D03*
X149500000Y-52300000D03*
G04 #@! TD*
D25*
G04 #@! TO.N,+5V*
X142800000Y-143400000D02*
X142700000Y-143500000D01*
X114700000Y-47800000D02*
X115000000Y-48100000D01*
X115000000Y-48100000D02*
X115000000Y-56500000D01*
X114200000Y-48300000D02*
X114500000Y-48600000D01*
X169500000Y-125750000D02*
X169400000Y-125850000D01*
X169400000Y-125850000D02*
X169400000Y-127800000D01*
X169400000Y-127800000D02*
X171000000Y-129400000D01*
X165016730Y-129400000D02*
X171000000Y-129400000D01*
X171000000Y-129400000D02*
X173200000Y-129400000D01*
X175168773Y-131652484D02*
X173200000Y-129400000D01*
X175200000Y-140600000D02*
X175168773Y-131652484D01*
X172400000Y-143400000D02*
X175200000Y-140600000D01*
X172400000Y-143400000D02*
X142800000Y-143400000D01*
X169750000Y-90500000D02*
X169800000Y-90550000D01*
X169800000Y-90550000D02*
X169800000Y-92600000D01*
X169800000Y-92600000D02*
X171400000Y-94000000D01*
X165250000Y-94000000D02*
X171400000Y-94000000D01*
X171400000Y-94000000D02*
X173400000Y-94000000D01*
X172800000Y-108000000D02*
X142750000Y-108000000D01*
X172800000Y-108000000D02*
X175200000Y-105600000D01*
X175200000Y-105600000D02*
X175200000Y-96000000D01*
X175200000Y-96000000D02*
X173400000Y-94000000D01*
X169500000Y-55000000D02*
X169400000Y-55100000D01*
X169400000Y-55100000D02*
X169400000Y-57000000D01*
X169400000Y-57000000D02*
X170800000Y-58400000D01*
X174803843Y-70203997D02*
X174776443Y-60199517D01*
X174776443Y-60199517D02*
X173000000Y-58400000D01*
X170800000Y-58400000D02*
X173000000Y-58400000D01*
X172450000Y-72750000D02*
X142500000Y-72750000D01*
X172450000Y-72750000D02*
X174803843Y-70203997D01*
X165100000Y-58400000D02*
X170800000Y-58400000D01*
X165100000Y-58400000D02*
X165000000Y-58500000D01*
X142750000Y-135000000D02*
X142750000Y-132250000D01*
X142750000Y-100000000D02*
X142750000Y-97500000D01*
X142500000Y-64500000D02*
X142500000Y-61500000D01*
D26*
X165950000Y-125600000D02*
X166100000Y-125750000D01*
X166100000Y-125750000D02*
X169500000Y-125750000D01*
X165950000Y-90350000D02*
X166100000Y-90500000D01*
X166100000Y-90500000D02*
X169750000Y-90500000D01*
X169500000Y-55000000D02*
X169350000Y-54850000D01*
X169350000Y-54850000D02*
X165700000Y-54850000D01*
X143250000Y-128700000D02*
X143250000Y-130000000D01*
X143250000Y-130000000D02*
X143250000Y-131750000D01*
X143250000Y-131750000D02*
X142750000Y-132250000D01*
X165950000Y-90350000D02*
X165950000Y-89950000D01*
X143250000Y-93450000D02*
X143250000Y-97000000D01*
X143250000Y-97000000D02*
X142750000Y-97500000D01*
X143000000Y-57700000D02*
X143000000Y-61000000D01*
X143000000Y-61000000D02*
X142500000Y-61500000D01*
D25*
G04 #@! TO.N,GND*
X173500000Y-125750000D02*
X176500000Y-125750000D01*
X118000000Y-47800000D02*
X123300000Y-47800000D01*
X161000000Y-134000000D02*
X155750000Y-134000000D01*
X173750000Y-90500000D02*
X176750000Y-90500000D01*
X161000000Y-98750000D02*
X155750000Y-98750000D01*
X173500000Y-55000000D02*
X176500000Y-55000000D01*
X160750000Y-63250000D02*
X155500000Y-63250000D01*
D26*
X165000000Y-122900000D02*
X165000000Y-120500000D01*
X143250000Y-123300000D02*
X143250000Y-121000000D01*
D25*
X155750000Y-129500000D02*
X155750000Y-133500000D01*
X155750000Y-133500000D02*
X155750000Y-137500000D01*
X138750000Y-132250000D02*
X138750000Y-135000000D01*
X126750000Y-140750000D02*
X126750000Y-137000000D01*
X126750000Y-137000000D02*
X126750000Y-132750000D01*
X130750000Y-112250000D02*
X130750000Y-114750000D01*
X130750000Y-114750000D02*
X130750000Y-117750000D01*
X131000000Y-76750000D02*
X131000000Y-79500000D01*
X131000000Y-79500000D02*
X131000000Y-82500000D01*
X130500000Y-41000000D02*
X130500000Y-43750000D01*
X130500000Y-43750000D02*
X130500000Y-46750000D01*
D26*
X143250000Y-87800000D02*
X143250000Y-85500000D01*
X165000000Y-87650000D02*
X165000000Y-85000000D01*
D25*
X138750000Y-97500000D02*
X138750000Y-100000000D01*
X155750000Y-102250000D02*
X155750000Y-98500000D01*
X155750000Y-98500000D02*
X155750000Y-94250000D01*
D26*
X155750000Y-102250000D02*
X155250000Y-102750000D01*
D25*
X126750000Y-105750000D02*
X126750000Y-101750000D01*
X126750000Y-101750000D02*
X126750000Y-97500000D01*
D26*
X126750000Y-105750000D02*
X126500000Y-106000000D01*
X164750000Y-52150000D02*
X164750000Y-49750000D01*
D25*
X155500000Y-66750000D02*
X155500000Y-62750000D01*
X155500000Y-62750000D02*
X155500000Y-58750000D01*
D26*
X143000000Y-52300000D02*
X143000000Y-50000000D01*
D25*
X138500000Y-61500000D02*
X138500000Y-64500000D01*
X126500000Y-70250000D02*
X126500000Y-66000000D01*
X126500000Y-66000000D02*
X126500000Y-61750000D01*
D26*
G04 #@! TO.N,Net-(C3-Pad1)*
X146810000Y-59500000D02*
X146810000Y-62310000D01*
X146810000Y-62310000D02*
X147250000Y-62750000D01*
X146810000Y-59500000D02*
X150750000Y-59500000D01*
X150750000Y-59500000D02*
X151500000Y-58750000D01*
X146810000Y-57700000D02*
X146810000Y-59250000D01*
X146810000Y-59250000D02*
X146810000Y-59500000D01*
G04 #@! TO.N,Net-(C3-Pad2)*
X142750000Y-48250000D02*
X150500000Y-48250000D01*
X141730000Y-52300000D02*
X141730000Y-49270000D01*
X151500000Y-49250000D02*
X151500000Y-54750000D01*
X150500000Y-48250000D02*
X151500000Y-49250000D01*
X141730000Y-49270000D02*
X142750000Y-48250000D01*
X151000000Y-54250000D02*
X151500000Y-54750000D01*
X151500000Y-54750000D02*
X155500000Y-54750000D01*
X151000000Y-54250000D02*
X151500000Y-54750000D01*
G04 #@! TO.N,Net-(C4-Pad2)*
X134500000Y-61750000D02*
X134500000Y-66250000D01*
X134500000Y-61750000D02*
X130500000Y-61750000D01*
G04 #@! TO.N,Net-(C5-Pad2)*
X144270000Y-57700000D02*
X144270000Y-68980000D01*
X143000000Y-70250000D02*
X134500000Y-70250000D01*
X144270000Y-68980000D02*
X143000000Y-70250000D01*
X134500000Y-70250000D02*
X130500000Y-70250000D01*
G04 #@! TO.N,Net-(C8-Pad1)*
X147060000Y-95000000D02*
X151000000Y-95000000D01*
X151000000Y-95000000D02*
X151750000Y-94250000D01*
X147060000Y-93450000D02*
X147060000Y-95000000D01*
X147060000Y-95000000D02*
X147060000Y-98310000D01*
X147060000Y-98310000D02*
X147250000Y-98500000D01*
G04 #@! TO.N,Net-(C8-Pad2)*
X141980000Y-87800000D02*
X141980000Y-85020000D01*
X151750000Y-85250000D02*
X151750000Y-90250000D01*
X150500000Y-84000000D02*
X151750000Y-85250000D01*
X143000000Y-84000000D02*
X150500000Y-84000000D01*
X141980000Y-85020000D02*
X143000000Y-84000000D01*
X151750000Y-90250000D02*
X155750000Y-90250000D01*
G04 #@! TO.N,Net-(C9-Pad2)*
X134750000Y-97500000D02*
X134750000Y-102000000D01*
X134750000Y-97500000D02*
X130750000Y-97500000D01*
G04 #@! TO.N,Net-(C10-Pad2)*
X142750000Y-106000000D02*
X143250000Y-106000000D01*
X144520000Y-104730000D02*
X144520000Y-104230000D01*
X143250000Y-106000000D02*
X144520000Y-104730000D01*
X134750000Y-106000000D02*
X142750000Y-106000000D01*
X144520000Y-104230000D02*
X144520000Y-93450000D01*
X134750000Y-106000000D02*
X130500000Y-106000000D01*
G04 #@! TO.N,Net-(C13-Pad1)*
X147000000Y-130250000D02*
X150000000Y-130250000D01*
X150000000Y-130250000D02*
X151000000Y-130250000D01*
X151000000Y-130250000D02*
X151750000Y-129500000D01*
X147060000Y-128700000D02*
X147000000Y-128760000D01*
X147000000Y-128760000D02*
X147000000Y-130250000D01*
X147000000Y-130250000D02*
X147000000Y-133000000D01*
X147000000Y-133000000D02*
X147500000Y-133500000D01*
G04 #@! TO.N,Net-(C13-Pad2)*
X150500000Y-119750000D02*
X151750000Y-121000000D01*
X151750000Y-121000000D02*
X151750000Y-121250000D01*
X142000000Y-120500000D02*
X142750000Y-119750000D01*
X142750000Y-119750000D02*
X150500000Y-119750000D01*
X141980000Y-123300000D02*
X142000000Y-123280000D01*
X142000000Y-123280000D02*
X142000000Y-120500000D01*
X151750000Y-121250000D02*
X151750000Y-125500000D01*
X151750000Y-125500000D02*
X155750000Y-125500000D01*
G04 #@! TO.N,Net-(C14-Pad2)*
X134750000Y-132750000D02*
X130750000Y-132750000D01*
X134750000Y-132750000D02*
X134750000Y-136750000D01*
G04 #@! TO.N,Net-(C15-Pad2)*
X144500000Y-139500000D02*
X143250000Y-140750000D01*
X134750000Y-140750000D02*
X143250000Y-140750000D01*
X144500000Y-139500000D02*
X144500000Y-128720000D01*
X144500000Y-128720000D02*
X144520000Y-128700000D01*
X134750000Y-140750000D02*
X130750000Y-140750000D01*
D27*
G04 #@! TO.N,ch2_dout*
X183750000Y-77000000D02*
X183750000Y-76000000D01*
X183500000Y-75250000D02*
X182040000Y-75250000D01*
X183750000Y-75500000D02*
X183500000Y-75250000D01*
X183750000Y-76000000D02*
X183750000Y-75500000D01*
X182040000Y-75250000D02*
X182000000Y-75290000D01*
X166100000Y-87500000D02*
X182750000Y-87500000D01*
X182750000Y-87500000D02*
X183750000Y-86500000D01*
X183750000Y-86500000D02*
X183750000Y-77000000D01*
X165950000Y-87650000D02*
X166100000Y-87500000D01*
X165950000Y-87650000D02*
X166050000Y-87750000D01*
D26*
X166050000Y-87750000D02*
X165950000Y-87650000D01*
D27*
G04 #@! TO.N,ch3_dout*
X184500000Y-72670000D02*
X184500000Y-71000000D01*
X183750000Y-70250000D02*
X182080000Y-70250000D01*
X184500000Y-71000000D02*
X183750000Y-70250000D01*
X182080000Y-70250000D02*
X182000000Y-70170000D01*
X166050000Y-123000000D02*
X177000000Y-123000000D01*
X177000000Y-123000000D02*
X178250000Y-121750000D01*
X178250000Y-121750000D02*
X178250000Y-89250000D01*
X178250000Y-89250000D02*
X179250000Y-88250000D01*
X179250000Y-88250000D02*
X183000000Y-88250000D01*
X183000000Y-88250000D02*
X184500000Y-86750000D01*
X184500000Y-86750000D02*
X184500000Y-72670000D01*
X165950000Y-122900000D02*
X166050000Y-123000000D01*
G04 #@! TO.N,ch1_dout*
X185250000Y-78620000D02*
X185250000Y-79250000D01*
X185500000Y-80250000D02*
X186880000Y-80250000D01*
X185250000Y-80000000D02*
X185500000Y-80250000D01*
X185250000Y-79250000D02*
X185250000Y-80000000D01*
X186880000Y-80250000D02*
X187000000Y-80370000D01*
X165800000Y-52250000D02*
X184250000Y-52250000D01*
X184250000Y-52250000D02*
X185250000Y-53250000D01*
X185250000Y-53250000D02*
X185250000Y-78620000D01*
X165700000Y-52150000D02*
X165800000Y-52250000D01*
D26*
G04 #@! TO.N,ch2*
X115000000Y-92710000D02*
X115040000Y-92750000D01*
X115040000Y-92750000D02*
X121250000Y-92750000D01*
X123500000Y-90500000D02*
X126750000Y-90500000D01*
X121250000Y-92750000D02*
X123500000Y-90500000D01*
D25*
X110000000Y-92710000D02*
X115000000Y-92710000D01*
D26*
X126540000Y-90710000D02*
X126750000Y-90500000D01*
G04 #@! TO.N,ch3*
X115000000Y-97830000D02*
X115170000Y-98000000D01*
X115170000Y-98000000D02*
X121250000Y-98000000D01*
X124750000Y-125500000D02*
X126500000Y-125500000D01*
X123250000Y-124000000D02*
X124750000Y-125500000D01*
X123250000Y-100000000D02*
X123250000Y-124000000D01*
X121250000Y-98000000D02*
X123250000Y-100000000D01*
X126500000Y-125500000D02*
X126750000Y-125750000D01*
D25*
X110000000Y-97830000D02*
X115000000Y-97830000D01*
D26*
X126500000Y-125500000D02*
X126750000Y-125750000D01*
G04 #@! TO.N,ch1*
X123000000Y-86000000D02*
X123250000Y-85750000D01*
X123250000Y-85750000D02*
X123250000Y-56000000D01*
X115000000Y-87630000D02*
X115120000Y-87750000D01*
X115120000Y-87750000D02*
X121250000Y-87750000D01*
X124500000Y-54750000D02*
X126500000Y-54750000D01*
X123250000Y-56000000D02*
X124500000Y-54750000D01*
X121250000Y-87750000D02*
X123000000Y-86000000D01*
D25*
X110000000Y-87630000D02*
X115000000Y-87630000D01*
D26*
X126250000Y-55000000D02*
X126500000Y-54750000D01*
G04 #@! TO.N,ch2_aout*
X153800000Y-87700000D02*
X153850000Y-87750000D01*
X182000000Y-112290000D02*
X187000000Y-112290000D01*
X153850000Y-87750000D02*
X163950000Y-87750000D01*
X163950000Y-87750000D02*
X164050000Y-87650000D01*
X149450000Y-87750000D02*
X149500000Y-87700000D01*
X147060000Y-87800000D02*
X149450000Y-87750000D01*
X145790000Y-87800000D02*
X147060000Y-87800000D01*
G04 #@! TO.N,ch3_aout*
X182000000Y-107170000D02*
X187000000Y-107170000D01*
X164050000Y-122900000D02*
X163950000Y-123000000D01*
X163950000Y-123000000D02*
X159000000Y-123000000D01*
X159000000Y-123000000D02*
X153750000Y-123000000D01*
X149750000Y-123000000D02*
X147360000Y-123000000D01*
X147360000Y-123000000D02*
X147060000Y-123300000D01*
X145790000Y-123300000D02*
X147060000Y-123300000D01*
G04 #@! TO.N,ch1_aout*
X182000000Y-117370000D02*
X187000000Y-117370000D01*
X153500000Y-52300000D02*
X153500000Y-50000000D01*
X188500000Y-117500000D02*
X187130000Y-117500000D01*
X189750000Y-116250000D02*
X188500000Y-117500000D01*
X189750000Y-49500000D02*
X189750000Y-116250000D01*
X188500000Y-48250000D02*
X189750000Y-49500000D01*
X154500000Y-48250000D02*
X188500000Y-48250000D01*
X153500000Y-49250000D02*
X154500000Y-48250000D01*
X153500000Y-50000000D02*
X153500000Y-49250000D01*
X187130000Y-117500000D02*
X187000000Y-117370000D01*
X149500000Y-52300000D02*
X146810000Y-52300000D01*
X163700000Y-52250000D02*
X153500000Y-52300000D01*
X163700000Y-52250000D02*
X163800000Y-52150000D01*
X145540000Y-52300000D02*
X146810000Y-52300000D01*
G04 #@! TO.N,Net-(R1-Pad2)*
X130500000Y-54750000D02*
X138250000Y-54750000D01*
X141730000Y-56480000D02*
X141730000Y-57700000D01*
X141000000Y-55750000D02*
X141730000Y-56480000D01*
X139250000Y-55750000D02*
X141000000Y-55750000D01*
X138250000Y-54750000D02*
X139250000Y-55750000D01*
X130500000Y-54750000D02*
X130500000Y-50750000D01*
G04 #@! TO.N,Net-(R2-Pad1)*
X139190000Y-57700000D02*
X134550000Y-57700000D01*
X134550000Y-57700000D02*
X134500000Y-57750000D01*
X139190000Y-57700000D02*
X140460000Y-57700000D01*
G04 #@! TO.N,Net-(R6-Pad2)*
X151250000Y-62750000D02*
X151250000Y-66500000D01*
X151250000Y-66500000D02*
X151500000Y-66750000D01*
X145540000Y-65000000D02*
X145540000Y-65540000D01*
X146750000Y-66750000D02*
X151500000Y-66750000D01*
X145540000Y-65540000D02*
X146750000Y-66750000D01*
X145540000Y-57700000D02*
X145540000Y-65000000D01*
G04 #@! TO.N,Net-(R7-Pad1)*
X134500000Y-41000000D02*
X141750000Y-41000000D01*
X141750000Y-41000000D02*
X141790000Y-40960000D01*
X144330000Y-43500000D02*
X144250000Y-43500000D01*
X144250000Y-43500000D02*
X140460000Y-47290000D01*
X140460000Y-47290000D02*
X140460000Y-52300000D01*
X141790000Y-40960000D02*
X144330000Y-43500000D01*
G04 #@! TO.N,Net-(R9-Pad1)*
X163800000Y-54850000D02*
X163700000Y-54750000D01*
X163700000Y-54750000D02*
X162000000Y-54750000D01*
X161000000Y-55750000D02*
X161000000Y-58500000D01*
X162000000Y-54750000D02*
X161000000Y-55750000D01*
X161000000Y-58500000D02*
X161000000Y-60000000D01*
X165250000Y-61500000D02*
X165250000Y-64710000D01*
X164500000Y-60750000D02*
X165250000Y-61500000D01*
X161750000Y-60750000D02*
X164500000Y-60750000D01*
X161000000Y-60000000D02*
X161750000Y-60750000D01*
X165250000Y-64710000D02*
X165210000Y-64750000D01*
G04 #@! TO.N,Net-(R10-Pad2)*
X160750000Y-67250000D02*
X160790000Y-67290000D01*
X160790000Y-67290000D02*
X167750000Y-67290000D01*
X167750000Y-67290000D02*
X170290000Y-64750000D01*
G04 #@! TO.N,Net-(R11-Pad2)*
X130750000Y-90500000D02*
X139000000Y-90500000D01*
X141980000Y-91730000D02*
X141980000Y-93200000D01*
X141500000Y-91250000D02*
X141980000Y-91730000D01*
X139750000Y-91250000D02*
X141500000Y-91250000D01*
X139000000Y-90500000D02*
X139750000Y-91250000D01*
X131000000Y-86500000D02*
X131000000Y-90250000D01*
X131000000Y-90250000D02*
X130750000Y-90500000D01*
G04 #@! TO.N,Net-(R12-Pad1)*
X139390000Y-93500000D02*
X139440000Y-93450000D01*
X140710000Y-93200000D02*
X139440000Y-93200000D01*
X135050000Y-93200000D02*
X134750000Y-93500000D01*
X139440000Y-93200000D02*
X135050000Y-93200000D01*
G04 #@! TO.N,Net-(R16-Pad2)*
X145790000Y-101000000D02*
X145790000Y-101790000D01*
X146750000Y-102750000D02*
X151250000Y-102750000D01*
X145790000Y-101790000D02*
X146750000Y-102750000D01*
X145790000Y-93450000D02*
X145790000Y-101000000D01*
X151250000Y-102750000D02*
X151250000Y-98500000D01*
G04 #@! TO.N,Net-(R17-Pad1)*
X135000000Y-76750000D02*
X135040000Y-76710000D01*
X135040000Y-76710000D02*
X142040000Y-76710000D01*
X144580000Y-79250000D02*
X144250000Y-79250000D01*
X144250000Y-79250000D02*
X140710000Y-82790000D01*
X140710000Y-82790000D02*
X140710000Y-87800000D01*
X144580000Y-79250000D02*
X144500000Y-79250000D01*
X144580000Y-79250000D02*
X142040000Y-76710000D01*
G04 #@! TO.N,Net-(R19-Pad1)*
X161250000Y-94000000D02*
X161250000Y-95250000D01*
X165500000Y-97000000D02*
X165500000Y-100210000D01*
X164750000Y-96250000D02*
X165500000Y-97000000D01*
X162000000Y-96250000D02*
X164750000Y-96250000D01*
X161250000Y-95500000D02*
X162000000Y-96250000D01*
X161250000Y-95250000D02*
X161250000Y-95500000D01*
X165500000Y-100210000D02*
X165460000Y-100250000D01*
X165500000Y-100210000D02*
X165460000Y-100250000D01*
X161250000Y-94000000D02*
X161250000Y-91750000D01*
X162500000Y-90500000D02*
X163900000Y-90500000D01*
X161250000Y-91750000D02*
X162500000Y-90500000D01*
X163900000Y-90500000D02*
X164050000Y-90350000D01*
G04 #@! TO.N,Net-(R20-Pad2)*
X168000000Y-102790000D02*
X167960000Y-102750000D01*
X167960000Y-102750000D02*
X161000000Y-102750000D01*
X168000000Y-102790000D02*
X170540000Y-100250000D01*
G04 #@! TO.N,Net-(R21-Pad2)*
X130750000Y-125750000D02*
X138750000Y-125750000D01*
X142000000Y-127000000D02*
X142000000Y-128680000D01*
X141500000Y-126500000D02*
X142000000Y-127000000D01*
X141250000Y-126500000D02*
X141500000Y-126500000D01*
X139500000Y-126500000D02*
X141250000Y-126500000D01*
X138750000Y-125750000D02*
X139500000Y-126500000D01*
X142000000Y-128680000D02*
X141980000Y-128700000D01*
X130750000Y-121750000D02*
X130750000Y-125750000D01*
G04 #@! TO.N,Net-(R22-Pad1)*
X139390000Y-128750000D02*
X139440000Y-128700000D01*
X134750000Y-128750000D02*
X139390000Y-128750000D01*
X139440000Y-128700000D02*
X140710000Y-128700000D01*
G04 #@! TO.N,Net-(R26-Pad2)*
X151750000Y-137500000D02*
X151500000Y-137250000D01*
X151500000Y-137250000D02*
X151500000Y-133500000D01*
X145750000Y-135750000D02*
X145750000Y-136500000D01*
X146750000Y-137500000D02*
X147250000Y-137500000D01*
X145750000Y-136500000D02*
X146750000Y-137500000D01*
X145790000Y-128700000D02*
X145750000Y-128740000D01*
X145750000Y-128740000D02*
X145750000Y-135750000D01*
X147250000Y-137500000D02*
X151750000Y-137500000D01*
G04 #@! TO.N,Net-(R27-Pad1)*
X144580000Y-114750000D02*
X140710000Y-118620000D01*
X140710000Y-118620000D02*
X140710000Y-123300000D01*
X142040000Y-112210000D02*
X144580000Y-114750000D01*
X134750000Y-112250000D02*
X134790000Y-112210000D01*
X134790000Y-112210000D02*
X142040000Y-112210000D01*
G04 #@! TO.N,Net-(R29-Pad1)*
X161250000Y-129250000D02*
X161250000Y-127000000D01*
X162250000Y-125750000D02*
X163900000Y-125750000D01*
X161250000Y-126750000D02*
X162250000Y-125750000D01*
X161250000Y-127000000D02*
X161250000Y-126750000D01*
X163900000Y-125750000D02*
X164050000Y-125600000D01*
X161250000Y-129250000D02*
X161250000Y-130750000D01*
X165500000Y-132250000D02*
X165500000Y-135460000D01*
X164750000Y-131500000D02*
X165500000Y-132250000D01*
X161750000Y-131500000D02*
X164750000Y-131500000D01*
X161250000Y-131000000D02*
X161750000Y-131500000D01*
X161250000Y-130750000D02*
X161250000Y-131000000D01*
X165500000Y-135460000D02*
X165460000Y-135500000D01*
G04 #@! TO.N,Net-(R30-Pad2)*
X161000000Y-138000000D02*
X161040000Y-138040000D01*
X161040000Y-138040000D02*
X168000000Y-138040000D01*
X168000000Y-138040000D02*
X170540000Y-135500000D01*
G04 #@! TO.N,Net-(RV1-Pad1)*
X139250000Y-43500000D02*
X139250000Y-52240000D01*
X139250000Y-52240000D02*
X139190000Y-52300000D01*
X139190000Y-52300000D02*
X139190000Y-53940000D01*
X144270000Y-53980000D02*
X144270000Y-52300000D01*
X143750000Y-54500000D02*
X144270000Y-53980000D01*
X139750000Y-54500000D02*
X143750000Y-54500000D01*
X139190000Y-53940000D02*
X139750000Y-54500000D01*
G04 #@! TO.N,Net-(RV3-Pad1)*
X139440000Y-87800000D02*
X139440000Y-89190000D01*
X144520000Y-89230000D02*
X144520000Y-87800000D01*
X144000000Y-89750000D02*
X144520000Y-89230000D01*
X140000000Y-89750000D02*
X144000000Y-89750000D01*
X139440000Y-89190000D02*
X140000000Y-89750000D01*
X139500000Y-79250000D02*
X139500000Y-87740000D01*
X139500000Y-87740000D02*
X139440000Y-87800000D01*
X139500000Y-87990000D02*
X139440000Y-88050000D01*
G04 #@! TO.N,Net-(RV5-Pad1)*
X139440000Y-123300000D02*
X139500000Y-123360000D01*
X139500000Y-123360000D02*
X139500000Y-125000000D01*
X144500000Y-125000000D02*
X144500000Y-123320000D01*
X144000000Y-125500000D02*
X144500000Y-125000000D01*
X140000000Y-125500000D02*
X144000000Y-125500000D01*
X139500000Y-125000000D02*
X140000000Y-125500000D01*
X144500000Y-123320000D02*
X144520000Y-123300000D01*
X139500000Y-114750000D02*
X139440000Y-114810000D01*
X139440000Y-114810000D02*
X139440000Y-123300000D01*
G04 #@! TD*
M02*
