G04 #@! TF.GenerationSoftware,KiCad,Pcbnew,(5.0.2)-1*
G04 #@! TF.CreationDate,2019-03-05T16:27:41-05:00*
G04 #@! TF.ProjectId,piezo_V2,7069657a-6f5f-4563-922e-6b696361645f,rev?*
G04 #@! TF.SameCoordinates,Original*
G04 #@! TF.FileFunction,Soldermask,Top*
G04 #@! TF.FilePolarity,Negative*
%FSLAX46Y46*%
G04 Gerber Fmt 4.6, Leading zero omitted, Abs format (unit mm)*
G04 Created by KiCad (PCBNEW (5.0.2)-1) date 3/5/2019 4:27:41 PM*
%MOMM*%
%LPD*%
G01*
G04 APERTURE LIST*
%ADD10C,1.000000*%
G04 APERTURE END LIST*
D10*
G36*
X188252481Y-141469855D02*
X188452118Y-141509565D01*
X188640173Y-141587460D01*
X188734201Y-141626408D01*
X188988071Y-141796038D01*
X189203962Y-142011929D01*
X189373592Y-142265799D01*
X189373592Y-142265800D01*
X189490435Y-142547882D01*
X189550000Y-142847338D01*
X189550000Y-143152662D01*
X189490435Y-143452118D01*
X189412540Y-143640173D01*
X189373592Y-143734201D01*
X189203962Y-143988071D01*
X188988071Y-144203962D01*
X188734201Y-144373592D01*
X188640173Y-144412540D01*
X188452118Y-144490435D01*
X188252481Y-144530145D01*
X188152663Y-144550000D01*
X187847337Y-144550000D01*
X187747519Y-144530145D01*
X187547882Y-144490435D01*
X187359827Y-144412540D01*
X187265799Y-144373592D01*
X187011929Y-144203962D01*
X186796038Y-143988071D01*
X186626408Y-143734201D01*
X186587460Y-143640173D01*
X186509565Y-143452118D01*
X186450000Y-143152662D01*
X186450000Y-142847338D01*
X186509565Y-142547882D01*
X186626408Y-142265800D01*
X186626408Y-142265799D01*
X186796038Y-142011929D01*
X187011929Y-141796038D01*
X187265799Y-141626408D01*
X187359827Y-141587460D01*
X187547882Y-141509565D01*
X187747519Y-141469855D01*
X187847337Y-141450000D01*
X188152663Y-141450000D01*
X188252481Y-141469855D01*
X188252481Y-141469855D01*
G37*
G36*
X109252481Y-141469855D02*
X109452118Y-141509565D01*
X109640173Y-141587460D01*
X109734201Y-141626408D01*
X109988071Y-141796038D01*
X110203962Y-142011929D01*
X110373592Y-142265799D01*
X110373592Y-142265800D01*
X110490435Y-142547882D01*
X110550000Y-142847338D01*
X110550000Y-143152662D01*
X110490435Y-143452118D01*
X110412540Y-143640173D01*
X110373592Y-143734201D01*
X110203962Y-143988071D01*
X109988071Y-144203962D01*
X109734201Y-144373592D01*
X109640173Y-144412540D01*
X109452118Y-144490435D01*
X109252481Y-144530145D01*
X109152663Y-144550000D01*
X108847337Y-144550000D01*
X108747519Y-144530145D01*
X108547882Y-144490435D01*
X108359827Y-144412540D01*
X108265799Y-144373592D01*
X108011929Y-144203962D01*
X107796038Y-143988071D01*
X107626408Y-143734201D01*
X107587460Y-143640173D01*
X107509565Y-143452118D01*
X107450000Y-143152662D01*
X107450000Y-142847338D01*
X107509565Y-142547882D01*
X107626408Y-142265800D01*
X107626408Y-142265799D01*
X107796038Y-142011929D01*
X108011929Y-141796038D01*
X108265799Y-141626408D01*
X108359827Y-141587460D01*
X108547882Y-141509565D01*
X108747519Y-141469855D01*
X108847337Y-141450000D01*
X109152663Y-141450000D01*
X109252481Y-141469855D01*
X109252481Y-141469855D01*
G37*
G36*
X135800000Y-141950000D02*
X133700000Y-141950000D01*
X133700000Y-139550000D01*
X135800000Y-139550000D01*
X135800000Y-141950000D01*
X135800000Y-141950000D01*
G37*
G36*
X127950000Y-141750000D02*
X125550000Y-141750000D01*
X125550000Y-139750000D01*
X127950000Y-139750000D01*
X127950000Y-141750000D01*
X127950000Y-141750000D01*
G37*
G36*
X131950000Y-141750000D02*
X129550000Y-141750000D01*
X129550000Y-139750000D01*
X131950000Y-139750000D01*
X131950000Y-141750000D01*
X131950000Y-141750000D01*
G37*
G36*
X162050000Y-139200000D02*
X159950000Y-139200000D01*
X159950000Y-136800000D01*
X162050000Y-136800000D01*
X162050000Y-139200000D01*
X162050000Y-139200000D01*
G37*
G36*
X168161925Y-137225948D02*
X168242102Y-137241896D01*
X168304669Y-137267813D01*
X168393151Y-137304463D01*
X168529097Y-137395299D01*
X168644701Y-137510903D01*
X168735537Y-137646849D01*
X168798104Y-137797899D01*
X168830000Y-137958251D01*
X168830000Y-138121749D01*
X168798104Y-138282101D01*
X168735537Y-138433151D01*
X168644701Y-138569097D01*
X168529097Y-138684701D01*
X168393151Y-138775537D01*
X168304669Y-138812187D01*
X168242102Y-138838104D01*
X168161925Y-138854052D01*
X168081749Y-138870000D01*
X167918251Y-138870000D01*
X167838075Y-138854052D01*
X167757898Y-138838104D01*
X167695331Y-138812187D01*
X167606849Y-138775537D01*
X167470903Y-138684701D01*
X167355299Y-138569097D01*
X167264463Y-138433151D01*
X167201896Y-138282101D01*
X167170000Y-138121749D01*
X167170000Y-137958251D01*
X167201896Y-137797899D01*
X167264463Y-137646849D01*
X167355299Y-137510903D01*
X167470903Y-137395299D01*
X167606849Y-137304463D01*
X167695331Y-137267813D01*
X167757898Y-137241896D01*
X167838075Y-137225948D01*
X167918251Y-137210000D01*
X168081749Y-137210000D01*
X168161925Y-137225948D01*
X168161925Y-137225948D01*
G37*
G36*
X156950000Y-138550000D02*
X154550000Y-138550000D01*
X154550000Y-136450000D01*
X156950000Y-136450000D01*
X156950000Y-138550000D01*
X156950000Y-138550000D01*
G37*
G36*
X152950000Y-138550000D02*
X150550000Y-138550000D01*
X150550000Y-136450000D01*
X152950000Y-136450000D01*
X152950000Y-138550000D01*
X152950000Y-138550000D01*
G37*
G36*
X135800000Y-137950000D02*
X133700000Y-137950000D01*
X133700000Y-135550000D01*
X135800000Y-135550000D01*
X135800000Y-137950000D01*
X135800000Y-137950000D01*
G37*
G36*
X170701925Y-134685948D02*
X170782102Y-134701896D01*
X170844669Y-134727813D01*
X170933151Y-134764463D01*
X171069097Y-134855299D01*
X171184701Y-134970903D01*
X171275537Y-135106849D01*
X171338104Y-135257899D01*
X171370000Y-135418251D01*
X171370000Y-135581749D01*
X171338104Y-135742101D01*
X171275537Y-135893151D01*
X171184701Y-136029097D01*
X171069097Y-136144701D01*
X170933151Y-136235537D01*
X170844669Y-136272187D01*
X170782102Y-136298104D01*
X170701925Y-136314052D01*
X170621749Y-136330000D01*
X170458251Y-136330000D01*
X170378075Y-136314052D01*
X170297898Y-136298104D01*
X170235331Y-136272187D01*
X170146849Y-136235537D01*
X170010903Y-136144701D01*
X169895299Y-136029097D01*
X169804463Y-135893151D01*
X169741896Y-135742101D01*
X169710000Y-135581749D01*
X169710000Y-135418251D01*
X169741896Y-135257899D01*
X169804463Y-135106849D01*
X169895299Y-134970903D01*
X170010903Y-134855299D01*
X170146849Y-134764463D01*
X170235331Y-134727813D01*
X170297898Y-134701896D01*
X170378075Y-134685948D01*
X170458251Y-134670000D01*
X170621749Y-134670000D01*
X170701925Y-134685948D01*
X170701925Y-134685948D01*
G37*
G36*
X165621925Y-134685948D02*
X165702102Y-134701896D01*
X165764669Y-134727813D01*
X165853151Y-134764463D01*
X165989097Y-134855299D01*
X166104701Y-134970903D01*
X166195537Y-135106849D01*
X166258104Y-135257899D01*
X166290000Y-135418251D01*
X166290000Y-135581749D01*
X166258104Y-135742101D01*
X166195537Y-135893151D01*
X166104701Y-136029097D01*
X165989097Y-136144701D01*
X165853151Y-136235537D01*
X165764669Y-136272187D01*
X165702102Y-136298104D01*
X165621925Y-136314052D01*
X165541749Y-136330000D01*
X165378251Y-136330000D01*
X165298075Y-136314052D01*
X165217898Y-136298104D01*
X165155331Y-136272187D01*
X165066849Y-136235537D01*
X164930903Y-136144701D01*
X164815299Y-136029097D01*
X164724463Y-135893151D01*
X164661896Y-135742101D01*
X164630000Y-135581749D01*
X164630000Y-135418251D01*
X164661896Y-135257899D01*
X164724463Y-135106849D01*
X164815299Y-134970903D01*
X164930903Y-134855299D01*
X165066849Y-134764463D01*
X165155331Y-134727813D01*
X165217898Y-134701896D01*
X165298075Y-134685948D01*
X165378251Y-134670000D01*
X165541749Y-134670000D01*
X165621925Y-134685948D01*
X165621925Y-134685948D01*
G37*
G36*
X162050000Y-135200000D02*
X159950000Y-135200000D01*
X159950000Y-132800000D01*
X162050000Y-132800000D01*
X162050000Y-135200000D01*
X162050000Y-135200000D01*
G37*
G36*
X148700000Y-134550000D02*
X146300000Y-134550000D01*
X146300000Y-132450000D01*
X148700000Y-132450000D01*
X148700000Y-134550000D01*
X148700000Y-134550000D01*
G37*
G36*
X152700000Y-134550000D02*
X150300000Y-134550000D01*
X150300000Y-132450000D01*
X152700000Y-132450000D01*
X152700000Y-134550000D01*
X152700000Y-134550000D01*
G37*
G36*
X135800000Y-133950000D02*
X133700000Y-133950000D01*
X133700000Y-131550000D01*
X135800000Y-131550000D01*
X135800000Y-133950000D01*
X135800000Y-133950000D01*
G37*
G36*
X127950000Y-133750000D02*
X125550000Y-133750000D01*
X125550000Y-131750000D01*
X127950000Y-131750000D01*
X127950000Y-133750000D01*
X127950000Y-133750000D01*
G37*
G36*
X131950000Y-133750000D02*
X129550000Y-133750000D01*
X129550000Y-131750000D01*
X131950000Y-131750000D01*
X131950000Y-133750000D01*
X131950000Y-133750000D01*
G37*
G36*
X143950000Y-133250000D02*
X141550000Y-133250000D01*
X141550000Y-131250000D01*
X143950000Y-131250000D01*
X143950000Y-133250000D01*
X143950000Y-133250000D01*
G37*
G36*
X139950000Y-133250000D02*
X137550000Y-133250000D01*
X137550000Y-131250000D01*
X139950000Y-131250000D01*
X139950000Y-133250000D01*
X139950000Y-133250000D01*
G37*
G36*
X156800000Y-130700000D02*
X154700000Y-130700000D01*
X154700000Y-128300000D01*
X156800000Y-128300000D01*
X156800000Y-130700000D01*
X156800000Y-130700000D01*
G37*
G36*
X152750000Y-130700000D02*
X150750000Y-130700000D01*
X150750000Y-128300000D01*
X152750000Y-128300000D01*
X152750000Y-130700000D01*
X152750000Y-130700000D01*
G37*
G36*
X162450000Y-130300000D02*
X160050000Y-130300000D01*
X160050000Y-128200000D01*
X162450000Y-128200000D01*
X162450000Y-130300000D01*
X162450000Y-130300000D01*
G37*
G36*
X166450000Y-130300000D02*
X164050000Y-130300000D01*
X164050000Y-128200000D01*
X166450000Y-128200000D01*
X166450000Y-130300000D01*
X166450000Y-130300000D01*
G37*
G36*
X135800000Y-129950000D02*
X133700000Y-129950000D01*
X133700000Y-127550000D01*
X135800000Y-127550000D01*
X135800000Y-129950000D01*
X135800000Y-129950000D01*
G37*
G36*
X146290000Y-129650000D02*
X145290000Y-129650000D01*
X145290000Y-127750000D01*
X146290000Y-127750000D01*
X146290000Y-129650000D01*
X146290000Y-129650000D01*
G37*
G36*
X145020000Y-129650000D02*
X144020000Y-129650000D01*
X144020000Y-127750000D01*
X145020000Y-127750000D01*
X145020000Y-129650000D01*
X145020000Y-129650000D01*
G37*
G36*
X143750000Y-129650000D02*
X142750000Y-129650000D01*
X142750000Y-127750000D01*
X143750000Y-127750000D01*
X143750000Y-129650000D01*
X143750000Y-129650000D01*
G37*
G36*
X142480000Y-129650000D02*
X141480000Y-129650000D01*
X141480000Y-127750000D01*
X142480000Y-127750000D01*
X142480000Y-129650000D01*
X142480000Y-129650000D01*
G37*
G36*
X139940000Y-129650000D02*
X138940000Y-129650000D01*
X138940000Y-127750000D01*
X139940000Y-127750000D01*
X139940000Y-129650000D01*
X139940000Y-129650000D01*
G37*
G36*
X147560000Y-129650000D02*
X146560000Y-129650000D01*
X146560000Y-127750000D01*
X147560000Y-127750000D01*
X147560000Y-129650000D01*
X147560000Y-129650000D01*
G37*
G36*
X141210000Y-129650000D02*
X140210000Y-129650000D01*
X140210000Y-127750000D01*
X141210000Y-127750000D01*
X141210000Y-129650000D01*
X141210000Y-129650000D01*
G37*
G36*
X127950000Y-126800000D02*
X125550000Y-126800000D01*
X125550000Y-124700000D01*
X127950000Y-124700000D01*
X127950000Y-126800000D01*
X127950000Y-126800000D01*
G37*
G36*
X131950000Y-126800000D02*
X129550000Y-126800000D01*
X129550000Y-124700000D01*
X131950000Y-124700000D01*
X131950000Y-126800000D01*
X131950000Y-126800000D01*
G37*
G36*
X174700000Y-126750000D02*
X172300000Y-126750000D01*
X172300000Y-124750000D01*
X174700000Y-124750000D01*
X174700000Y-126750000D01*
X174700000Y-126750000D01*
G37*
G36*
X170700000Y-126750000D02*
X168300000Y-126750000D01*
X168300000Y-124750000D01*
X170700000Y-124750000D01*
X170700000Y-126750000D01*
X170700000Y-126750000D01*
G37*
G36*
X156800000Y-126700000D02*
X154700000Y-126700000D01*
X154700000Y-124300000D01*
X156800000Y-124300000D01*
X156800000Y-126700000D01*
X156800000Y-126700000D01*
G37*
G36*
X152750000Y-126700000D02*
X150750000Y-126700000D01*
X150750000Y-124300000D01*
X152750000Y-124300000D01*
X152750000Y-126700000D01*
X152750000Y-126700000D01*
G37*
G36*
X166475000Y-126580000D02*
X165425000Y-126580000D01*
X165425000Y-124620000D01*
X166475000Y-124620000D01*
X166475000Y-126580000D01*
X166475000Y-126580000D01*
G37*
G36*
X164575000Y-126580000D02*
X163525000Y-126580000D01*
X163525000Y-124620000D01*
X164575000Y-124620000D01*
X164575000Y-126580000D01*
X164575000Y-126580000D01*
G37*
G36*
X143750000Y-124250000D02*
X142750000Y-124250000D01*
X142750000Y-122350000D01*
X143750000Y-122350000D01*
X143750000Y-124250000D01*
X143750000Y-124250000D01*
G37*
G36*
X147560000Y-124250000D02*
X146560000Y-124250000D01*
X146560000Y-122350000D01*
X147560000Y-122350000D01*
X147560000Y-124250000D01*
X147560000Y-124250000D01*
G37*
G36*
X146290000Y-124250000D02*
X145290000Y-124250000D01*
X145290000Y-122350000D01*
X146290000Y-122350000D01*
X146290000Y-124250000D01*
X146290000Y-124250000D01*
G37*
G36*
X142480000Y-124250000D02*
X141480000Y-124250000D01*
X141480000Y-122350000D01*
X142480000Y-122350000D01*
X142480000Y-124250000D01*
X142480000Y-124250000D01*
G37*
G36*
X141210000Y-124250000D02*
X140210000Y-124250000D01*
X140210000Y-122350000D01*
X141210000Y-122350000D01*
X141210000Y-124250000D01*
X141210000Y-124250000D01*
G37*
G36*
X139940000Y-124250000D02*
X138940000Y-124250000D01*
X138940000Y-122350000D01*
X139940000Y-122350000D01*
X139940000Y-124250000D01*
X139940000Y-124250000D01*
G37*
G36*
X145020000Y-124250000D02*
X144020000Y-124250000D01*
X144020000Y-122350000D01*
X145020000Y-122350000D01*
X145020000Y-124250000D01*
X145020000Y-124250000D01*
G37*
G36*
X166475000Y-123880000D02*
X163525000Y-123880000D01*
X163525000Y-121920000D01*
X166475000Y-121920000D01*
X166475000Y-123880000D01*
X166475000Y-123880000D01*
G37*
G36*
X131800000Y-122950000D02*
X129700000Y-122950000D01*
X129700000Y-120550000D01*
X131800000Y-120550000D01*
X131800000Y-122950000D01*
X131800000Y-122950000D01*
G37*
G36*
X131800000Y-118950000D02*
X129700000Y-118950000D01*
X129700000Y-116550000D01*
X131800000Y-116550000D01*
X131800000Y-118950000D01*
X131800000Y-118950000D01*
G37*
G36*
X182686232Y-116433746D02*
X182775770Y-116460907D01*
X182865309Y-116488068D01*
X183030347Y-116576283D01*
X183175001Y-116694999D01*
X183293717Y-116839653D01*
X183381932Y-117004691D01*
X183436254Y-117183769D01*
X183454596Y-117370000D01*
X183436254Y-117556231D01*
X183381932Y-117735309D01*
X183293717Y-117900347D01*
X183175001Y-118045001D01*
X183030347Y-118163717D01*
X182865309Y-118251932D01*
X182775770Y-118279093D01*
X182686232Y-118306254D01*
X182546666Y-118320000D01*
X181453334Y-118320000D01*
X181313768Y-118306254D01*
X181224230Y-118279093D01*
X181134691Y-118251932D01*
X180969653Y-118163717D01*
X180824999Y-118045001D01*
X180706283Y-117900347D01*
X180618068Y-117735309D01*
X180563746Y-117556231D01*
X180545404Y-117370000D01*
X180563746Y-117183769D01*
X180618068Y-117004691D01*
X180706283Y-116839653D01*
X180824999Y-116694999D01*
X180969653Y-116576283D01*
X181134691Y-116488068D01*
X181224230Y-116460907D01*
X181313768Y-116433746D01*
X181453334Y-116420000D01*
X182546666Y-116420000D01*
X182686232Y-116433746D01*
X182686232Y-116433746D01*
G37*
G36*
X187686232Y-116433746D02*
X187775770Y-116460907D01*
X187865309Y-116488068D01*
X188030347Y-116576283D01*
X188175001Y-116694999D01*
X188293717Y-116839653D01*
X188381932Y-117004691D01*
X188436254Y-117183769D01*
X188454596Y-117370000D01*
X188436254Y-117556231D01*
X188381932Y-117735309D01*
X188293717Y-117900347D01*
X188175001Y-118045001D01*
X188030347Y-118163717D01*
X187865309Y-118251932D01*
X187775770Y-118279093D01*
X187686232Y-118306254D01*
X187546666Y-118320000D01*
X186453334Y-118320000D01*
X186313768Y-118306254D01*
X186224230Y-118279093D01*
X186134691Y-118251932D01*
X185969653Y-118163717D01*
X185824999Y-118045001D01*
X185706283Y-117900347D01*
X185618068Y-117735309D01*
X185563746Y-117556231D01*
X185545404Y-117370000D01*
X185563746Y-117183769D01*
X185618068Y-117004691D01*
X185706283Y-116839653D01*
X185824999Y-116694999D01*
X185969653Y-116576283D01*
X186134691Y-116488068D01*
X186224230Y-116460907D01*
X186313768Y-116433746D01*
X186453334Y-116420000D01*
X187546666Y-116420000D01*
X187686232Y-116433746D01*
X187686232Y-116433746D01*
G37*
G36*
X187616448Y-113886873D02*
X187686232Y-113893746D01*
X187772780Y-113920000D01*
X187865309Y-113948068D01*
X188030347Y-114036283D01*
X188175001Y-114154999D01*
X188293717Y-114299653D01*
X188381932Y-114464691D01*
X188395039Y-114507899D01*
X188436254Y-114643768D01*
X188454596Y-114830000D01*
X188438631Y-114992102D01*
X188436254Y-115016231D01*
X188381932Y-115195309D01*
X188293717Y-115360347D01*
X188175001Y-115505001D01*
X188030347Y-115623717D01*
X187865309Y-115711932D01*
X187775770Y-115739093D01*
X187686232Y-115766254D01*
X187616448Y-115773127D01*
X187546666Y-115780000D01*
X186453334Y-115780000D01*
X186383552Y-115773127D01*
X186313768Y-115766254D01*
X186224230Y-115739093D01*
X186134691Y-115711932D01*
X185969653Y-115623717D01*
X185824999Y-115505001D01*
X185706283Y-115360347D01*
X185618068Y-115195309D01*
X185563746Y-115016231D01*
X185561370Y-114992102D01*
X185545404Y-114830000D01*
X185563746Y-114643768D01*
X185604961Y-114507899D01*
X185618068Y-114464691D01*
X185706283Y-114299653D01*
X185824999Y-114154999D01*
X185969653Y-114036283D01*
X186134691Y-113948068D01*
X186227220Y-113920000D01*
X186313768Y-113893746D01*
X186383552Y-113886873D01*
X186453334Y-113880000D01*
X187546666Y-113880000D01*
X187616448Y-113886873D01*
X187616448Y-113886873D01*
G37*
G36*
X182616448Y-113886873D02*
X182686232Y-113893746D01*
X182772780Y-113920000D01*
X182865309Y-113948068D01*
X183030347Y-114036283D01*
X183175001Y-114154999D01*
X183293717Y-114299653D01*
X183381932Y-114464691D01*
X183395039Y-114507899D01*
X183436254Y-114643768D01*
X183454596Y-114830000D01*
X183438631Y-114992102D01*
X183436254Y-115016231D01*
X183381932Y-115195309D01*
X183293717Y-115360347D01*
X183175001Y-115505001D01*
X183030347Y-115623717D01*
X182865309Y-115711932D01*
X182775770Y-115739093D01*
X182686232Y-115766254D01*
X182616448Y-115773127D01*
X182546666Y-115780000D01*
X181453334Y-115780000D01*
X181383552Y-115773127D01*
X181313768Y-115766254D01*
X181224230Y-115739093D01*
X181134691Y-115711932D01*
X180969653Y-115623717D01*
X180824999Y-115505001D01*
X180706283Y-115360347D01*
X180618068Y-115195309D01*
X180563746Y-115016231D01*
X180561370Y-114992102D01*
X180545404Y-114830000D01*
X180563746Y-114643768D01*
X180604961Y-114507899D01*
X180618068Y-114464691D01*
X180706283Y-114299653D01*
X180824999Y-114154999D01*
X180969653Y-114036283D01*
X181134691Y-113948068D01*
X181227220Y-113920000D01*
X181313768Y-113893746D01*
X181383552Y-113886873D01*
X181453334Y-113880000D01*
X182546666Y-113880000D01*
X182616448Y-113886873D01*
X182616448Y-113886873D01*
G37*
G36*
X144741925Y-113935948D02*
X144822102Y-113951896D01*
X144884669Y-113977813D01*
X144973151Y-114014463D01*
X145109097Y-114105299D01*
X145224701Y-114220903D01*
X145315537Y-114356849D01*
X145378104Y-114507899D01*
X145410000Y-114668251D01*
X145410000Y-114831749D01*
X145378104Y-114992101D01*
X145315537Y-115143151D01*
X145224701Y-115279097D01*
X145109097Y-115394701D01*
X144973151Y-115485537D01*
X144884669Y-115522187D01*
X144822102Y-115548104D01*
X144741925Y-115564052D01*
X144661749Y-115580000D01*
X144498251Y-115580000D01*
X144418075Y-115564052D01*
X144337898Y-115548104D01*
X144275331Y-115522187D01*
X144186849Y-115485537D01*
X144050903Y-115394701D01*
X143935299Y-115279097D01*
X143844463Y-115143151D01*
X143781896Y-114992101D01*
X143750000Y-114831749D01*
X143750000Y-114668251D01*
X143781896Y-114507899D01*
X143844463Y-114356849D01*
X143935299Y-114220903D01*
X144050903Y-114105299D01*
X144186849Y-114014463D01*
X144275331Y-113977813D01*
X144337898Y-113951896D01*
X144418075Y-113935948D01*
X144498251Y-113920000D01*
X144661749Y-113920000D01*
X144741925Y-113935948D01*
X144741925Y-113935948D01*
G37*
G36*
X139661925Y-113935948D02*
X139742102Y-113951896D01*
X139804669Y-113977813D01*
X139893151Y-114014463D01*
X140029097Y-114105299D01*
X140144701Y-114220903D01*
X140235537Y-114356849D01*
X140298104Y-114507899D01*
X140330000Y-114668251D01*
X140330000Y-114831749D01*
X140298104Y-114992101D01*
X140235537Y-115143151D01*
X140144701Y-115279097D01*
X140029097Y-115394701D01*
X139893151Y-115485537D01*
X139804669Y-115522187D01*
X139742102Y-115548104D01*
X139661925Y-115564052D01*
X139581749Y-115580000D01*
X139418251Y-115580000D01*
X139338075Y-115564052D01*
X139257898Y-115548104D01*
X139195331Y-115522187D01*
X139106849Y-115485537D01*
X138970903Y-115394701D01*
X138855299Y-115279097D01*
X138764463Y-115143151D01*
X138701896Y-114992101D01*
X138670000Y-114831749D01*
X138670000Y-114668251D01*
X138701896Y-114507899D01*
X138764463Y-114356849D01*
X138855299Y-114220903D01*
X138970903Y-114105299D01*
X139106849Y-114014463D01*
X139195331Y-113977813D01*
X139257898Y-113951896D01*
X139338075Y-113935948D01*
X139418251Y-113920000D01*
X139581749Y-113920000D01*
X139661925Y-113935948D01*
X139661925Y-113935948D01*
G37*
G36*
X131950000Y-113300000D02*
X129550000Y-113300000D01*
X129550000Y-111200000D01*
X131950000Y-111200000D01*
X131950000Y-113300000D01*
X131950000Y-113300000D01*
G37*
G36*
X135950000Y-113300000D02*
X133550000Y-113300000D01*
X133550000Y-111200000D01*
X135950000Y-111200000D01*
X135950000Y-113300000D01*
X135950000Y-113300000D01*
G37*
G36*
X182686232Y-111353746D02*
X182772780Y-111380000D01*
X182865309Y-111408068D01*
X183030347Y-111496283D01*
X183175001Y-111614999D01*
X183293717Y-111759653D01*
X183381932Y-111924691D01*
X183395039Y-111967899D01*
X183436254Y-112103768D01*
X183454596Y-112290000D01*
X183438631Y-112452102D01*
X183436254Y-112476231D01*
X183381932Y-112655309D01*
X183293717Y-112820347D01*
X183175001Y-112965001D01*
X183030347Y-113083717D01*
X182865309Y-113171932D01*
X182775770Y-113199093D01*
X182686232Y-113226254D01*
X182546666Y-113240000D01*
X181453334Y-113240000D01*
X181313768Y-113226254D01*
X181224230Y-113199093D01*
X181134691Y-113171932D01*
X180969653Y-113083717D01*
X180824999Y-112965001D01*
X180706283Y-112820347D01*
X180618068Y-112655309D01*
X180563746Y-112476231D01*
X180561370Y-112452102D01*
X180545404Y-112290000D01*
X180563746Y-112103768D01*
X180604961Y-111967899D01*
X180618068Y-111924691D01*
X180706283Y-111759653D01*
X180824999Y-111614999D01*
X180969653Y-111496283D01*
X181134691Y-111408068D01*
X181227220Y-111380000D01*
X181313768Y-111353746D01*
X181453334Y-111340000D01*
X182546666Y-111340000D01*
X182686232Y-111353746D01*
X182686232Y-111353746D01*
G37*
G36*
X187686232Y-111353746D02*
X187772780Y-111380000D01*
X187865309Y-111408068D01*
X188030347Y-111496283D01*
X188175001Y-111614999D01*
X188293717Y-111759653D01*
X188381932Y-111924691D01*
X188395039Y-111967899D01*
X188436254Y-112103768D01*
X188454596Y-112290000D01*
X188438631Y-112452102D01*
X188436254Y-112476231D01*
X188381932Y-112655309D01*
X188293717Y-112820347D01*
X188175001Y-112965001D01*
X188030347Y-113083717D01*
X187865309Y-113171932D01*
X187775770Y-113199093D01*
X187686232Y-113226254D01*
X187546666Y-113240000D01*
X186453334Y-113240000D01*
X186313768Y-113226254D01*
X186224230Y-113199093D01*
X186134691Y-113171932D01*
X185969653Y-113083717D01*
X185824999Y-112965001D01*
X185706283Y-112820347D01*
X185618068Y-112655309D01*
X185563746Y-112476231D01*
X185561370Y-112452102D01*
X185545404Y-112290000D01*
X185563746Y-112103768D01*
X185604961Y-111967899D01*
X185618068Y-111924691D01*
X185706283Y-111759653D01*
X185824999Y-111614999D01*
X185969653Y-111496283D01*
X186134691Y-111408068D01*
X186227220Y-111380000D01*
X186313768Y-111353746D01*
X186453334Y-111340000D01*
X187546666Y-111340000D01*
X187686232Y-111353746D01*
X187686232Y-111353746D01*
G37*
G36*
X142201925Y-111395948D02*
X142282102Y-111411896D01*
X142344669Y-111437813D01*
X142433151Y-111474463D01*
X142569097Y-111565299D01*
X142684701Y-111680903D01*
X142775537Y-111816849D01*
X142838104Y-111967899D01*
X142870000Y-112128251D01*
X142870000Y-112291749D01*
X142838104Y-112452101D01*
X142775537Y-112603151D01*
X142684701Y-112739097D01*
X142569097Y-112854701D01*
X142433151Y-112945537D01*
X142344669Y-112982187D01*
X142282102Y-113008104D01*
X142201925Y-113024052D01*
X142121749Y-113040000D01*
X141958251Y-113040000D01*
X141878075Y-113024052D01*
X141797898Y-113008104D01*
X141735331Y-112982187D01*
X141646849Y-112945537D01*
X141510903Y-112854701D01*
X141395299Y-112739097D01*
X141304463Y-112603151D01*
X141241896Y-112452101D01*
X141210000Y-112291749D01*
X141210000Y-112128251D01*
X141241896Y-111967899D01*
X141304463Y-111816849D01*
X141395299Y-111680903D01*
X141510903Y-111565299D01*
X141646849Y-111474463D01*
X141735331Y-111437813D01*
X141797898Y-111411896D01*
X141878075Y-111395948D01*
X141958251Y-111380000D01*
X142121749Y-111380000D01*
X142201925Y-111395948D01*
X142201925Y-111395948D01*
G37*
G36*
X182686232Y-108773746D02*
X182775770Y-108800907D01*
X182865309Y-108828068D01*
X183030347Y-108916283D01*
X183175001Y-109034999D01*
X183293717Y-109179653D01*
X183381932Y-109344691D01*
X183436254Y-109523769D01*
X183454596Y-109710000D01*
X183436254Y-109896231D01*
X183381932Y-110075309D01*
X183293717Y-110240347D01*
X183175001Y-110385001D01*
X183030347Y-110503717D01*
X182865309Y-110591932D01*
X182775770Y-110619093D01*
X182686232Y-110646254D01*
X182616448Y-110653127D01*
X182546666Y-110660000D01*
X181453334Y-110660000D01*
X181383552Y-110653127D01*
X181313768Y-110646254D01*
X181224230Y-110619093D01*
X181134691Y-110591932D01*
X180969653Y-110503717D01*
X180824999Y-110385001D01*
X180706283Y-110240347D01*
X180618068Y-110075309D01*
X180563746Y-109896231D01*
X180545404Y-109710000D01*
X180563746Y-109523769D01*
X180618068Y-109344691D01*
X180706283Y-109179653D01*
X180824999Y-109034999D01*
X180969653Y-108916283D01*
X181134691Y-108828068D01*
X181224230Y-108800907D01*
X181313768Y-108773746D01*
X181453334Y-108760000D01*
X182546666Y-108760000D01*
X182686232Y-108773746D01*
X182686232Y-108773746D01*
G37*
G36*
X187686232Y-108773746D02*
X187775770Y-108800907D01*
X187865309Y-108828068D01*
X188030347Y-108916283D01*
X188175001Y-109034999D01*
X188293717Y-109179653D01*
X188381932Y-109344691D01*
X188436254Y-109523769D01*
X188454596Y-109710000D01*
X188436254Y-109896231D01*
X188381932Y-110075309D01*
X188293717Y-110240347D01*
X188175001Y-110385001D01*
X188030347Y-110503717D01*
X187865309Y-110591932D01*
X187775770Y-110619093D01*
X187686232Y-110646254D01*
X187616448Y-110653127D01*
X187546666Y-110660000D01*
X186453334Y-110660000D01*
X186383552Y-110653127D01*
X186313768Y-110646254D01*
X186224230Y-110619093D01*
X186134691Y-110591932D01*
X185969653Y-110503717D01*
X185824999Y-110385001D01*
X185706283Y-110240347D01*
X185618068Y-110075309D01*
X185563746Y-109896231D01*
X185545404Y-109710000D01*
X185563746Y-109523769D01*
X185618068Y-109344691D01*
X185706283Y-109179653D01*
X185824999Y-109034999D01*
X185969653Y-108916283D01*
X186134691Y-108828068D01*
X186224230Y-108800907D01*
X186313768Y-108773746D01*
X186453334Y-108760000D01*
X187546666Y-108760000D01*
X187686232Y-108773746D01*
X187686232Y-108773746D01*
G37*
G36*
X182686232Y-106233746D02*
X182775770Y-106260907D01*
X182865309Y-106288068D01*
X183030347Y-106376283D01*
X183175001Y-106494999D01*
X183293717Y-106639653D01*
X183381932Y-106804691D01*
X183436254Y-106983769D01*
X183454596Y-107170000D01*
X183436254Y-107356231D01*
X183381932Y-107535309D01*
X183293717Y-107700347D01*
X183175001Y-107845001D01*
X183030347Y-107963717D01*
X182865309Y-108051932D01*
X182775770Y-108079093D01*
X182686232Y-108106254D01*
X182546666Y-108120000D01*
X181453334Y-108120000D01*
X181313768Y-108106254D01*
X181224230Y-108079093D01*
X181134691Y-108051932D01*
X180969653Y-107963717D01*
X180824999Y-107845001D01*
X180706283Y-107700347D01*
X180618068Y-107535309D01*
X180563746Y-107356231D01*
X180545404Y-107170000D01*
X180563746Y-106983769D01*
X180618068Y-106804691D01*
X180706283Y-106639653D01*
X180824999Y-106494999D01*
X180969653Y-106376283D01*
X181134691Y-106288068D01*
X181224230Y-106260907D01*
X181313768Y-106233746D01*
X181453334Y-106220000D01*
X182546666Y-106220000D01*
X182686232Y-106233746D01*
X182686232Y-106233746D01*
G37*
G36*
X187686232Y-106233746D02*
X187775770Y-106260907D01*
X187865309Y-106288068D01*
X188030347Y-106376283D01*
X188175001Y-106494999D01*
X188293717Y-106639653D01*
X188381932Y-106804691D01*
X188436254Y-106983769D01*
X188454596Y-107170000D01*
X188436254Y-107356231D01*
X188381932Y-107535309D01*
X188293717Y-107700347D01*
X188175001Y-107845001D01*
X188030347Y-107963717D01*
X187865309Y-108051932D01*
X187775770Y-108079093D01*
X187686232Y-108106254D01*
X187546666Y-108120000D01*
X186453334Y-108120000D01*
X186313768Y-108106254D01*
X186224230Y-108079093D01*
X186134691Y-108051932D01*
X185969653Y-107963717D01*
X185824999Y-107845001D01*
X185706283Y-107700347D01*
X185618068Y-107535309D01*
X185563746Y-107356231D01*
X185545404Y-107170000D01*
X185563746Y-106983769D01*
X185618068Y-106804691D01*
X185706283Y-106639653D01*
X185824999Y-106494999D01*
X185969653Y-106376283D01*
X186134691Y-106288068D01*
X186224230Y-106260907D01*
X186313768Y-106233746D01*
X186453334Y-106220000D01*
X187546666Y-106220000D01*
X187686232Y-106233746D01*
X187686232Y-106233746D01*
G37*
G36*
X135800000Y-107200000D02*
X133700000Y-107200000D01*
X133700000Y-104800000D01*
X135800000Y-104800000D01*
X135800000Y-107200000D01*
X135800000Y-107200000D01*
G37*
G36*
X131950000Y-107000000D02*
X129550000Y-107000000D01*
X129550000Y-105000000D01*
X131950000Y-105000000D01*
X131950000Y-107000000D01*
X131950000Y-107000000D01*
G37*
G36*
X127950000Y-107000000D02*
X125550000Y-107000000D01*
X125550000Y-105000000D01*
X127950000Y-105000000D01*
X127950000Y-107000000D01*
X127950000Y-107000000D01*
G37*
G36*
X182616448Y-103686873D02*
X182686232Y-103693746D01*
X182775770Y-103720907D01*
X182865309Y-103748068D01*
X183030347Y-103836283D01*
X183175001Y-103954999D01*
X183293717Y-104099653D01*
X183381932Y-104264691D01*
X183436254Y-104443769D01*
X183454596Y-104630000D01*
X183436254Y-104816231D01*
X183381932Y-104995309D01*
X183293717Y-105160347D01*
X183175001Y-105305001D01*
X183030347Y-105423717D01*
X182865309Y-105511932D01*
X182775770Y-105539093D01*
X182686232Y-105566254D01*
X182616448Y-105573127D01*
X182546666Y-105580000D01*
X181453334Y-105580000D01*
X181383552Y-105573127D01*
X181313768Y-105566254D01*
X181224230Y-105539093D01*
X181134691Y-105511932D01*
X180969653Y-105423717D01*
X180824999Y-105305001D01*
X180706283Y-105160347D01*
X180618068Y-104995309D01*
X180563746Y-104816231D01*
X180545404Y-104630000D01*
X180563746Y-104443769D01*
X180618068Y-104264691D01*
X180706283Y-104099653D01*
X180824999Y-103954999D01*
X180969653Y-103836283D01*
X181134691Y-103748068D01*
X181224230Y-103720907D01*
X181313768Y-103693746D01*
X181453334Y-103680000D01*
X182546666Y-103680000D01*
X182616448Y-103686873D01*
X182616448Y-103686873D01*
G37*
G36*
X187616448Y-103686873D02*
X187686232Y-103693746D01*
X187775770Y-103720907D01*
X187865309Y-103748068D01*
X188030347Y-103836283D01*
X188175001Y-103954999D01*
X188293717Y-104099653D01*
X188381932Y-104264691D01*
X188436254Y-104443769D01*
X188454596Y-104630000D01*
X188436254Y-104816231D01*
X188381932Y-104995309D01*
X188293717Y-105160347D01*
X188175001Y-105305001D01*
X188030347Y-105423717D01*
X187865309Y-105511932D01*
X187775770Y-105539093D01*
X187686232Y-105566254D01*
X187616448Y-105573127D01*
X187546666Y-105580000D01*
X186453334Y-105580000D01*
X186383552Y-105573127D01*
X186313768Y-105566254D01*
X186224230Y-105539093D01*
X186134691Y-105511932D01*
X185969653Y-105423717D01*
X185824999Y-105305001D01*
X185706283Y-105160347D01*
X185618068Y-104995309D01*
X185563746Y-104816231D01*
X185545404Y-104630000D01*
X185563746Y-104443769D01*
X185618068Y-104264691D01*
X185706283Y-104099653D01*
X185824999Y-103954999D01*
X185969653Y-103836283D01*
X186134691Y-103748068D01*
X186224230Y-103720907D01*
X186313768Y-103693746D01*
X186453334Y-103680000D01*
X187546666Y-103680000D01*
X187616448Y-103686873D01*
X187616448Y-103686873D01*
G37*
G36*
X162050000Y-103950000D02*
X159950000Y-103950000D01*
X159950000Y-101550000D01*
X162050000Y-101550000D01*
X162050000Y-103950000D01*
X162050000Y-103950000D01*
G37*
G36*
X152450000Y-103800000D02*
X150050000Y-103800000D01*
X150050000Y-101700000D01*
X152450000Y-101700000D01*
X152450000Y-103800000D01*
X152450000Y-103800000D01*
G37*
G36*
X156450000Y-103800000D02*
X154050000Y-103800000D01*
X154050000Y-101700000D01*
X156450000Y-101700000D01*
X156450000Y-103800000D01*
X156450000Y-103800000D01*
G37*
G36*
X168161925Y-101975948D02*
X168242102Y-101991896D01*
X168304669Y-102017813D01*
X168393151Y-102054463D01*
X168529097Y-102145299D01*
X168644701Y-102260903D01*
X168735537Y-102396849D01*
X168798104Y-102547899D01*
X168830000Y-102708251D01*
X168830000Y-102871749D01*
X168798104Y-103032101D01*
X168735537Y-103183151D01*
X168644701Y-103319097D01*
X168529097Y-103434701D01*
X168393151Y-103525537D01*
X168304669Y-103562187D01*
X168242102Y-103588104D01*
X168161925Y-103604052D01*
X168081749Y-103620000D01*
X167918251Y-103620000D01*
X167838075Y-103604052D01*
X167757898Y-103588104D01*
X167695331Y-103562187D01*
X167606849Y-103525537D01*
X167470903Y-103434701D01*
X167355299Y-103319097D01*
X167264463Y-103183151D01*
X167201896Y-103032101D01*
X167170000Y-102871749D01*
X167170000Y-102708251D01*
X167201896Y-102547899D01*
X167264463Y-102396849D01*
X167355299Y-102260903D01*
X167470903Y-102145299D01*
X167606849Y-102054463D01*
X167695331Y-102017813D01*
X167757898Y-101991896D01*
X167838075Y-101975948D01*
X167918251Y-101960000D01*
X168081749Y-101960000D01*
X168161925Y-101975948D01*
X168161925Y-101975948D01*
G37*
G36*
X135800000Y-103200000D02*
X133700000Y-103200000D01*
X133700000Y-100800000D01*
X135800000Y-100800000D01*
X135800000Y-103200000D01*
X135800000Y-103200000D01*
G37*
G36*
X110616448Y-99426873D02*
X110686232Y-99433746D01*
X110775770Y-99460907D01*
X110865309Y-99488068D01*
X111030347Y-99576283D01*
X111175001Y-99694999D01*
X111293717Y-99839653D01*
X111381932Y-100004691D01*
X111436254Y-100183769D01*
X111454596Y-100370000D01*
X111436254Y-100556231D01*
X111381932Y-100735309D01*
X111293717Y-100900347D01*
X111175001Y-101045001D01*
X111030347Y-101163717D01*
X110865309Y-101251932D01*
X110775770Y-101279093D01*
X110686232Y-101306254D01*
X110616448Y-101313127D01*
X110546666Y-101320000D01*
X109453334Y-101320000D01*
X109383552Y-101313127D01*
X109313768Y-101306254D01*
X109224230Y-101279093D01*
X109134691Y-101251932D01*
X108969653Y-101163717D01*
X108824999Y-101045001D01*
X108706283Y-100900347D01*
X108618068Y-100735309D01*
X108563746Y-100556231D01*
X108545404Y-100370000D01*
X108563746Y-100183769D01*
X108618068Y-100004691D01*
X108706283Y-99839653D01*
X108824999Y-99694999D01*
X108969653Y-99576283D01*
X109134691Y-99488068D01*
X109224230Y-99460907D01*
X109313768Y-99433746D01*
X109383552Y-99426873D01*
X109453334Y-99420000D01*
X110546666Y-99420000D01*
X110616448Y-99426873D01*
X110616448Y-99426873D01*
G37*
G36*
X115616448Y-99426873D02*
X115686232Y-99433746D01*
X115775770Y-99460907D01*
X115865309Y-99488068D01*
X116030347Y-99576283D01*
X116175001Y-99694999D01*
X116293717Y-99839653D01*
X116381932Y-100004691D01*
X116436254Y-100183769D01*
X116454596Y-100370000D01*
X116436254Y-100556231D01*
X116381932Y-100735309D01*
X116293717Y-100900347D01*
X116175001Y-101045001D01*
X116030347Y-101163717D01*
X115865309Y-101251932D01*
X115775770Y-101279093D01*
X115686232Y-101306254D01*
X115616448Y-101313127D01*
X115546666Y-101320000D01*
X114453334Y-101320000D01*
X114383552Y-101313127D01*
X114313768Y-101306254D01*
X114224230Y-101279093D01*
X114134691Y-101251932D01*
X113969653Y-101163717D01*
X113824999Y-101045001D01*
X113706283Y-100900347D01*
X113618068Y-100735309D01*
X113563746Y-100556231D01*
X113545404Y-100370000D01*
X113563746Y-100183769D01*
X113618068Y-100004691D01*
X113706283Y-99839653D01*
X113824999Y-99694999D01*
X113969653Y-99576283D01*
X114134691Y-99488068D01*
X114224230Y-99460907D01*
X114313768Y-99433746D01*
X114383552Y-99426873D01*
X114453334Y-99420000D01*
X115546666Y-99420000D01*
X115616448Y-99426873D01*
X115616448Y-99426873D01*
G37*
G36*
X165610855Y-99433746D02*
X165702102Y-99451896D01*
X165764669Y-99477813D01*
X165853151Y-99514463D01*
X165989097Y-99605299D01*
X166104701Y-99720903D01*
X166195537Y-99856849D01*
X166232187Y-99945331D01*
X166256776Y-100004691D01*
X166258104Y-100007899D01*
X166290000Y-100168251D01*
X166290000Y-100331749D01*
X166258104Y-100492101D01*
X166195537Y-100643151D01*
X166104701Y-100779097D01*
X165989097Y-100894701D01*
X165853151Y-100985537D01*
X165764669Y-101022187D01*
X165702102Y-101048104D01*
X165621925Y-101064052D01*
X165541749Y-101080000D01*
X165378251Y-101080000D01*
X165298075Y-101064052D01*
X165217898Y-101048104D01*
X165155331Y-101022187D01*
X165066849Y-100985537D01*
X164930903Y-100894701D01*
X164815299Y-100779097D01*
X164724463Y-100643151D01*
X164661896Y-100492101D01*
X164630000Y-100331749D01*
X164630000Y-100168251D01*
X164661896Y-100007899D01*
X164663225Y-100004691D01*
X164687813Y-99945331D01*
X164724463Y-99856849D01*
X164815299Y-99720903D01*
X164930903Y-99605299D01*
X165066849Y-99514463D01*
X165155331Y-99477813D01*
X165217898Y-99451896D01*
X165309145Y-99433746D01*
X165378251Y-99420000D01*
X165541749Y-99420000D01*
X165610855Y-99433746D01*
X165610855Y-99433746D01*
G37*
G36*
X170690855Y-99433746D02*
X170782102Y-99451896D01*
X170844669Y-99477813D01*
X170933151Y-99514463D01*
X171069097Y-99605299D01*
X171184701Y-99720903D01*
X171275537Y-99856849D01*
X171312187Y-99945331D01*
X171336776Y-100004691D01*
X171338104Y-100007899D01*
X171370000Y-100168251D01*
X171370000Y-100331749D01*
X171338104Y-100492101D01*
X171275537Y-100643151D01*
X171184701Y-100779097D01*
X171069097Y-100894701D01*
X170933151Y-100985537D01*
X170844669Y-101022187D01*
X170782102Y-101048104D01*
X170701925Y-101064052D01*
X170621749Y-101080000D01*
X170458251Y-101080000D01*
X170378075Y-101064052D01*
X170297898Y-101048104D01*
X170235331Y-101022187D01*
X170146849Y-100985537D01*
X170010903Y-100894701D01*
X169895299Y-100779097D01*
X169804463Y-100643151D01*
X169741896Y-100492101D01*
X169710000Y-100331749D01*
X169710000Y-100168251D01*
X169741896Y-100007899D01*
X169743225Y-100004691D01*
X169767813Y-99945331D01*
X169804463Y-99856849D01*
X169895299Y-99720903D01*
X170010903Y-99605299D01*
X170146849Y-99514463D01*
X170235331Y-99477813D01*
X170297898Y-99451896D01*
X170389145Y-99433746D01*
X170458251Y-99420000D01*
X170621749Y-99420000D01*
X170690855Y-99433746D01*
X170690855Y-99433746D01*
G37*
G36*
X162050000Y-99950000D02*
X159950000Y-99950000D01*
X159950000Y-97550000D01*
X162050000Y-97550000D01*
X162050000Y-99950000D01*
X162050000Y-99950000D01*
G37*
G36*
X148700000Y-99550000D02*
X146300000Y-99550000D01*
X146300000Y-97450000D01*
X148700000Y-97450000D01*
X148700000Y-99550000D01*
X148700000Y-99550000D01*
G37*
G36*
X152700000Y-99550000D02*
X150300000Y-99550000D01*
X150300000Y-97450000D01*
X152700000Y-97450000D01*
X152700000Y-99550000D01*
X152700000Y-99550000D01*
G37*
G36*
X115686232Y-96893746D02*
X115775770Y-96920907D01*
X115865309Y-96948068D01*
X116030347Y-97036283D01*
X116175001Y-97154999D01*
X116293717Y-97299653D01*
X116381932Y-97464691D01*
X116436254Y-97643769D01*
X116454596Y-97830000D01*
X116436254Y-98016231D01*
X116381932Y-98195309D01*
X116293717Y-98360347D01*
X116175001Y-98505001D01*
X116030347Y-98623717D01*
X115865309Y-98711932D01*
X115775770Y-98739093D01*
X115686232Y-98766254D01*
X115616448Y-98773127D01*
X115546666Y-98780000D01*
X114453334Y-98780000D01*
X114383552Y-98773127D01*
X114313768Y-98766254D01*
X114224230Y-98739093D01*
X114134691Y-98711932D01*
X113969653Y-98623717D01*
X113824999Y-98505001D01*
X113706283Y-98360347D01*
X113618068Y-98195309D01*
X113563746Y-98016231D01*
X113545404Y-97830000D01*
X113563746Y-97643769D01*
X113618068Y-97464691D01*
X113706283Y-97299653D01*
X113824999Y-97154999D01*
X113969653Y-97036283D01*
X114134691Y-96948068D01*
X114224230Y-96920907D01*
X114313768Y-96893746D01*
X114453334Y-96880000D01*
X115546666Y-96880000D01*
X115686232Y-96893746D01*
X115686232Y-96893746D01*
G37*
G36*
X110686232Y-96893746D02*
X110775770Y-96920907D01*
X110865309Y-96948068D01*
X111030347Y-97036283D01*
X111175001Y-97154999D01*
X111293717Y-97299653D01*
X111381932Y-97464691D01*
X111436254Y-97643769D01*
X111454596Y-97830000D01*
X111436254Y-98016231D01*
X111381932Y-98195309D01*
X111293717Y-98360347D01*
X111175001Y-98505001D01*
X111030347Y-98623717D01*
X110865309Y-98711932D01*
X110775770Y-98739093D01*
X110686232Y-98766254D01*
X110616448Y-98773127D01*
X110546666Y-98780000D01*
X109453334Y-98780000D01*
X109383552Y-98773127D01*
X109313768Y-98766254D01*
X109224230Y-98739093D01*
X109134691Y-98711932D01*
X108969653Y-98623717D01*
X108824999Y-98505001D01*
X108706283Y-98360347D01*
X108618068Y-98195309D01*
X108563746Y-98016231D01*
X108545404Y-97830000D01*
X108563746Y-97643769D01*
X108618068Y-97464691D01*
X108706283Y-97299653D01*
X108824999Y-97154999D01*
X108969653Y-97036283D01*
X109134691Y-96948068D01*
X109224230Y-96920907D01*
X109313768Y-96893746D01*
X109453334Y-96880000D01*
X110546666Y-96880000D01*
X110686232Y-96893746D01*
X110686232Y-96893746D01*
G37*
G36*
X135800000Y-98700000D02*
X133700000Y-98700000D01*
X133700000Y-96300000D01*
X135800000Y-96300000D01*
X135800000Y-98700000D01*
X135800000Y-98700000D01*
G37*
G36*
X131950000Y-98500000D02*
X129550000Y-98500000D01*
X129550000Y-96500000D01*
X131950000Y-96500000D01*
X131950000Y-98500000D01*
X131950000Y-98500000D01*
G37*
G36*
X127950000Y-98500000D02*
X125550000Y-98500000D01*
X125550000Y-96500000D01*
X127950000Y-96500000D01*
X127950000Y-98500000D01*
X127950000Y-98500000D01*
G37*
G36*
X143950000Y-98000000D02*
X141550000Y-98000000D01*
X141550000Y-96000000D01*
X143950000Y-96000000D01*
X143950000Y-98000000D01*
X143950000Y-98000000D01*
G37*
G36*
X139950000Y-98000000D02*
X137550000Y-98000000D01*
X137550000Y-96000000D01*
X139950000Y-96000000D01*
X139950000Y-98000000D01*
X139950000Y-98000000D01*
G37*
G36*
X110686232Y-94353746D02*
X110775770Y-94380907D01*
X110865309Y-94408068D01*
X111030347Y-94496283D01*
X111175001Y-94614999D01*
X111293717Y-94759653D01*
X111381932Y-94924691D01*
X111436254Y-95103769D01*
X111454596Y-95290000D01*
X111436254Y-95476231D01*
X111381932Y-95655309D01*
X111293717Y-95820347D01*
X111175001Y-95965001D01*
X111030347Y-96083717D01*
X110865309Y-96171932D01*
X110775770Y-96199093D01*
X110686232Y-96226254D01*
X110616448Y-96233127D01*
X110546666Y-96240000D01*
X109453334Y-96240000D01*
X109313768Y-96226254D01*
X109224230Y-96199093D01*
X109134691Y-96171932D01*
X108969653Y-96083717D01*
X108824999Y-95965001D01*
X108706283Y-95820347D01*
X108618068Y-95655309D01*
X108563746Y-95476231D01*
X108545404Y-95290000D01*
X108563746Y-95103769D01*
X108618068Y-94924691D01*
X108706283Y-94759653D01*
X108824999Y-94614999D01*
X108969653Y-94496283D01*
X109134691Y-94408068D01*
X109224230Y-94380907D01*
X109313768Y-94353746D01*
X109453334Y-94340000D01*
X110546666Y-94340000D01*
X110686232Y-94353746D01*
X110686232Y-94353746D01*
G37*
G36*
X115686232Y-94353746D02*
X115775770Y-94380907D01*
X115865309Y-94408068D01*
X116030347Y-94496283D01*
X116175001Y-94614999D01*
X116293717Y-94759653D01*
X116381932Y-94924691D01*
X116436254Y-95103769D01*
X116454596Y-95290000D01*
X116436254Y-95476231D01*
X116381932Y-95655309D01*
X116293717Y-95820347D01*
X116175001Y-95965001D01*
X116030347Y-96083717D01*
X115865309Y-96171932D01*
X115775770Y-96199093D01*
X115686232Y-96226254D01*
X115616448Y-96233127D01*
X115546666Y-96240000D01*
X114453334Y-96240000D01*
X114313768Y-96226254D01*
X114224230Y-96199093D01*
X114134691Y-96171932D01*
X113969653Y-96083717D01*
X113824999Y-95965001D01*
X113706283Y-95820347D01*
X113618068Y-95655309D01*
X113563746Y-95476231D01*
X113545404Y-95290000D01*
X113563746Y-95103769D01*
X113618068Y-94924691D01*
X113706283Y-94759653D01*
X113824999Y-94614999D01*
X113969653Y-94496283D01*
X114134691Y-94408068D01*
X114224230Y-94380907D01*
X114313768Y-94353746D01*
X114453334Y-94340000D01*
X115546666Y-94340000D01*
X115686232Y-94353746D01*
X115686232Y-94353746D01*
G37*
G36*
X152750000Y-95450000D02*
X150750000Y-95450000D01*
X150750000Y-93050000D01*
X152750000Y-93050000D01*
X152750000Y-95450000D01*
X152750000Y-95450000D01*
G37*
G36*
X156800000Y-95450000D02*
X154700000Y-95450000D01*
X154700000Y-93050000D01*
X156800000Y-93050000D01*
X156800000Y-95450000D01*
X156800000Y-95450000D01*
G37*
G36*
X166450000Y-95050000D02*
X164050000Y-95050000D01*
X164050000Y-92950000D01*
X166450000Y-92950000D01*
X166450000Y-95050000D01*
X166450000Y-95050000D01*
G37*
G36*
X162450000Y-95050000D02*
X160050000Y-95050000D01*
X160050000Y-92950000D01*
X162450000Y-92950000D01*
X162450000Y-95050000D01*
X162450000Y-95050000D01*
G37*
G36*
X135800000Y-94700000D02*
X133700000Y-94700000D01*
X133700000Y-92300000D01*
X135800000Y-92300000D01*
X135800000Y-94700000D01*
X135800000Y-94700000D01*
G37*
G36*
X145020000Y-94150000D02*
X144020000Y-94150000D01*
X144020000Y-92250000D01*
X145020000Y-92250000D01*
X145020000Y-94150000D01*
X145020000Y-94150000D01*
G37*
G36*
X143750000Y-94150000D02*
X142750000Y-94150000D01*
X142750000Y-92250000D01*
X143750000Y-92250000D01*
X143750000Y-94150000D01*
X143750000Y-94150000D01*
G37*
G36*
X147560000Y-94150000D02*
X146560000Y-94150000D01*
X146560000Y-92250000D01*
X147560000Y-92250000D01*
X147560000Y-94150000D01*
X147560000Y-94150000D01*
G37*
G36*
X139940000Y-94150000D02*
X138940000Y-94150000D01*
X138940000Y-92250000D01*
X139940000Y-92250000D01*
X139940000Y-94150000D01*
X139940000Y-94150000D01*
G37*
G36*
X141210000Y-94150000D02*
X140210000Y-94150000D01*
X140210000Y-92250000D01*
X141210000Y-92250000D01*
X141210000Y-94150000D01*
X141210000Y-94150000D01*
G37*
G36*
X142480000Y-94150000D02*
X141480000Y-94150000D01*
X141480000Y-92250000D01*
X142480000Y-92250000D01*
X142480000Y-94150000D01*
X142480000Y-94150000D01*
G37*
G36*
X146290000Y-94150000D02*
X145290000Y-94150000D01*
X145290000Y-92250000D01*
X146290000Y-92250000D01*
X146290000Y-94150000D01*
X146290000Y-94150000D01*
G37*
G36*
X115616448Y-91766873D02*
X115686232Y-91773746D01*
X115775770Y-91800907D01*
X115865309Y-91828068D01*
X116030347Y-91916283D01*
X116175001Y-92034999D01*
X116293717Y-92179653D01*
X116381932Y-92344691D01*
X116436254Y-92523769D01*
X116454596Y-92710000D01*
X116436254Y-92896231D01*
X116381932Y-93075309D01*
X116293717Y-93240347D01*
X116175001Y-93385001D01*
X116030347Y-93503717D01*
X115865309Y-93591932D01*
X115775770Y-93619093D01*
X115686232Y-93646254D01*
X115616448Y-93653127D01*
X115546666Y-93660000D01*
X114453334Y-93660000D01*
X114383552Y-93653127D01*
X114313768Y-93646254D01*
X114224230Y-93619093D01*
X114134691Y-93591932D01*
X113969653Y-93503717D01*
X113824999Y-93385001D01*
X113706283Y-93240347D01*
X113618068Y-93075309D01*
X113563746Y-92896231D01*
X113545404Y-92710000D01*
X113563746Y-92523769D01*
X113618068Y-92344691D01*
X113706283Y-92179653D01*
X113824999Y-92034999D01*
X113969653Y-91916283D01*
X114134691Y-91828068D01*
X114224230Y-91800907D01*
X114313768Y-91773746D01*
X114383552Y-91766873D01*
X114453334Y-91760000D01*
X115546666Y-91760000D01*
X115616448Y-91766873D01*
X115616448Y-91766873D01*
G37*
G36*
X110616448Y-91766873D02*
X110686232Y-91773746D01*
X110775770Y-91800907D01*
X110865309Y-91828068D01*
X111030347Y-91916283D01*
X111175001Y-92034999D01*
X111293717Y-92179653D01*
X111381932Y-92344691D01*
X111436254Y-92523769D01*
X111454596Y-92710000D01*
X111436254Y-92896231D01*
X111381932Y-93075309D01*
X111293717Y-93240347D01*
X111175001Y-93385001D01*
X111030347Y-93503717D01*
X110865309Y-93591932D01*
X110775770Y-93619093D01*
X110686232Y-93646254D01*
X110616448Y-93653127D01*
X110546666Y-93660000D01*
X109453334Y-93660000D01*
X109383552Y-93653127D01*
X109313768Y-93646254D01*
X109224230Y-93619093D01*
X109134691Y-93591932D01*
X108969653Y-93503717D01*
X108824999Y-93385001D01*
X108706283Y-93240347D01*
X108618068Y-93075309D01*
X108563746Y-92896231D01*
X108545404Y-92710000D01*
X108563746Y-92523769D01*
X108618068Y-92344691D01*
X108706283Y-92179653D01*
X108824999Y-92034999D01*
X108969653Y-91916283D01*
X109134691Y-91828068D01*
X109224230Y-91800907D01*
X109313768Y-91773746D01*
X109383552Y-91766873D01*
X109453334Y-91760000D01*
X110546666Y-91760000D01*
X110616448Y-91766873D01*
X110616448Y-91766873D01*
G37*
G36*
X131950000Y-91550000D02*
X129550000Y-91550000D01*
X129550000Y-89450000D01*
X131950000Y-89450000D01*
X131950000Y-91550000D01*
X131950000Y-91550000D01*
G37*
G36*
X127950000Y-91550000D02*
X125550000Y-91550000D01*
X125550000Y-89450000D01*
X127950000Y-89450000D01*
X127950000Y-91550000D01*
X127950000Y-91550000D01*
G37*
G36*
X174950000Y-91500000D02*
X172550000Y-91500000D01*
X172550000Y-89500000D01*
X174950000Y-89500000D01*
X174950000Y-91500000D01*
X174950000Y-91500000D01*
G37*
G36*
X170950000Y-91500000D02*
X168550000Y-91500000D01*
X168550000Y-89500000D01*
X170950000Y-89500000D01*
X170950000Y-91500000D01*
X170950000Y-91500000D01*
G37*
G36*
X156800000Y-91450000D02*
X154700000Y-91450000D01*
X154700000Y-89050000D01*
X156800000Y-89050000D01*
X156800000Y-91450000D01*
X156800000Y-91450000D01*
G37*
G36*
X152750000Y-91450000D02*
X150750000Y-91450000D01*
X150750000Y-89050000D01*
X152750000Y-89050000D01*
X152750000Y-91450000D01*
X152750000Y-91450000D01*
G37*
G36*
X164575000Y-91330000D02*
X163525000Y-91330000D01*
X163525000Y-89370000D01*
X164575000Y-89370000D01*
X164575000Y-91330000D01*
X164575000Y-91330000D01*
G37*
G36*
X166475000Y-91330000D02*
X165425000Y-91330000D01*
X165425000Y-89370000D01*
X166475000Y-89370000D01*
X166475000Y-91330000D01*
X166475000Y-91330000D01*
G37*
G36*
X115616448Y-89226873D02*
X115686232Y-89233746D01*
X115775770Y-89260907D01*
X115865309Y-89288068D01*
X116030347Y-89376283D01*
X116175001Y-89494999D01*
X116293717Y-89639653D01*
X116381932Y-89804691D01*
X116436254Y-89983769D01*
X116454596Y-90170000D01*
X116436254Y-90356231D01*
X116381932Y-90535309D01*
X116293717Y-90700347D01*
X116175001Y-90845001D01*
X116030347Y-90963717D01*
X115865309Y-91051932D01*
X115775770Y-91079093D01*
X115686232Y-91106254D01*
X115616448Y-91113127D01*
X115546666Y-91120000D01*
X114453334Y-91120000D01*
X114383552Y-91113127D01*
X114313768Y-91106254D01*
X114224230Y-91079093D01*
X114134691Y-91051932D01*
X113969653Y-90963717D01*
X113824999Y-90845001D01*
X113706283Y-90700347D01*
X113618068Y-90535309D01*
X113563746Y-90356231D01*
X113545404Y-90170000D01*
X113563746Y-89983769D01*
X113618068Y-89804691D01*
X113706283Y-89639653D01*
X113824999Y-89494999D01*
X113969653Y-89376283D01*
X114134691Y-89288068D01*
X114224230Y-89260907D01*
X114313768Y-89233746D01*
X114383552Y-89226873D01*
X114453334Y-89220000D01*
X115546666Y-89220000D01*
X115616448Y-89226873D01*
X115616448Y-89226873D01*
G37*
G36*
X110616448Y-89226873D02*
X110686232Y-89233746D01*
X110775770Y-89260907D01*
X110865309Y-89288068D01*
X111030347Y-89376283D01*
X111175001Y-89494999D01*
X111293717Y-89639653D01*
X111381932Y-89804691D01*
X111436254Y-89983769D01*
X111454596Y-90170000D01*
X111436254Y-90356231D01*
X111381932Y-90535309D01*
X111293717Y-90700347D01*
X111175001Y-90845001D01*
X111030347Y-90963717D01*
X110865309Y-91051932D01*
X110775770Y-91079093D01*
X110686232Y-91106254D01*
X110616448Y-91113127D01*
X110546666Y-91120000D01*
X109453334Y-91120000D01*
X109383552Y-91113127D01*
X109313768Y-91106254D01*
X109224230Y-91079093D01*
X109134691Y-91051932D01*
X108969653Y-90963717D01*
X108824999Y-90845001D01*
X108706283Y-90700347D01*
X108618068Y-90535309D01*
X108563746Y-90356231D01*
X108545404Y-90170000D01*
X108563746Y-89983769D01*
X108618068Y-89804691D01*
X108706283Y-89639653D01*
X108824999Y-89494999D01*
X108969653Y-89376283D01*
X109134691Y-89288068D01*
X109224230Y-89260907D01*
X109313768Y-89233746D01*
X109383552Y-89226873D01*
X109453334Y-89220000D01*
X110546666Y-89220000D01*
X110616448Y-89226873D01*
X110616448Y-89226873D01*
G37*
G36*
X145020000Y-88750000D02*
X144020000Y-88750000D01*
X144020000Y-86850000D01*
X145020000Y-86850000D01*
X145020000Y-88750000D01*
X145020000Y-88750000D01*
G37*
G36*
X146290000Y-88750000D02*
X145290000Y-88750000D01*
X145290000Y-86850000D01*
X146290000Y-86850000D01*
X146290000Y-88750000D01*
X146290000Y-88750000D01*
G37*
G36*
X143750000Y-88750000D02*
X142750000Y-88750000D01*
X142750000Y-86850000D01*
X143750000Y-86850000D01*
X143750000Y-88750000D01*
X143750000Y-88750000D01*
G37*
G36*
X147560000Y-88750000D02*
X146560000Y-88750000D01*
X146560000Y-86850000D01*
X147560000Y-86850000D01*
X147560000Y-88750000D01*
X147560000Y-88750000D01*
G37*
G36*
X142480000Y-88750000D02*
X141480000Y-88750000D01*
X141480000Y-86850000D01*
X142480000Y-86850000D01*
X142480000Y-88750000D01*
X142480000Y-88750000D01*
G37*
G36*
X139940000Y-88750000D02*
X138940000Y-88750000D01*
X138940000Y-86850000D01*
X139940000Y-86850000D01*
X139940000Y-88750000D01*
X139940000Y-88750000D01*
G37*
G36*
X141210000Y-88750000D02*
X140210000Y-88750000D01*
X140210000Y-86850000D01*
X141210000Y-86850000D01*
X141210000Y-88750000D01*
X141210000Y-88750000D01*
G37*
G36*
X166475000Y-88630000D02*
X163525000Y-88630000D01*
X163525000Y-86670000D01*
X166475000Y-86670000D01*
X166475000Y-88630000D01*
X166475000Y-88630000D01*
G37*
G36*
X110616448Y-86686873D02*
X110686232Y-86693746D01*
X110775770Y-86720907D01*
X110865309Y-86748068D01*
X111030347Y-86836283D01*
X111175001Y-86954999D01*
X111293717Y-87099653D01*
X111381932Y-87264691D01*
X111436254Y-87443769D01*
X111454596Y-87630000D01*
X111436254Y-87816231D01*
X111381932Y-87995309D01*
X111293717Y-88160347D01*
X111175001Y-88305001D01*
X111030347Y-88423717D01*
X110865309Y-88511932D01*
X110775770Y-88539093D01*
X110686232Y-88566254D01*
X110616448Y-88573127D01*
X110546666Y-88580000D01*
X109453334Y-88580000D01*
X109383552Y-88573127D01*
X109313768Y-88566254D01*
X109224230Y-88539093D01*
X109134691Y-88511932D01*
X108969653Y-88423717D01*
X108824999Y-88305001D01*
X108706283Y-88160347D01*
X108618068Y-87995309D01*
X108563746Y-87816231D01*
X108545404Y-87630000D01*
X108563746Y-87443769D01*
X108618068Y-87264691D01*
X108706283Y-87099653D01*
X108824999Y-86954999D01*
X108969653Y-86836283D01*
X109134691Y-86748068D01*
X109224230Y-86720907D01*
X109313768Y-86693746D01*
X109383552Y-86686873D01*
X109453334Y-86680000D01*
X110546666Y-86680000D01*
X110616448Y-86686873D01*
X110616448Y-86686873D01*
G37*
G36*
X115616448Y-86686873D02*
X115686232Y-86693746D01*
X115775770Y-86720907D01*
X115865309Y-86748068D01*
X116030347Y-86836283D01*
X116175001Y-86954999D01*
X116293717Y-87099653D01*
X116381932Y-87264691D01*
X116436254Y-87443769D01*
X116454596Y-87630000D01*
X116436254Y-87816231D01*
X116381932Y-87995309D01*
X116293717Y-88160347D01*
X116175001Y-88305001D01*
X116030347Y-88423717D01*
X115865309Y-88511932D01*
X115775770Y-88539093D01*
X115686232Y-88566254D01*
X115616448Y-88573127D01*
X115546666Y-88580000D01*
X114453334Y-88580000D01*
X114383552Y-88573127D01*
X114313768Y-88566254D01*
X114224230Y-88539093D01*
X114134691Y-88511932D01*
X113969653Y-88423717D01*
X113824999Y-88305001D01*
X113706283Y-88160347D01*
X113618068Y-87995309D01*
X113563746Y-87816231D01*
X113545404Y-87630000D01*
X113563746Y-87443769D01*
X113618068Y-87264691D01*
X113706283Y-87099653D01*
X113824999Y-86954999D01*
X113969653Y-86836283D01*
X114134691Y-86748068D01*
X114224230Y-86720907D01*
X114313768Y-86693746D01*
X114383552Y-86686873D01*
X114453334Y-86680000D01*
X115546666Y-86680000D01*
X115616448Y-86686873D01*
X115616448Y-86686873D01*
G37*
G36*
X132050000Y-87700000D02*
X129950000Y-87700000D01*
X129950000Y-85300000D01*
X132050000Y-85300000D01*
X132050000Y-87700000D01*
X132050000Y-87700000D01*
G37*
G36*
X132050000Y-83700000D02*
X129950000Y-83700000D01*
X129950000Y-81300000D01*
X132050000Y-81300000D01*
X132050000Y-83700000D01*
X132050000Y-83700000D01*
G37*
G36*
X187616448Y-79426873D02*
X187686232Y-79433746D01*
X187775770Y-79460907D01*
X187865309Y-79488068D01*
X188030347Y-79576283D01*
X188175001Y-79694999D01*
X188293717Y-79839653D01*
X188381932Y-80004691D01*
X188436254Y-80183769D01*
X188454596Y-80370000D01*
X188436254Y-80556231D01*
X188381932Y-80735309D01*
X188293717Y-80900347D01*
X188175001Y-81045001D01*
X188030347Y-81163717D01*
X187865309Y-81251932D01*
X187775770Y-81279093D01*
X187686232Y-81306254D01*
X187616448Y-81313127D01*
X187546666Y-81320000D01*
X186453334Y-81320000D01*
X186383552Y-81313127D01*
X186313768Y-81306254D01*
X186224230Y-81279093D01*
X186134691Y-81251932D01*
X185969653Y-81163717D01*
X185824999Y-81045001D01*
X185706283Y-80900347D01*
X185618068Y-80735309D01*
X185563746Y-80556231D01*
X185545404Y-80370000D01*
X185563746Y-80183769D01*
X185618068Y-80004691D01*
X185706283Y-79839653D01*
X185824999Y-79694999D01*
X185969653Y-79576283D01*
X186134691Y-79488068D01*
X186224230Y-79460907D01*
X186313768Y-79433746D01*
X186383552Y-79426873D01*
X186453334Y-79420000D01*
X187546666Y-79420000D01*
X187616448Y-79426873D01*
X187616448Y-79426873D01*
G37*
G36*
X182616448Y-79426873D02*
X182686232Y-79433746D01*
X182775770Y-79460907D01*
X182865309Y-79488068D01*
X183030347Y-79576283D01*
X183175001Y-79694999D01*
X183293717Y-79839653D01*
X183381932Y-80004691D01*
X183436254Y-80183769D01*
X183454596Y-80370000D01*
X183436254Y-80556231D01*
X183381932Y-80735309D01*
X183293717Y-80900347D01*
X183175001Y-81045001D01*
X183030347Y-81163717D01*
X182865309Y-81251932D01*
X182775770Y-81279093D01*
X182686232Y-81306254D01*
X182616448Y-81313127D01*
X182546666Y-81320000D01*
X181453334Y-81320000D01*
X181383552Y-81313127D01*
X181313768Y-81306254D01*
X181224230Y-81279093D01*
X181134691Y-81251932D01*
X180969653Y-81163717D01*
X180824999Y-81045001D01*
X180706283Y-80900347D01*
X180618068Y-80735309D01*
X180563746Y-80556231D01*
X180545404Y-80370000D01*
X180563746Y-80183769D01*
X180618068Y-80004691D01*
X180706283Y-79839653D01*
X180824999Y-79694999D01*
X180969653Y-79576283D01*
X181134691Y-79488068D01*
X181224230Y-79460907D01*
X181313768Y-79433746D01*
X181383552Y-79426873D01*
X181453334Y-79420000D01*
X182546666Y-79420000D01*
X182616448Y-79426873D01*
X182616448Y-79426873D01*
G37*
G36*
X144741925Y-78435948D02*
X144822102Y-78451896D01*
X144884669Y-78477813D01*
X144973151Y-78514463D01*
X145109097Y-78605299D01*
X145224701Y-78720903D01*
X145315537Y-78856849D01*
X145378104Y-79007899D01*
X145410000Y-79168251D01*
X145410000Y-79331749D01*
X145378104Y-79492101D01*
X145315537Y-79643151D01*
X145224701Y-79779097D01*
X145109097Y-79894701D01*
X144973151Y-79985537D01*
X144884669Y-80022187D01*
X144822102Y-80048104D01*
X144741925Y-80064052D01*
X144661749Y-80080000D01*
X144498251Y-80080000D01*
X144418075Y-80064052D01*
X144337898Y-80048104D01*
X144275331Y-80022187D01*
X144186849Y-79985537D01*
X144050903Y-79894701D01*
X143935299Y-79779097D01*
X143844463Y-79643151D01*
X143781896Y-79492101D01*
X143750000Y-79331749D01*
X143750000Y-79168251D01*
X143781896Y-79007899D01*
X143844463Y-78856849D01*
X143935299Y-78720903D01*
X144050903Y-78605299D01*
X144186849Y-78514463D01*
X144275331Y-78477813D01*
X144337898Y-78451896D01*
X144418075Y-78435948D01*
X144498251Y-78420000D01*
X144661749Y-78420000D01*
X144741925Y-78435948D01*
X144741925Y-78435948D01*
G37*
G36*
X139661925Y-78435948D02*
X139742102Y-78451896D01*
X139804669Y-78477813D01*
X139893151Y-78514463D01*
X140029097Y-78605299D01*
X140144701Y-78720903D01*
X140235537Y-78856849D01*
X140298104Y-79007899D01*
X140330000Y-79168251D01*
X140330000Y-79331749D01*
X140298104Y-79492101D01*
X140235537Y-79643151D01*
X140144701Y-79779097D01*
X140029097Y-79894701D01*
X139893151Y-79985537D01*
X139804669Y-80022187D01*
X139742102Y-80048104D01*
X139661925Y-80064052D01*
X139581749Y-80080000D01*
X139418251Y-80080000D01*
X139338075Y-80064052D01*
X139257898Y-80048104D01*
X139195331Y-80022187D01*
X139106849Y-79985537D01*
X138970903Y-79894701D01*
X138855299Y-79779097D01*
X138764463Y-79643151D01*
X138701896Y-79492101D01*
X138670000Y-79331749D01*
X138670000Y-79168251D01*
X138701896Y-79007899D01*
X138764463Y-78856849D01*
X138855299Y-78720903D01*
X138970903Y-78605299D01*
X139106849Y-78514463D01*
X139195331Y-78477813D01*
X139257898Y-78451896D01*
X139338075Y-78435948D01*
X139418251Y-78420000D01*
X139581749Y-78420000D01*
X139661925Y-78435948D01*
X139661925Y-78435948D01*
G37*
G36*
X187616448Y-76886873D02*
X187686232Y-76893746D01*
X187775770Y-76920907D01*
X187865309Y-76948068D01*
X188030347Y-77036283D01*
X188175001Y-77154999D01*
X188293717Y-77299653D01*
X188381932Y-77464691D01*
X188436254Y-77643769D01*
X188454596Y-77830000D01*
X188436254Y-78016231D01*
X188381932Y-78195309D01*
X188293717Y-78360347D01*
X188175001Y-78505001D01*
X188030347Y-78623717D01*
X187865309Y-78711932D01*
X187835735Y-78720903D01*
X187686232Y-78766254D01*
X187616448Y-78773127D01*
X187546666Y-78780000D01*
X186453334Y-78780000D01*
X186383552Y-78773127D01*
X186313768Y-78766254D01*
X186164265Y-78720903D01*
X186134691Y-78711932D01*
X185969653Y-78623717D01*
X185824999Y-78505001D01*
X185706283Y-78360347D01*
X185618068Y-78195309D01*
X185563746Y-78016231D01*
X185545404Y-77830000D01*
X185563746Y-77643769D01*
X185618068Y-77464691D01*
X185706283Y-77299653D01*
X185824999Y-77154999D01*
X185969653Y-77036283D01*
X186134691Y-76948068D01*
X186224230Y-76920907D01*
X186313768Y-76893746D01*
X186383552Y-76886873D01*
X186453334Y-76880000D01*
X187546666Y-76880000D01*
X187616448Y-76886873D01*
X187616448Y-76886873D01*
G37*
G36*
X182616448Y-76886873D02*
X182686232Y-76893746D01*
X182775770Y-76920907D01*
X182865309Y-76948068D01*
X183030347Y-77036283D01*
X183175001Y-77154999D01*
X183293717Y-77299653D01*
X183381932Y-77464691D01*
X183436254Y-77643769D01*
X183454596Y-77830000D01*
X183436254Y-78016231D01*
X183381932Y-78195309D01*
X183293717Y-78360347D01*
X183175001Y-78505001D01*
X183030347Y-78623717D01*
X182865309Y-78711932D01*
X182835735Y-78720903D01*
X182686232Y-78766254D01*
X182616448Y-78773127D01*
X182546666Y-78780000D01*
X181453334Y-78780000D01*
X181383552Y-78773127D01*
X181313768Y-78766254D01*
X181164265Y-78720903D01*
X181134691Y-78711932D01*
X180969653Y-78623717D01*
X180824999Y-78505001D01*
X180706283Y-78360347D01*
X180618068Y-78195309D01*
X180563746Y-78016231D01*
X180545404Y-77830000D01*
X180563746Y-77643769D01*
X180618068Y-77464691D01*
X180706283Y-77299653D01*
X180824999Y-77154999D01*
X180969653Y-77036283D01*
X181134691Y-76948068D01*
X181224230Y-76920907D01*
X181313768Y-76893746D01*
X181383552Y-76886873D01*
X181453334Y-76880000D01*
X182546666Y-76880000D01*
X182616448Y-76886873D01*
X182616448Y-76886873D01*
G37*
G36*
X132200000Y-77800000D02*
X129800000Y-77800000D01*
X129800000Y-75700000D01*
X132200000Y-75700000D01*
X132200000Y-77800000D01*
X132200000Y-77800000D01*
G37*
G36*
X136200000Y-77800000D02*
X133800000Y-77800000D01*
X133800000Y-75700000D01*
X136200000Y-75700000D01*
X136200000Y-77800000D01*
X136200000Y-77800000D01*
G37*
G36*
X142201925Y-75895948D02*
X142282102Y-75911896D01*
X142344669Y-75937813D01*
X142433151Y-75974463D01*
X142569097Y-76065299D01*
X142684701Y-76180903D01*
X142775537Y-76316849D01*
X142838104Y-76467899D01*
X142870000Y-76628251D01*
X142870000Y-76791749D01*
X142838104Y-76952101D01*
X142775537Y-77103151D01*
X142684701Y-77239097D01*
X142569097Y-77354701D01*
X142433151Y-77445537D01*
X142344669Y-77482187D01*
X142282102Y-77508104D01*
X142201925Y-77524052D01*
X142121749Y-77540000D01*
X141958251Y-77540000D01*
X141878075Y-77524052D01*
X141797898Y-77508104D01*
X141735331Y-77482187D01*
X141646849Y-77445537D01*
X141510903Y-77354701D01*
X141395299Y-77239097D01*
X141304463Y-77103151D01*
X141241896Y-76952101D01*
X141210000Y-76791749D01*
X141210000Y-76628251D01*
X141241896Y-76467899D01*
X141304463Y-76316849D01*
X141395299Y-76180903D01*
X141510903Y-76065299D01*
X141646849Y-75974463D01*
X141735331Y-75937813D01*
X141797898Y-75911896D01*
X141878075Y-75895948D01*
X141958251Y-75880000D01*
X142121749Y-75880000D01*
X142201925Y-75895948D01*
X142201925Y-75895948D01*
G37*
G36*
X187686232Y-74353746D02*
X187775770Y-74380907D01*
X187865309Y-74408068D01*
X188030347Y-74496283D01*
X188175001Y-74614999D01*
X188293717Y-74759653D01*
X188381932Y-74924691D01*
X188436254Y-75103769D01*
X188454596Y-75290000D01*
X188436254Y-75476231D01*
X188381932Y-75655309D01*
X188293717Y-75820347D01*
X188175001Y-75965001D01*
X188030347Y-76083717D01*
X187865309Y-76171932D01*
X187835735Y-76180903D01*
X187686232Y-76226254D01*
X187546666Y-76240000D01*
X186453334Y-76240000D01*
X186313768Y-76226254D01*
X186164265Y-76180903D01*
X186134691Y-76171932D01*
X185969653Y-76083717D01*
X185824999Y-75965001D01*
X185706283Y-75820347D01*
X185618068Y-75655309D01*
X185563746Y-75476231D01*
X185545404Y-75290000D01*
X185563746Y-75103769D01*
X185618068Y-74924691D01*
X185706283Y-74759653D01*
X185824999Y-74614999D01*
X185969653Y-74496283D01*
X186134691Y-74408068D01*
X186224230Y-74380907D01*
X186313768Y-74353746D01*
X186453334Y-74340000D01*
X187546666Y-74340000D01*
X187686232Y-74353746D01*
X187686232Y-74353746D01*
G37*
G36*
X182686232Y-74353746D02*
X182775770Y-74380907D01*
X182865309Y-74408068D01*
X183030347Y-74496283D01*
X183175001Y-74614999D01*
X183293717Y-74759653D01*
X183381932Y-74924691D01*
X183436254Y-75103769D01*
X183454596Y-75290000D01*
X183436254Y-75476231D01*
X183381932Y-75655309D01*
X183293717Y-75820347D01*
X183175001Y-75965001D01*
X183030347Y-76083717D01*
X182865309Y-76171932D01*
X182835735Y-76180903D01*
X182686232Y-76226254D01*
X182546666Y-76240000D01*
X181453334Y-76240000D01*
X181313768Y-76226254D01*
X181164265Y-76180903D01*
X181134691Y-76171932D01*
X180969653Y-76083717D01*
X180824999Y-75965001D01*
X180706283Y-75820347D01*
X180618068Y-75655309D01*
X180563746Y-75476231D01*
X180545404Y-75290000D01*
X180563746Y-75103769D01*
X180618068Y-74924691D01*
X180706283Y-74759653D01*
X180824999Y-74614999D01*
X180969653Y-74496283D01*
X181134691Y-74408068D01*
X181224230Y-74380907D01*
X181313768Y-74353746D01*
X181453334Y-74340000D01*
X182546666Y-74340000D01*
X182686232Y-74353746D01*
X182686232Y-74353746D01*
G37*
G36*
X182686232Y-71773746D02*
X182775770Y-71800907D01*
X182865309Y-71828068D01*
X183030347Y-71916283D01*
X183175001Y-72034999D01*
X183293717Y-72179653D01*
X183381932Y-72344691D01*
X183436254Y-72523769D01*
X183454596Y-72710000D01*
X183436254Y-72896231D01*
X183381932Y-73075309D01*
X183293717Y-73240347D01*
X183175001Y-73385001D01*
X183030347Y-73503717D01*
X182865309Y-73591932D01*
X182775770Y-73619093D01*
X182686232Y-73646254D01*
X182546666Y-73660000D01*
X181453334Y-73660000D01*
X181313768Y-73646254D01*
X181224230Y-73619093D01*
X181134691Y-73591932D01*
X180969653Y-73503717D01*
X180824999Y-73385001D01*
X180706283Y-73240347D01*
X180618068Y-73075309D01*
X180563746Y-72896231D01*
X180545404Y-72710000D01*
X180563746Y-72523769D01*
X180618068Y-72344691D01*
X180706283Y-72179653D01*
X180824999Y-72034999D01*
X180969653Y-71916283D01*
X181134691Y-71828068D01*
X181224230Y-71800907D01*
X181313768Y-71773746D01*
X181453334Y-71760000D01*
X182546666Y-71760000D01*
X182686232Y-71773746D01*
X182686232Y-71773746D01*
G37*
G36*
X187686232Y-71773746D02*
X187775770Y-71800907D01*
X187865309Y-71828068D01*
X188030347Y-71916283D01*
X188175001Y-72034999D01*
X188293717Y-72179653D01*
X188381932Y-72344691D01*
X188436254Y-72523769D01*
X188454596Y-72710000D01*
X188436254Y-72896231D01*
X188381932Y-73075309D01*
X188293717Y-73240347D01*
X188175001Y-73385001D01*
X188030347Y-73503717D01*
X187865309Y-73591932D01*
X187775770Y-73619093D01*
X187686232Y-73646254D01*
X187546666Y-73660000D01*
X186453334Y-73660000D01*
X186313768Y-73646254D01*
X186224230Y-73619093D01*
X186134691Y-73591932D01*
X185969653Y-73503717D01*
X185824999Y-73385001D01*
X185706283Y-73240347D01*
X185618068Y-73075309D01*
X185563746Y-72896231D01*
X185545404Y-72710000D01*
X185563746Y-72523769D01*
X185618068Y-72344691D01*
X185706283Y-72179653D01*
X185824999Y-72034999D01*
X185969653Y-71916283D01*
X186134691Y-71828068D01*
X186224230Y-71800907D01*
X186313768Y-71773746D01*
X186453334Y-71760000D01*
X187546666Y-71760000D01*
X187686232Y-71773746D01*
X187686232Y-71773746D01*
G37*
G36*
X135550000Y-71450000D02*
X133450000Y-71450000D01*
X133450000Y-69050000D01*
X135550000Y-69050000D01*
X135550000Y-71450000D01*
X135550000Y-71450000D01*
G37*
G36*
X131700000Y-71250000D02*
X129300000Y-71250000D01*
X129300000Y-69250000D01*
X131700000Y-69250000D01*
X131700000Y-71250000D01*
X131700000Y-71250000D01*
G37*
G36*
X127700000Y-71250000D02*
X125300000Y-71250000D01*
X125300000Y-69250000D01*
X127700000Y-69250000D01*
X127700000Y-71250000D01*
X127700000Y-71250000D01*
G37*
G36*
X187686232Y-69233746D02*
X187739814Y-69250000D01*
X187865309Y-69288068D01*
X188030347Y-69376283D01*
X188175001Y-69494999D01*
X188293717Y-69639653D01*
X188381932Y-69804691D01*
X188436254Y-69983769D01*
X188454596Y-70170000D01*
X188436254Y-70356231D01*
X188381932Y-70535309D01*
X188293717Y-70700347D01*
X188175001Y-70845001D01*
X188030347Y-70963717D01*
X187865309Y-71051932D01*
X187775770Y-71079093D01*
X187686232Y-71106254D01*
X187546666Y-71120000D01*
X186453334Y-71120000D01*
X186313768Y-71106254D01*
X186224230Y-71079093D01*
X186134691Y-71051932D01*
X185969653Y-70963717D01*
X185824999Y-70845001D01*
X185706283Y-70700347D01*
X185618068Y-70535309D01*
X185563746Y-70356231D01*
X185545404Y-70170000D01*
X185563746Y-69983769D01*
X185618068Y-69804691D01*
X185706283Y-69639653D01*
X185824999Y-69494999D01*
X185969653Y-69376283D01*
X186134691Y-69288068D01*
X186260186Y-69250000D01*
X186313768Y-69233746D01*
X186453334Y-69220000D01*
X187546666Y-69220000D01*
X187686232Y-69233746D01*
X187686232Y-69233746D01*
G37*
G36*
X182686232Y-69233746D02*
X182739814Y-69250000D01*
X182865309Y-69288068D01*
X183030347Y-69376283D01*
X183175001Y-69494999D01*
X183293717Y-69639653D01*
X183381932Y-69804691D01*
X183436254Y-69983769D01*
X183454596Y-70170000D01*
X183436254Y-70356231D01*
X183381932Y-70535309D01*
X183293717Y-70700347D01*
X183175001Y-70845001D01*
X183030347Y-70963717D01*
X182865309Y-71051932D01*
X182775770Y-71079093D01*
X182686232Y-71106254D01*
X182546666Y-71120000D01*
X181453334Y-71120000D01*
X181313768Y-71106254D01*
X181224230Y-71079093D01*
X181134691Y-71051932D01*
X180969653Y-70963717D01*
X180824999Y-70845001D01*
X180706283Y-70700347D01*
X180618068Y-70535309D01*
X180563746Y-70356231D01*
X180545404Y-70170000D01*
X180563746Y-69983769D01*
X180618068Y-69804691D01*
X180706283Y-69639653D01*
X180824999Y-69494999D01*
X180969653Y-69376283D01*
X181134691Y-69288068D01*
X181260186Y-69250000D01*
X181313768Y-69233746D01*
X181453334Y-69220000D01*
X182546666Y-69220000D01*
X182686232Y-69233746D01*
X182686232Y-69233746D01*
G37*
G36*
X182686232Y-66693746D02*
X182775770Y-66720907D01*
X182865309Y-66748068D01*
X183030347Y-66836283D01*
X183175001Y-66954999D01*
X183293717Y-67099653D01*
X183381932Y-67264691D01*
X183436254Y-67443769D01*
X183454596Y-67630000D01*
X183436254Y-67816231D01*
X183381932Y-67995309D01*
X183293717Y-68160347D01*
X183175001Y-68305001D01*
X183030347Y-68423717D01*
X182865309Y-68511932D01*
X182775770Y-68539093D01*
X182686232Y-68566254D01*
X182546666Y-68580000D01*
X181453334Y-68580000D01*
X181313768Y-68566254D01*
X181224230Y-68539093D01*
X181134691Y-68511932D01*
X180969653Y-68423717D01*
X180824999Y-68305001D01*
X180706283Y-68160347D01*
X180618068Y-67995309D01*
X180563746Y-67816231D01*
X180545404Y-67630000D01*
X180563746Y-67443769D01*
X180618068Y-67264691D01*
X180706283Y-67099653D01*
X180824999Y-66954999D01*
X180969653Y-66836283D01*
X181134691Y-66748068D01*
X181224230Y-66720907D01*
X181313768Y-66693746D01*
X181453334Y-66680000D01*
X182546666Y-66680000D01*
X182686232Y-66693746D01*
X182686232Y-66693746D01*
G37*
G36*
X187686232Y-66693746D02*
X187775770Y-66720907D01*
X187865309Y-66748068D01*
X188030347Y-66836283D01*
X188175001Y-66954999D01*
X188293717Y-67099653D01*
X188381932Y-67264691D01*
X188436254Y-67443769D01*
X188454596Y-67630000D01*
X188436254Y-67816231D01*
X188381932Y-67995309D01*
X188293717Y-68160347D01*
X188175001Y-68305001D01*
X188030347Y-68423717D01*
X187865309Y-68511932D01*
X187775770Y-68539093D01*
X187686232Y-68566254D01*
X187546666Y-68580000D01*
X186453334Y-68580000D01*
X186313768Y-68566254D01*
X186224230Y-68539093D01*
X186134691Y-68511932D01*
X185969653Y-68423717D01*
X185824999Y-68305001D01*
X185706283Y-68160347D01*
X185618068Y-67995309D01*
X185563746Y-67816231D01*
X185545404Y-67630000D01*
X185563746Y-67443769D01*
X185618068Y-67264691D01*
X185706283Y-67099653D01*
X185824999Y-66954999D01*
X185969653Y-66836283D01*
X186134691Y-66748068D01*
X186224230Y-66720907D01*
X186313768Y-66693746D01*
X186453334Y-66680000D01*
X187546666Y-66680000D01*
X187686232Y-66693746D01*
X187686232Y-66693746D01*
G37*
G36*
X161800000Y-68450000D02*
X159700000Y-68450000D01*
X159700000Y-66050000D01*
X161800000Y-66050000D01*
X161800000Y-68450000D01*
X161800000Y-68450000D01*
G37*
G36*
X167911925Y-66475948D02*
X167992102Y-66491896D01*
X168054669Y-66517813D01*
X168143151Y-66554463D01*
X168279097Y-66645299D01*
X168394701Y-66760903D01*
X168485537Y-66896849D01*
X168548104Y-67047899D01*
X168580000Y-67208251D01*
X168580000Y-67371749D01*
X168548104Y-67532101D01*
X168485537Y-67683151D01*
X168394701Y-67819097D01*
X168279097Y-67934701D01*
X168143151Y-68025537D01*
X168054669Y-68062187D01*
X167992102Y-68088104D01*
X167911925Y-68104052D01*
X167831749Y-68120000D01*
X167668251Y-68120000D01*
X167588075Y-68104052D01*
X167507898Y-68088104D01*
X167445331Y-68062187D01*
X167356849Y-68025537D01*
X167220903Y-67934701D01*
X167105299Y-67819097D01*
X167014463Y-67683151D01*
X166951896Y-67532101D01*
X166920000Y-67371749D01*
X166920000Y-67208251D01*
X166951896Y-67047899D01*
X167014463Y-66896849D01*
X167105299Y-66760903D01*
X167220903Y-66645299D01*
X167356849Y-66554463D01*
X167445331Y-66517813D01*
X167507898Y-66491896D01*
X167588075Y-66475948D01*
X167668251Y-66460000D01*
X167831749Y-66460000D01*
X167911925Y-66475948D01*
X167911925Y-66475948D01*
G37*
G36*
X156700000Y-67800000D02*
X154300000Y-67800000D01*
X154300000Y-65700000D01*
X156700000Y-65700000D01*
X156700000Y-67800000D01*
X156700000Y-67800000D01*
G37*
G36*
X152700000Y-67800000D02*
X150300000Y-67800000D01*
X150300000Y-65700000D01*
X152700000Y-65700000D01*
X152700000Y-67800000D01*
X152700000Y-67800000D01*
G37*
G36*
X135550000Y-67450000D02*
X133450000Y-67450000D01*
X133450000Y-65050000D01*
X135550000Y-65050000D01*
X135550000Y-67450000D01*
X135550000Y-67450000D01*
G37*
G36*
X165371925Y-63935948D02*
X165452102Y-63951896D01*
X165514669Y-63977813D01*
X165603151Y-64014463D01*
X165739097Y-64105299D01*
X165854701Y-64220903D01*
X165945537Y-64356849D01*
X166008104Y-64507899D01*
X166040000Y-64668251D01*
X166040000Y-64831749D01*
X166008104Y-64992101D01*
X165945537Y-65143151D01*
X165854701Y-65279097D01*
X165739097Y-65394701D01*
X165603151Y-65485537D01*
X165514669Y-65522187D01*
X165452102Y-65548104D01*
X165371925Y-65564052D01*
X165291749Y-65580000D01*
X165128251Y-65580000D01*
X165048075Y-65564052D01*
X164967898Y-65548104D01*
X164905331Y-65522187D01*
X164816849Y-65485537D01*
X164680903Y-65394701D01*
X164565299Y-65279097D01*
X164474463Y-65143151D01*
X164411896Y-64992101D01*
X164380000Y-64831749D01*
X164380000Y-64668251D01*
X164411896Y-64507899D01*
X164474463Y-64356849D01*
X164565299Y-64220903D01*
X164680903Y-64105299D01*
X164816849Y-64014463D01*
X164905331Y-63977813D01*
X164967898Y-63951896D01*
X165048075Y-63935948D01*
X165128251Y-63920000D01*
X165291749Y-63920000D01*
X165371925Y-63935948D01*
X165371925Y-63935948D01*
G37*
G36*
X170451925Y-63935948D02*
X170532102Y-63951896D01*
X170594669Y-63977813D01*
X170683151Y-64014463D01*
X170819097Y-64105299D01*
X170934701Y-64220903D01*
X171025537Y-64356849D01*
X171088104Y-64507899D01*
X171120000Y-64668251D01*
X171120000Y-64831749D01*
X171088104Y-64992101D01*
X171025537Y-65143151D01*
X170934701Y-65279097D01*
X170819097Y-65394701D01*
X170683151Y-65485537D01*
X170594669Y-65522187D01*
X170532102Y-65548104D01*
X170451925Y-65564052D01*
X170371749Y-65580000D01*
X170208251Y-65580000D01*
X170128075Y-65564052D01*
X170047898Y-65548104D01*
X169985331Y-65522187D01*
X169896849Y-65485537D01*
X169760903Y-65394701D01*
X169645299Y-65279097D01*
X169554463Y-65143151D01*
X169491896Y-64992101D01*
X169460000Y-64831749D01*
X169460000Y-64668251D01*
X169491896Y-64507899D01*
X169554463Y-64356849D01*
X169645299Y-64220903D01*
X169760903Y-64105299D01*
X169896849Y-64014463D01*
X169985331Y-63977813D01*
X170047898Y-63951896D01*
X170128075Y-63935948D01*
X170208251Y-63920000D01*
X170371749Y-63920000D01*
X170451925Y-63935948D01*
X170451925Y-63935948D01*
G37*
G36*
X161800000Y-64450000D02*
X159700000Y-64450000D01*
X159700000Y-62050000D01*
X161800000Y-62050000D01*
X161800000Y-64450000D01*
X161800000Y-64450000D01*
G37*
G36*
X152450000Y-63800000D02*
X150050000Y-63800000D01*
X150050000Y-61700000D01*
X152450000Y-61700000D01*
X152450000Y-63800000D01*
X152450000Y-63800000D01*
G37*
G36*
X148450000Y-63800000D02*
X146050000Y-63800000D01*
X146050000Y-61700000D01*
X148450000Y-61700000D01*
X148450000Y-63800000D01*
X148450000Y-63800000D01*
G37*
G36*
X135550000Y-62950000D02*
X133450000Y-62950000D01*
X133450000Y-60550000D01*
X135550000Y-60550000D01*
X135550000Y-62950000D01*
X135550000Y-62950000D01*
G37*
G36*
X131700000Y-62750000D02*
X129300000Y-62750000D01*
X129300000Y-60750000D01*
X131700000Y-60750000D01*
X131700000Y-62750000D01*
X131700000Y-62750000D01*
G37*
G36*
X127700000Y-62750000D02*
X125300000Y-62750000D01*
X125300000Y-60750000D01*
X127700000Y-60750000D01*
X127700000Y-62750000D01*
X127700000Y-62750000D01*
G37*
G36*
X143700000Y-62500000D02*
X141300000Y-62500000D01*
X141300000Y-60500000D01*
X143700000Y-60500000D01*
X143700000Y-62500000D01*
X143700000Y-62500000D01*
G37*
G36*
X139700000Y-62500000D02*
X137300000Y-62500000D01*
X137300000Y-60500000D01*
X139700000Y-60500000D01*
X139700000Y-62500000D01*
X139700000Y-62500000D01*
G37*
G36*
X152500000Y-59950000D02*
X150500000Y-59950000D01*
X150500000Y-57550000D01*
X152500000Y-57550000D01*
X152500000Y-59950000D01*
X152500000Y-59950000D01*
G37*
G36*
X156550000Y-59950000D02*
X154450000Y-59950000D01*
X154450000Y-57550000D01*
X156550000Y-57550000D01*
X156550000Y-59950000D01*
X156550000Y-59950000D01*
G37*
G36*
X162200000Y-59550000D02*
X159800000Y-59550000D01*
X159800000Y-57450000D01*
X162200000Y-57450000D01*
X162200000Y-59550000D01*
X162200000Y-59550000D01*
G37*
G36*
X166200000Y-59550000D02*
X163800000Y-59550000D01*
X163800000Y-57450000D01*
X166200000Y-57450000D01*
X166200000Y-59550000D01*
X166200000Y-59550000D01*
G37*
G36*
X135550000Y-58950000D02*
X133450000Y-58950000D01*
X133450000Y-56550000D01*
X135550000Y-56550000D01*
X135550000Y-58950000D01*
X135550000Y-58950000D01*
G37*
G36*
X143500000Y-58650000D02*
X142500000Y-58650000D01*
X142500000Y-56750000D01*
X143500000Y-56750000D01*
X143500000Y-58650000D01*
X143500000Y-58650000D01*
G37*
G36*
X147310000Y-58650000D02*
X146310000Y-58650000D01*
X146310000Y-56750000D01*
X147310000Y-56750000D01*
X147310000Y-58650000D01*
X147310000Y-58650000D01*
G37*
G36*
X146040000Y-58650000D02*
X145040000Y-58650000D01*
X145040000Y-56750000D01*
X146040000Y-56750000D01*
X146040000Y-58650000D01*
X146040000Y-58650000D01*
G37*
G36*
X144770000Y-58650000D02*
X143770000Y-58650000D01*
X143770000Y-56750000D01*
X144770000Y-56750000D01*
X144770000Y-58650000D01*
X144770000Y-58650000D01*
G37*
G36*
X142230000Y-58650000D02*
X141230000Y-58650000D01*
X141230000Y-56750000D01*
X142230000Y-56750000D01*
X142230000Y-58650000D01*
X142230000Y-58650000D01*
G37*
G36*
X139690000Y-58650000D02*
X138690000Y-58650000D01*
X138690000Y-56750000D01*
X139690000Y-56750000D01*
X139690000Y-58650000D01*
X139690000Y-58650000D01*
G37*
G36*
X140960000Y-58650000D02*
X139960000Y-58650000D01*
X139960000Y-56750000D01*
X140960000Y-56750000D01*
X140960000Y-58650000D01*
X140960000Y-58650000D01*
G37*
G36*
X116000000Y-57500000D02*
X114000000Y-57500000D01*
X114000000Y-55500000D01*
X116000000Y-55500000D01*
X116000000Y-57500000D01*
X116000000Y-57500000D01*
G37*
G36*
X118675770Y-55515372D02*
X118791689Y-55538429D01*
X118973678Y-55613811D01*
X119137463Y-55723249D01*
X119276751Y-55862537D01*
X119386189Y-56026322D01*
X119461571Y-56208311D01*
X119500000Y-56401509D01*
X119500000Y-56598491D01*
X119461571Y-56791689D01*
X119386189Y-56973678D01*
X119276751Y-57137463D01*
X119137463Y-57276751D01*
X118973678Y-57386189D01*
X118791689Y-57461571D01*
X118675770Y-57484628D01*
X118598493Y-57500000D01*
X118401507Y-57500000D01*
X118324230Y-57484628D01*
X118208311Y-57461571D01*
X118026322Y-57386189D01*
X117862537Y-57276751D01*
X117723249Y-57137463D01*
X117613811Y-56973678D01*
X117538429Y-56791689D01*
X117500000Y-56598491D01*
X117500000Y-56401509D01*
X117538429Y-56208311D01*
X117613811Y-56026322D01*
X117723249Y-55862537D01*
X117862537Y-55723249D01*
X118026322Y-55613811D01*
X118208311Y-55538429D01*
X118324230Y-55515372D01*
X118401507Y-55500000D01*
X118598493Y-55500000D01*
X118675770Y-55515372D01*
X118675770Y-55515372D01*
G37*
G36*
X170700000Y-56000000D02*
X168300000Y-56000000D01*
X168300000Y-54000000D01*
X170700000Y-54000000D01*
X170700000Y-56000000D01*
X170700000Y-56000000D01*
G37*
G36*
X174700000Y-56000000D02*
X172300000Y-56000000D01*
X172300000Y-54000000D01*
X174700000Y-54000000D01*
X174700000Y-56000000D01*
X174700000Y-56000000D01*
G37*
G36*
X152500000Y-55950000D02*
X150500000Y-55950000D01*
X150500000Y-53550000D01*
X152500000Y-53550000D01*
X152500000Y-55950000D01*
X152500000Y-55950000D01*
G37*
G36*
X156550000Y-55950000D02*
X154450000Y-55950000D01*
X154450000Y-53550000D01*
X156550000Y-53550000D01*
X156550000Y-55950000D01*
X156550000Y-55950000D01*
G37*
G36*
X164325000Y-55830000D02*
X163275000Y-55830000D01*
X163275000Y-53870000D01*
X164325000Y-53870000D01*
X164325000Y-55830000D01*
X164325000Y-55830000D01*
G37*
G36*
X166225000Y-55830000D02*
X165175000Y-55830000D01*
X165175000Y-53870000D01*
X166225000Y-53870000D01*
X166225000Y-55830000D01*
X166225000Y-55830000D01*
G37*
G36*
X131700000Y-55800000D02*
X129300000Y-55800000D01*
X129300000Y-53700000D01*
X131700000Y-53700000D01*
X131700000Y-55800000D01*
X131700000Y-55800000D01*
G37*
G36*
X127700000Y-55800000D02*
X125300000Y-55800000D01*
X125300000Y-53700000D01*
X127700000Y-53700000D01*
X127700000Y-55800000D01*
X127700000Y-55800000D01*
G37*
G36*
X144770000Y-53250000D02*
X143770000Y-53250000D01*
X143770000Y-51350000D01*
X144770000Y-51350000D01*
X144770000Y-53250000D01*
X144770000Y-53250000D01*
G37*
G36*
X146040000Y-53250000D02*
X145040000Y-53250000D01*
X145040000Y-51350000D01*
X146040000Y-51350000D01*
X146040000Y-53250000D01*
X146040000Y-53250000D01*
G37*
G36*
X143500000Y-53250000D02*
X142500000Y-53250000D01*
X142500000Y-51350000D01*
X143500000Y-51350000D01*
X143500000Y-53250000D01*
X143500000Y-53250000D01*
G37*
G36*
X147310000Y-53250000D02*
X146310000Y-53250000D01*
X146310000Y-51350000D01*
X147310000Y-51350000D01*
X147310000Y-53250000D01*
X147310000Y-53250000D01*
G37*
G36*
X139690000Y-53250000D02*
X138690000Y-53250000D01*
X138690000Y-51350000D01*
X139690000Y-51350000D01*
X139690000Y-53250000D01*
X139690000Y-53250000D01*
G37*
G36*
X140960000Y-53250000D02*
X139960000Y-53250000D01*
X139960000Y-51350000D01*
X140960000Y-51350000D01*
X140960000Y-53250000D01*
X140960000Y-53250000D01*
G37*
G36*
X142230000Y-53250000D02*
X141230000Y-53250000D01*
X141230000Y-51350000D01*
X142230000Y-51350000D01*
X142230000Y-53250000D01*
X142230000Y-53250000D01*
G37*
G36*
X166225000Y-53130000D02*
X163275000Y-53130000D01*
X163275000Y-51170000D01*
X166225000Y-51170000D01*
X166225000Y-53130000D01*
X166225000Y-53130000D01*
G37*
G36*
X131550000Y-51950000D02*
X129450000Y-51950000D01*
X129450000Y-49550000D01*
X131550000Y-49550000D01*
X131550000Y-51950000D01*
X131550000Y-51950000D01*
G37*
G36*
X123564646Y-45869533D02*
X123819122Y-45946728D01*
X124053649Y-46072085D01*
X124259213Y-46240787D01*
X124427915Y-46446351D01*
X124553272Y-46680878D01*
X124630467Y-46935354D01*
X124650000Y-47133679D01*
X124650000Y-48466321D01*
X124630467Y-48664646D01*
X124553272Y-48919122D01*
X124427915Y-49153649D01*
X124259212Y-49359213D01*
X124053648Y-49527915D01*
X123819121Y-49653272D01*
X123564645Y-49730467D01*
X123300000Y-49756532D01*
X123035354Y-49730467D01*
X122780878Y-49653272D01*
X122546351Y-49527915D01*
X122340787Y-49359212D01*
X122172085Y-49153648D01*
X122046728Y-48919121D01*
X121969533Y-48664645D01*
X121950000Y-48466320D01*
X121950000Y-47133679D01*
X121969533Y-46935354D01*
X122046728Y-46680878D01*
X122172086Y-46446351D01*
X122340788Y-46240787D01*
X122546352Y-46072085D01*
X122780879Y-45946728D01*
X123035355Y-45869533D01*
X123300000Y-45843468D01*
X123564646Y-45869533D01*
X123564646Y-45869533D01*
G37*
G36*
X118264646Y-45869533D02*
X118519122Y-45946728D01*
X118753649Y-46072085D01*
X118959213Y-46240787D01*
X119127915Y-46446351D01*
X119253272Y-46680878D01*
X119330467Y-46935354D01*
X119350000Y-47133679D01*
X119350000Y-48466321D01*
X119330467Y-48664646D01*
X119253272Y-48919122D01*
X119127915Y-49153649D01*
X118959212Y-49359213D01*
X118753648Y-49527915D01*
X118519121Y-49653272D01*
X118264645Y-49730467D01*
X118000000Y-49756532D01*
X117735354Y-49730467D01*
X117480878Y-49653272D01*
X117246351Y-49527915D01*
X117040787Y-49359212D01*
X116872085Y-49153648D01*
X116746728Y-48919121D01*
X116669533Y-48664645D01*
X116650000Y-48466320D01*
X116650000Y-47133679D01*
X116669533Y-46935354D01*
X116746728Y-46680878D01*
X116872086Y-46446351D01*
X117040788Y-46240787D01*
X117246352Y-46072085D01*
X117480879Y-45946728D01*
X117735355Y-45869533D01*
X118000000Y-45843468D01*
X118264646Y-45869533D01*
X118264646Y-45869533D01*
G37*
G36*
X114964646Y-45869533D02*
X115219122Y-45946728D01*
X115453649Y-46072085D01*
X115659213Y-46240787D01*
X115827915Y-46446351D01*
X115953272Y-46680878D01*
X116030467Y-46935354D01*
X116050000Y-47133679D01*
X116050000Y-48466321D01*
X116030467Y-48664646D01*
X115953272Y-48919122D01*
X115827915Y-49153649D01*
X115659212Y-49359213D01*
X115453648Y-49527915D01*
X115219121Y-49653272D01*
X114964645Y-49730467D01*
X114700000Y-49756532D01*
X114435354Y-49730467D01*
X114180878Y-49653272D01*
X113946351Y-49527915D01*
X113740787Y-49359212D01*
X113572085Y-49153648D01*
X113446728Y-48919121D01*
X113369533Y-48664645D01*
X113350000Y-48466320D01*
X113350000Y-47133679D01*
X113369533Y-46935354D01*
X113446728Y-46680878D01*
X113572086Y-46446351D01*
X113740788Y-46240787D01*
X113946352Y-46072085D01*
X114180879Y-45946728D01*
X114435355Y-45869533D01*
X114700000Y-45843468D01*
X114964646Y-45869533D01*
X114964646Y-45869533D01*
G37*
G36*
X131550000Y-47950000D02*
X129450000Y-47950000D01*
X129450000Y-45550000D01*
X131550000Y-45550000D01*
X131550000Y-47950000D01*
X131550000Y-47950000D01*
G37*
G36*
X139411925Y-42685948D02*
X139492102Y-42701896D01*
X139554669Y-42727813D01*
X139643151Y-42764463D01*
X139779097Y-42855299D01*
X139894701Y-42970903D01*
X139985537Y-43106849D01*
X140022187Y-43195331D01*
X140048104Y-43257898D01*
X140080000Y-43418252D01*
X140080000Y-43581748D01*
X140056479Y-43700000D01*
X140048104Y-43742101D01*
X139985537Y-43893151D01*
X139894701Y-44029097D01*
X139779097Y-44144701D01*
X139643151Y-44235537D01*
X139554669Y-44272187D01*
X139492102Y-44298104D01*
X139411925Y-44314052D01*
X139331749Y-44330000D01*
X139168251Y-44330000D01*
X139088075Y-44314052D01*
X139007898Y-44298104D01*
X138945331Y-44272187D01*
X138856849Y-44235537D01*
X138720903Y-44144701D01*
X138605299Y-44029097D01*
X138514463Y-43893151D01*
X138451896Y-43742101D01*
X138443522Y-43700000D01*
X138420000Y-43581748D01*
X138420000Y-43418252D01*
X138451896Y-43257898D01*
X138477813Y-43195331D01*
X138514463Y-43106849D01*
X138605299Y-42970903D01*
X138720903Y-42855299D01*
X138856849Y-42764463D01*
X138945331Y-42727813D01*
X139007898Y-42701896D01*
X139088075Y-42685948D01*
X139168251Y-42670000D01*
X139331749Y-42670000D01*
X139411925Y-42685948D01*
X139411925Y-42685948D01*
G37*
G36*
X144491925Y-42685948D02*
X144572102Y-42701896D01*
X144634669Y-42727813D01*
X144723151Y-42764463D01*
X144859097Y-42855299D01*
X144974701Y-42970903D01*
X145065537Y-43106849D01*
X145102187Y-43195331D01*
X145128104Y-43257898D01*
X145160000Y-43418252D01*
X145160000Y-43581748D01*
X145136479Y-43700000D01*
X145128104Y-43742101D01*
X145065537Y-43893151D01*
X144974701Y-44029097D01*
X144859097Y-44144701D01*
X144723151Y-44235537D01*
X144634669Y-44272187D01*
X144572102Y-44298104D01*
X144491925Y-44314052D01*
X144411749Y-44330000D01*
X144248251Y-44330000D01*
X144168075Y-44314052D01*
X144087898Y-44298104D01*
X144025331Y-44272187D01*
X143936849Y-44235537D01*
X143800903Y-44144701D01*
X143685299Y-44029097D01*
X143594463Y-43893151D01*
X143531896Y-43742101D01*
X143523522Y-43700000D01*
X143500000Y-43581748D01*
X143500000Y-43418252D01*
X143531896Y-43257898D01*
X143557813Y-43195331D01*
X143594463Y-43106849D01*
X143685299Y-42970903D01*
X143800903Y-42855299D01*
X143936849Y-42764463D01*
X144025331Y-42727813D01*
X144087898Y-42701896D01*
X144168075Y-42685948D01*
X144248251Y-42670000D01*
X144411749Y-42670000D01*
X144491925Y-42685948D01*
X144491925Y-42685948D01*
G37*
G36*
X114564646Y-38419533D02*
X114819122Y-38496728D01*
X115053649Y-38622085D01*
X115259213Y-38790787D01*
X115427915Y-38996351D01*
X115553272Y-39230878D01*
X115630467Y-39485354D01*
X115650000Y-39683679D01*
X115650000Y-40796106D01*
X115652402Y-40820492D01*
X115659515Y-40843941D01*
X115671066Y-40865552D01*
X115686612Y-40884494D01*
X115705554Y-40900040D01*
X115727165Y-40911591D01*
X115750614Y-40918704D01*
X115775000Y-40921106D01*
X115799386Y-40918704D01*
X115822835Y-40911591D01*
X115844446Y-40900040D01*
X115863388Y-40884494D01*
X115878934Y-40865552D01*
X115890485Y-40843941D01*
X116050384Y-40457910D01*
X116291150Y-40097579D01*
X116597579Y-39791150D01*
X116957910Y-39550384D01*
X117358284Y-39384544D01*
X117783317Y-39300000D01*
X118216683Y-39300000D01*
X118641716Y-39384544D01*
X119042090Y-39550384D01*
X119402421Y-39791150D01*
X119708850Y-40097579D01*
X119949616Y-40457910D01*
X120115456Y-40858284D01*
X120200000Y-41283317D01*
X120200000Y-41716683D01*
X120115456Y-42141716D01*
X119949616Y-42542090D01*
X119708850Y-42902421D01*
X119402421Y-43208850D01*
X119042090Y-43449616D01*
X118641716Y-43615456D01*
X118216683Y-43700000D01*
X117783317Y-43700000D01*
X117358284Y-43615456D01*
X116957910Y-43449616D01*
X116597579Y-43208850D01*
X116291150Y-42902421D01*
X116050384Y-42542090D01*
X115884544Y-42141716D01*
X115805942Y-41746555D01*
X115798829Y-41723106D01*
X115787278Y-41701495D01*
X115771732Y-41682553D01*
X115752790Y-41667007D01*
X115731180Y-41655456D01*
X115707730Y-41648343D01*
X115683344Y-41645941D01*
X115658958Y-41648343D01*
X115635509Y-41655456D01*
X115613898Y-41667007D01*
X115594956Y-41682553D01*
X115579410Y-41701495D01*
X115567859Y-41723105D01*
X115563734Y-41734634D01*
X115553272Y-41769122D01*
X115427915Y-42003649D01*
X115259212Y-42209213D01*
X115053648Y-42377915D01*
X114819121Y-42503272D01*
X114564645Y-42580467D01*
X114300000Y-42606532D01*
X114035354Y-42580467D01*
X113780878Y-42503272D01*
X113546351Y-42377915D01*
X113340787Y-42209212D01*
X113172085Y-42003648D01*
X113046728Y-41769121D01*
X112969533Y-41514645D01*
X112950000Y-41316320D01*
X112950000Y-39683679D01*
X112969533Y-39485354D01*
X113046729Y-39230878D01*
X113172086Y-38996351D01*
X113340788Y-38790787D01*
X113546352Y-38622085D01*
X113780879Y-38496728D01*
X114035355Y-38419533D01*
X114300000Y-38393468D01*
X114564646Y-38419533D01*
X114564646Y-38419533D01*
G37*
G36*
X124464646Y-38419533D02*
X124719122Y-38496728D01*
X124953649Y-38622085D01*
X125159213Y-38790787D01*
X125327915Y-38996351D01*
X125453272Y-39230878D01*
X125530467Y-39485354D01*
X125550000Y-39683679D01*
X125550000Y-41316321D01*
X125530467Y-41514646D01*
X125453272Y-41769122D01*
X125327915Y-42003649D01*
X125159212Y-42209213D01*
X124953648Y-42377915D01*
X124719121Y-42503272D01*
X124464645Y-42580467D01*
X124200000Y-42606532D01*
X123935354Y-42580467D01*
X123680878Y-42503272D01*
X123446351Y-42377915D01*
X123240787Y-42209212D01*
X123072085Y-42003648D01*
X122946728Y-41769121D01*
X122869533Y-41514645D01*
X122850000Y-41316320D01*
X122850000Y-39683679D01*
X122869533Y-39485354D01*
X122946729Y-39230878D01*
X123072086Y-38996351D01*
X123240788Y-38790787D01*
X123446352Y-38622085D01*
X123680879Y-38496728D01*
X123935355Y-38419533D01*
X124200000Y-38393468D01*
X124464646Y-38419533D01*
X124464646Y-38419533D01*
G37*
G36*
X188252481Y-39469855D02*
X188452118Y-39509565D01*
X188640173Y-39587460D01*
X188734201Y-39626408D01*
X188988071Y-39796038D01*
X189203962Y-40011929D01*
X189373592Y-40265799D01*
X189394095Y-40315299D01*
X189490435Y-40547882D01*
X189524253Y-40717898D01*
X189539810Y-40796106D01*
X189550000Y-40847338D01*
X189550000Y-41152662D01*
X189490435Y-41452118D01*
X189427232Y-41604703D01*
X189373592Y-41734201D01*
X189203962Y-41988071D01*
X188988071Y-42203962D01*
X188734201Y-42373592D01*
X188640173Y-42412540D01*
X188452118Y-42490435D01*
X188252481Y-42530145D01*
X188152663Y-42550000D01*
X187847337Y-42550000D01*
X187747519Y-42530145D01*
X187547882Y-42490435D01*
X187359827Y-42412540D01*
X187265799Y-42373592D01*
X187011929Y-42203962D01*
X186796038Y-41988071D01*
X186626408Y-41734201D01*
X186572768Y-41604703D01*
X186509565Y-41452118D01*
X186450000Y-41152662D01*
X186450000Y-40847338D01*
X186460191Y-40796106D01*
X186475747Y-40717898D01*
X186509565Y-40547882D01*
X186605905Y-40315299D01*
X186626408Y-40265799D01*
X186796038Y-40011929D01*
X187011929Y-39796038D01*
X187265799Y-39626408D01*
X187359827Y-39587460D01*
X187547882Y-39509565D01*
X187747519Y-39469855D01*
X187847337Y-39450000D01*
X188152663Y-39450000D01*
X188252481Y-39469855D01*
X188252481Y-39469855D01*
G37*
G36*
X109252481Y-39469855D02*
X109452118Y-39509565D01*
X109640173Y-39587460D01*
X109734201Y-39626408D01*
X109988071Y-39796038D01*
X110203962Y-40011929D01*
X110373592Y-40265799D01*
X110394095Y-40315299D01*
X110490435Y-40547882D01*
X110524253Y-40717898D01*
X110539810Y-40796106D01*
X110550000Y-40847338D01*
X110550000Y-41152662D01*
X110490435Y-41452118D01*
X110427232Y-41604703D01*
X110373592Y-41734201D01*
X110203962Y-41988071D01*
X109988071Y-42203962D01*
X109734201Y-42373592D01*
X109640173Y-42412540D01*
X109452118Y-42490435D01*
X109252481Y-42530145D01*
X109152663Y-42550000D01*
X108847337Y-42550000D01*
X108747519Y-42530145D01*
X108547882Y-42490435D01*
X108359827Y-42412540D01*
X108265799Y-42373592D01*
X108011929Y-42203962D01*
X107796038Y-41988071D01*
X107626408Y-41734201D01*
X107572768Y-41604703D01*
X107509565Y-41452118D01*
X107450000Y-41152662D01*
X107450000Y-40847338D01*
X107460191Y-40796106D01*
X107475747Y-40717898D01*
X107509565Y-40547882D01*
X107605905Y-40315299D01*
X107626408Y-40265799D01*
X107796038Y-40011929D01*
X108011929Y-39796038D01*
X108265799Y-39626408D01*
X108359827Y-39587460D01*
X108547882Y-39509565D01*
X108747519Y-39469855D01*
X108847337Y-39450000D01*
X109152663Y-39450000D01*
X109252481Y-39469855D01*
X109252481Y-39469855D01*
G37*
G36*
X135700000Y-42050000D02*
X133300000Y-42050000D01*
X133300000Y-39950000D01*
X135700000Y-39950000D01*
X135700000Y-42050000D01*
X135700000Y-42050000D01*
G37*
G36*
X131700000Y-42050000D02*
X129300000Y-42050000D01*
X129300000Y-39950000D01*
X131700000Y-39950000D01*
X131700000Y-42050000D01*
X131700000Y-42050000D01*
G37*
G36*
X141951925Y-40145948D02*
X142032102Y-40161896D01*
X142094669Y-40187813D01*
X142183151Y-40224463D01*
X142319097Y-40315299D01*
X142434701Y-40430903D01*
X142525537Y-40566849D01*
X142588104Y-40717899D01*
X142620000Y-40878251D01*
X142620000Y-41041749D01*
X142588104Y-41202101D01*
X142525537Y-41353151D01*
X142434701Y-41489097D01*
X142319097Y-41604701D01*
X142183151Y-41695537D01*
X142094669Y-41732187D01*
X142032102Y-41758104D01*
X141976715Y-41769121D01*
X141871749Y-41790000D01*
X141708251Y-41790000D01*
X141603285Y-41769121D01*
X141547898Y-41758104D01*
X141485331Y-41732187D01*
X141396849Y-41695537D01*
X141260903Y-41604701D01*
X141145299Y-41489097D01*
X141054463Y-41353151D01*
X140991896Y-41202101D01*
X140960000Y-41041749D01*
X140960000Y-40878251D01*
X140991896Y-40717899D01*
X141054463Y-40566849D01*
X141145299Y-40430903D01*
X141260903Y-40315299D01*
X141396849Y-40224463D01*
X141485331Y-40187813D01*
X141547898Y-40161896D01*
X141628075Y-40145948D01*
X141708251Y-40130000D01*
X141871749Y-40130000D01*
X141951925Y-40145948D01*
X141951925Y-40145948D01*
G37*
M02*
