M48
;DRILL file {KiCad (5.0.2)-1} date 3/5/2019 4:27:44 PM
;FORMAT={-:-/ absolute / inch / decimal}
FMAT,2
INCH,TZ
T1C0.0256
T2C0.0276
T3C0.0315
T4C0.0354
T5C0.0433
T6C0.0984
%
G90
G05
T1
X5.6299Y-1.9685
X5.6398Y-3.3661
X5.6398Y-4.7638
X5.8858Y-2.0591
X5.8858Y-3.4528
X5.8957Y-4.8425
X6.0433Y-2.0591
X6.0531Y-4.8425
X6.0551Y-3.4528
X6.4862Y-1.9587
X6.4961Y-3.3465
X6.4961Y-4.7441
X6.9488Y-4.9508
T2
X5.4921Y-4.5177
X5.5921Y-4.4177
X5.6921Y-4.5177
X6.5043Y-2.5492
X6.6043Y-2.6492
X6.7043Y-2.5492
X6.5142Y-3.9469
X6.6142Y-4.0469
X6.7142Y-3.9469
X6.5142Y-5.3346
X6.6142Y-5.4346
X6.7142Y-5.3346
X5.4823Y-1.7126
X5.5823Y-1.6126
X5.6823Y-1.7126
X5.4921Y-3.1201
X5.5921Y-3.0201
X5.6921Y-3.1201
T3
X4.5276Y-2.2244
X4.6654Y-2.2244
T4
X4.9803Y-2.5984
X4.9902Y-4.0059
X4.9902Y-5.3937
X5.1378Y-1.7224
X5.1476Y-4.5177
X5.1575Y-3.1299
X5.4528Y-2.5394
X5.4626Y-3.937
X5.4626Y-5.315
X5.6102Y-2.5394
X5.6102Y-2.8642
X5.6201Y-3.937
X5.6201Y-4.252
X5.6201Y-5.315
X5.622Y-5.6457
X6.122Y-2.4902
X6.1319Y-3.8878
X6.1319Y-5.2756
X6.9488Y-2.1654
X6.9587Y-3.563
T5
X4.3307Y-3.45
X4.3307Y-3.55
X4.3307Y-3.65
X4.3307Y-3.7516
X4.3307Y-3.8516
X4.3307Y-3.9516
X4.5276Y-3.45
X4.5276Y-3.55
X4.5276Y-3.65
X4.5276Y-3.7516
X4.5276Y-3.8516
X4.5276Y-3.9516
X7.1654Y-4.1193
X7.1654Y-4.2193
X7.1654Y-4.3193
X7.1654Y-4.4209
X7.1654Y-4.5209
X7.1654Y-4.6209
X7.3622Y-4.1193
X7.3622Y-4.2193
X7.3622Y-4.3193
X7.3622Y-4.4209
X7.3622Y-4.5209
X7.3622Y-4.6209
X7.1654Y-2.6626
X7.1654Y-2.7626
X7.1654Y-2.8626
X7.1654Y-2.9642
X7.1654Y-3.0642
X7.1654Y-3.1642
X7.3622Y-2.6626
X7.3622Y-2.7626
X7.3622Y-2.8626
X7.3622Y-2.9642
X7.3622Y-3.0642
X7.3622Y-3.1642
T6
X4.6457Y-1.6339
T3
X4.5Y-1.565G85X4.5Y-1.624
G05
X4.5157Y-1.8583G85X4.5157Y-1.9055
G05
X4.6457Y-1.8583G85X4.6457Y-1.9055
G05
X4.8543Y-1.8583G85X4.8543Y-1.9055
G05
X4.8898Y-1.565G85X4.8898Y-1.624
G05
T0
M30
