<?xml version="1.0" encoding="UTF-8" standalone="no"?>
<!-- Created with Inkscape (http://www.inkscape.org/) -->

<svg
   xmlns:dc="http://purl.org/dc/elements/1.1/"
   xmlns:cc="http://creativecommons.org/ns#"
   xmlns:rdf="http://www.w3.org/1999/02/22-rdf-syntax-ns#"
   xmlns:svg="http://www.w3.org/2000/svg"
   xmlns="http://www.w3.org/2000/svg"
   xmlns:sodipodi="http://sodipodi.sourceforge.net/DTD/sodipodi-0.dtd"
   xmlns:inkscape="http://www.inkscape.org/namespaces/inkscape"
   width="210mm"
   height="297mm"
   viewBox="0 0 744.09448819 1052.3622047"
   id="svg3600"
   version="1.1"
   inkscape:version="0.91 r13725"
   sodipodi:docname="lick_enclosure.svg">
  <defs
     id="defs3602" />
  <sodipodi:namedview
     id="base"
     pagecolor="#ffffff"
     bordercolor="#666666"
     borderopacity="1.0"
     inkscape:pageopacity="0.0"
     inkscape:pageshadow="2"
     inkscape:zoom="1.979899"
     inkscape:cx="325.24876"
     inkscape:cy="870.41998"
     inkscape:document-units="px"
     inkscape:current-layer="layer1"
     showgrid="false"
     inkscape:window-width="1920"
     inkscape:window-height="1143"
     inkscape:window-x="0"
     inkscape:window-y="27"
     inkscape:window-maximized="1" />
  <metadata
     id="metadata3605">
    <rdf:RDF>
      <cc:Work
         rdf:about="">
        <dc:format>image/svg+xml</dc:format>
        <dc:type
           rdf:resource="http://purl.org/dc/dcmitype/StillImage" />
        <dc:title></dc:title>
      </cc:Work>
    </rdf:RDF>
  </metadata>
  <g
     inkscape:label="Layer 1"
     inkscape:groupmode="layer"
     id="layer1">
    <g
       id="g124"
       transform="matrix(1.25,0,0,-1.25,158.16893,74.523747)" />
    <g
       id="g128"
       transform="matrix(1.25,0,0,-1.25,153.7398,78.952877)" />
    <g
       id="g132"
       transform="matrix(1.25,0,0,-1.25,158.16893,83.381997)" />
    <g
       id="g136"
       transform="matrix(1.25,0,0,-1.25,162.59818,78.952877)" />
    <g
       id="g144"
       transform="matrix(1.25,0,0,-1.25,334.44856,78.952877)" />
    <g
       id="g148"
       transform="matrix(1.25,0,0,-1.25,338.87768,83.381997)" />
    <g
       id="g156"
       transform="matrix(1.25,0,0,-1.25,158.16893,214.48437)" />
    <g
       id="g160"
       transform="matrix(1.25,0,0,-1.25,153.7398,218.9135)" />
    <g
       id="g164"
       transform="matrix(1.25,0,0,-1.25,158.16893,223.34262)" />
    <g
       id="g168"
       transform="matrix(1.25,0,0,-1.25,162.59818,218.9135)" />
    <g
       id="g172"
       transform="matrix(1.25,0,0,-1.25,338.87768,214.48437)" />
    <g
       id="g176"
       transform="matrix(1.25,0,0,-1.25,334.44856,218.9135)" />
    <g
       id="g180"
       transform="matrix(1.25,0,0,-1.25,338.87768,223.34262)" />
    <g
       id="g184"
       transform="matrix(1.25,0,0,-1.25,343.3068,218.9135)" />
    <g
       id="g188"
       transform="matrix(1.25,0,0,-1.25,158.13393,78.998747)" />
    <g
       id="g196"
       transform="matrix(1.25,0,0,-1.25,152.05902,180.46574)">
      <path
         d="m 0,0 0,4.5 m 0,0 -56.7,0 m 0,0 0,-4.5 m -14.2,0 0,4.5 m 0,0 -36.8,0 m 0,126.2 36.8,0 m 0,0 0,4.5 m 14.2,0 0,-4.5 m 0,0 56.7,0 m 0,0 0,4.5 m 14.2,0 0,-4.5 m 0,0 36.8,0 M 51,4.5 14.2,4.5 m 0,0 0,-4.5 m -114.8,121.7 0.5,0.1 0.5,0.2 0.4,0.3 0.3,0.5 0.2,0.5 0,0.6 -0.2,0.5 -0.3,0.4 -0.4,0.4 -0.5,0.2 -0.5,0.1 -0.6,-0.1 -0.5,-0.2 -0.4,-0.4 -0.3,-0.4 -0.1,-0.5 0,-0.6 0.1,-0.5 0.3,-0.5 0.4,-0.3 0.5,-0.2 0.6,-0.1 m 144.5,0 0.6,0.1 0.5,0.2 0.4,0.3 0.3,0.5 0.1,0.5 0,0.6 -0.1,0.5 -0.3,0.4 -0.4,0.4 -0.5,0.2 -0.6,0.1 -0.5,-0.1 -0.5,-0.2 -0.4,-0.4 -0.3,-0.4 -0.1,-0.5 0,-0.6 0.1,-0.5 0.3,-0.5 0.4,-0.3 0.5,-0.2 0.5,-0.1 m -144.5,-112 0.5,0.1 0.5,0.2 0.4,0.4 0.3,0.4 0.2,0.5 0,0.6 -0.2,0.5 -0.3,0.5 -0.4,0.3 -0.5,0.3 -0.5,0 -0.6,0 -0.5,-0.3 -0.4,-0.3 -0.3,-0.5 -0.1,-0.5 0,-0.6 0.1,-0.5 0.3,-0.4 0.4,-0.4 0.5,-0.2 0.6,-0.1 m 144.5,0 0.6,0.1 0.5,0.2 0.4,0.4 0.3,0.4 0.1,0.5 0,0.6 -0.1,0.5 -0.3,0.5 -0.4,0.3 -0.5,0.3 -0.6,0 -0.5,0 -0.5,-0.3 -0.4,-0.3 -0.3,-0.5 -0.1,-0.5 0,-0.6 0.1,-0.5 0.3,-0.4 0.4,-0.4 0.5,-0.2 0.5,-0.1 M 0,0 14.2,0 m -121.9,130.7 0,-126.2 M 14.2,135.2 0,135.2 M 51,4.5 51,130.7 m -107.7,4.5 -14.2,0 m 0,-135.2 14.2,0"
         style="fill:none;stroke:#000000;stroke-width:0.28629922;stroke-linecap:round;stroke-linejoin:round;stroke-miterlimit:10;stroke-dasharray:none;stroke-opacity:1"
         id="path198"
         inkscape:connector-curvature="0" />
    </g>
    <g
       id="g200"
       transform="matrix(1.25,0,0,-1.25,384.30902,180.46574)"
       style="stroke-width:0.28629922;stroke-miterlimit:10;stroke-dasharray:none">
      <path
         d="m 0,0 0,4.5 m 0,0 -56.7,0 m 0,0 0,-4.5 m -14.2,0 14.2,0 m -14.2,0 0,4.5 m 0,0 -36.8,0 m -4.5,56 0,14.2 m 0,0 4.5,0 m 0,56 36.8,0 m 0,0 0,4.5 m 14.2,0 -14.2,0 m 14.2,0 0,-4.5 m 0,0 56.7,0 m 0,0 0,4.5 m 14.2,0 -14.2,0 m 14.2,0 0,-4.5 m 0,0 36.8,0 m 4.5,-56 0,-14.2 M 51,4.5 14.2,4.5 m 0,0 0,-4.5 M 0,0 14.2,0 m 41.3,74.7 -4.5,0 m 4.5,-14.2 -4.5,0 m -163.2,0 4.5,0 m 0,0 0,-56 m 0,126.2 0,-56 m 158.7,0 0,56 m 0,-126.2 0,56"
         style="fill:none;stroke:#000000;stroke-width:0.28629922;stroke-linecap:round;stroke-linejoin:round;stroke-miterlimit:10;stroke-dasharray:none;stroke-opacity:1"
         id="path202"
         inkscape:connector-curvature="0" />
    </g>
    <g
       id="g204"
       transform="matrix(1.25,0,0,-1.25,226.80902,195.46574)"
       style="stroke-width:0.28629922;stroke-miterlimit:10;stroke-dasharray:none">
      <path
         d="M 0,0 -0.1,0.6 -0.2,1.1 -0.5,1.6 -0.8,2 -1.3,2.4 -1.8,2.6 -2.3,2.8 -2.9,2.9 M 0,-1.1 0,0 m -1.3,-3.5 0.3,0.2 0.2,0.2 0.2,0.3 0.2,0.3 0.2,0.3 0.1,0.4 0.1,0.3 0,0.4 m -1.3,-2.4 -6.1,-3.9 m -1.4,-2.4 0.1,0.4 0,0.3 0.1,0.4 0.2,0.3 0.2,0.3 0.2,0.3 0.3,0.2 0.3,0.2 m -1.4,-2.4 0,-15.7 m -0.6,-0.7 0.1,0 0.1,0.1 0.2,0 0,0.1 0.1,0.1 0.1,0.2 0,0.1 0,0.1 m -0.6,-0.7 -1.7,-0.1 -1.3,-0.2 -1.1,-0.1 -0.8,-0.1 -0.7,-0.1 -0.6,-0.1 -0.5,-0.1 -1.8,-0.4 -1.9,-0.6 -2.5,-0.8 -2.3,-1 -2.1,-0.9 -1.8,-0.7 -1.8,-0.7 -1.8,-0.6 -1.9,-0.4 -2.1,-0.3 -2.4,-0.1 m 30.5,4 -0.2,0.1 -0.2,0.1 -0.2,0.1 -0.2,0.1 -0.2,0 -0.3,0 -0.2,0.1 -0.2,-0.1 m 1.7,-0.4 6.7,-4.2 m 1.3,-2.4 0,0.4 -0.1,0.3 -0.1,0.4 -0.2,0.3 -0.2,0.3 -0.2,0.3 -0.2,0.2 -0.3,0.2 m 1.3,-3.5 0,1.1 m -2.9,-3.9 0.6,0 0.5,0.2 0.5,0.3 0.5,0.3 0.3,0.4 0.3,0.5 0.1,0.6 0.1,0.5 m -2.9,-2.8 -0.7,0 m -0.7,0.7 0,-0.2 0.1,-0.1 0.1,-0.1 0,-0.1 0.1,-0.1 0.2,-0.1 0.1,0 0.1,0 m -0.7,0.7 0,1.8 m 0,0 -4.5,0 m 0,0 0,-3.8 m -0.7,-0.7 0.2,0 0.1,0.1 0.1,0 0.1,0.1 0.1,0.1 0.1,0.2 0,0.1 0,0.1 m -158,-0.7 157.3,0 m -158,0.7 0,-0.1 0,-0.1 0.1,-0.2 0.1,-0.1 0.1,-0.1 0.1,0 0.2,-0.1 0.1,0 m -0.7,0.7 0,3.8 m 0,0 -4.5,0 m 0,0 0,-1.8 m -0.7,-0.7 0.1,0 0.2,0 0.1,0.1 0.1,0.1 0.1,0.1 0,0.1 0.1,0.1 0,0.2 m -0.7,-0.7 -0.7,0 m -2.9,2.8 0.1,-0.5 0.2,-0.6 0.2,-0.5 0.4,-0.4 0.4,-0.3 0.5,-0.3 0.5,-0.2 0.6,0 m -2.9,3.9 0,-1.1 m 1.4,3.5 -0.3,-0.2 -0.3,-0.2 -0.2,-0.3 -0.2,-0.3 -0.2,-0.3 -0.1,-0.4 0,-0.3 -0.1,-0.4 m 1.4,2.4 6.6,4.2 m 1.8,0.4 -0.3,0.1 -0.2,-0.1 -0.2,0 -0.3,0 -0.2,-0.1 -0.2,-0.1 -0.2,-0.1 -0.2,-0.1 m 1.8,0.4 1.5,-0.1 1.3,-0.1 1,-0.1 0.7,-0.1 0.6,-0.1 0.5,-0.1 0.5,-0.1 1,-0.3 1.1,-0.3 1.3,-0.4 3.4,-1.2 3.1,-1.3 1.8,-0.8 1.9,-0.7 2,-0.7 2.1,-0.4 2.4,-0.3 2.6,-0.1 m 0.3,0 -0.3,0 m 0.3,0 0.4,0.1 0.4,0.3 0.3,0.3 0.1,0.4 0,0.5 -0.1,0.4 -0.2,0.4 -0.4,0.3 -0.4,0.1 -0.4,0 m -29.2,7.3 1.7,-0.1 1.3,-0.2 1.1,-0.1 0.8,-0.1 0.7,-0.1 0.6,-0.1 0.6,-0.1 1.7,-0.4 1.9,-0.6 2.5,-0.8 2.3,-1 2.1,-0.9 1.8,-0.7 1.8,-0.7 1.8,-0.6 1.9,-0.4 2.1,-0.3 2.5,-0.1 m -29.8,8 0,-0.1 0,-0.1 0.1,-0.2 0.1,-0.1 0.1,-0.1 0.1,0 0.1,-0.1 0.1,0 m -0.6,0.7 0,15.7 m -1.3,2.4 0.3,-0.2 0.2,-0.2 0.2,-0.3 0.2,-0.3 0.2,-0.3 0.1,-0.4 0.1,-0.3 0,-0.4 m -1.3,2.4 -6.1,3.9 m -1.4,2.4 0.1,-0.4 0,-0.3 0.1,-0.4 0.2,-0.3 0.2,-0.3 0.2,-0.3 0.3,-0.2 0.3,-0.2 m -1.4,3.5 0,-1.1 m 2.9,4 -0.6,-0.1 -0.5,-0.2 -0.5,-0.2 -0.4,-0.4 -0.4,-0.4 -0.2,-0.5 -0.2,-0.5 -0.1,-0.6 m 2.9,2.9 0.7,0 m 0.7,-0.8 0,0.2 -0.1,0.1 0,0.1 -0.1,0.1 -0.1,0.1 -0.1,0.1 -0.2,0 -0.1,0.1 m 0.7,-0.8 0,-1.8 m 0,0 4.5,0 m 0,0 0,3.8 m 0.7,0.7 -0.1,0 -0.2,-0.1 -0.1,0 -0.1,-0.1 -0.1,-0.1 -0.1,-0.1 0,-0.2 0,-0.1 m 36.1,0.7 -35.4,0 m 36.1,-0.7 0,0.1 0,0.2 -0.1,0.1 -0.1,0.1 -0.1,0.1 -0.1,0 -0.1,0.1 -0.2,0 m 0.7,-0.7 0,-3.8 m 0,0 14.2,0 m 0,0 0,3.8 m 0.7,0.7 -0.1,0 -0.1,-0.1 -0.2,0 -0.1,-0.1 -0.1,-0.1 0,-0.1 -0.1,-0.2 0,-0.1 m 56,0.7 -55.3,0 m 56,-0.7 0,0.1 0,0.2 -0.1,0.1 -0.1,0.1 -0.1,0.1 -0.1,0 -0.2,0.1 -0.1,0 m 0.7,-0.7 0,-3.8 m 0,0 14.2,0 m 0,0 0,3.8 m 0.7,0.7 -0.1,0 -0.2,-0.1 -0.1,0 -0.1,-0.1 -0.1,-0.1 -0.1,-0.1 0,-0.2 0,-0.1 m 36.1,0.7 -35.4,0 m 36.1,-0.7 0,0.1 0,0.2 -0.1,0.1 -0.1,0.1 -0.1,0.1 -0.1,0 -0.1,0.1 -0.2,0 m 0.7,-0.7 0,-3.8 m 0,0 4.5,0 m 0,0 0,1.8 m 0.7,0.8 -0.1,-0.1 -0.1,0 -0.2,-0.1 -0.1,-0.1 0,-0.1 -0.1,-0.1 -0.1,-0.1 0,-0.2 m 0.7,0.8 0.7,0 m -113.6,-42 0,4.5 m 0,0 -14.2,0 m 0,0 0,-4.5 m 0,0 14.2,0 m 70.9,0 0,4.5 m 0,0 -14.2,0 m 0,0 0,-4.5 m 0,0 14.2,0 m -28.4,14.5 0,-0.1 0,-0.1 -0.1,-0.2 -0.1,-0.1 -0.1,-0.1 -0.1,0 -0.1,-0.1 -0.2,0 m 0.7,0.7 0,21.3 m -0.7,0.7 0.2,0 0.1,-0.1 0.1,0 0.1,-0.1 0.1,-0.1 0.1,-0.1 0,-0.2 0,-0.1 m -0.7,0.7 -26.9,0 m -0.7,-0.7 0,0.1 0,0.2 0.1,0.1 0.1,0.1 0.1,0.1 0.1,0 0.2,0.1 0.1,0 m -0.7,-0.7 0,-21.3 m 0.7,-0.7 -0.1,0 -0.2,0.1 -0.1,0 -0.1,0.1 -0.1,0.1 -0.1,0.2 0,0.1 0,0.1 m 0.7,-0.7 26.9,0 m 65,-3.8 -1.6,-0.1 -1.3,-0.1 -1,-0.1 -0.7,-0.1 -0.6,-0.1 -0.5,-0.1 -0.5,-0.1 -0.9,-0.3 -1.2,-0.3 -1.2,-0.4 -3.4,-1.2 -3.2,-1.3 -1.8,-0.8 -1.9,-0.7 -1.9,-0.7 -2.2,-0.4 -2.4,-0.3 -2.6,-0.1 m 0,0 -0.3,0 m 0.4,2.8 -0.5,0 -0.4,-0.1 -0.3,-0.3 -0.3,-0.4 -0.1,-0.4 0,-0.5 0.2,-0.4 0.2,-0.3 0.4,-0.3 0.4,-0.1"
         style="fill:none;stroke:#000000;stroke-width:0.28629922;stroke-linecap:round;stroke-linejoin:round;stroke-miterlimit:10;stroke-dasharray:none;stroke-opacity:1"
         id="path206"
         inkscape:connector-curvature="0" />
    </g>
    <g
       id="g208"
       transform="matrix(1.25,0,0,-1.25,459.05902,195.46574)"
       style="stroke-width:0.28629922;stroke-miterlimit:10;stroke-dasharray:none">
      <path
         d="M 0,0 -0.1,0.6 -0.3,1.1 -0.5,1.6 -0.9,2 -1.3,2.4 -1.8,2.6 -2.3,2.8 -2.9,2.9 M 0,-1.1 0,0 m -1.4,-3.5 0.3,0.2 0.3,0.2 0.2,0.3 0.2,0.3 0.2,0.3 0.1,0.4 0,0.3 0.1,0.4 m -1.4,-2.4 -6.1,-3.9 m -1.3,-2.4 0,0.4 0.1,0.3 0.1,0.4 0.2,0.3 0.1,0.3 0.3,0.3 0.2,0.2 0.3,0.2 m -1.3,-2.4 0,-15.7 m -0.6,-0.7 0.1,0 0.1,0.1 0.1,0 0.1,0.1 0.1,0.1 0.1,0.2 0,0.1 0,0.1 m -0.6,-0.7 -1.7,-0.1 -1.3,-0.2 -1.1,-0.1 -0.8,-0.1 -0.7,-0.1 -0.6,-0.1 -0.6,-0.1 -1.7,-0.4 -1.9,-0.6 -2.5,-0.8 -2.3,-1 -2.2,-0.9 -1.7,-0.7 -1.8,-0.7 -1.8,-0.6 -1.9,-0.4 -2.2,-0.3 -2.4,-0.1 m 28.8,4.4 -1.5,-0.1 -1.3,-0.1 -1,-0.1 -0.7,-0.1 -0.6,-0.1 -0.5,-0.1 -0.5,-0.1 -1,-0.3 -1.1,-0.3 -1.3,-0.4 -3.4,-1.2 -3.1,-1.3 -1.8,-0.8 -1.9,-0.7 -2,-0.7 -2.1,-0.4 -2.4,-0.3 -2.6,-0.1 m 30.6,6.8 -0.2,0.1 -0.2,0.1 -0.2,0.1 -0.2,0.1 -0.3,0 -0.2,0 -0.2,0.1 -0.3,-0.1 m 1.8,-0.4 6.6,-4.2 m 1.4,-2.4 -0.1,0.4 0,0.3 -0.1,0.4 -0.2,0.3 -0.2,0.3 -0.2,0.3 -0.3,0.2 -0.3,0.2 m 1.4,-3.5 0,1.1 m -2.9,-3.9 0.6,0 0.5,0.2 0.5,0.3 0.4,0.3 0.4,0.4 0.2,0.5 0.2,0.6 0.1,0.5 m -2.9,-2.8 -0.7,0 m -0.7,0.7 0,-0.2 0.1,-0.1 0,-0.1 0.1,-0.1 0.1,-0.1 0.1,-0.1 0.2,0 0.1,0 m -0.7,0.7 0,1.8 m 0,0 -4.5,0 m 0,0 0,-3.8 m -0.7,-0.7 0.1,0 0.2,0.1 0.1,0 0.1,0.1 0.1,0.1 0,0.2 0.1,0.1 0,0.1 m -158,-0.7 157.3,0 m -158,0.7 0,-0.1 0,-0.1 0.1,-0.2 0.1,-0.1 0.1,-0.1 0.1,0 0.1,-0.1 0.2,0 m -0.7,0.7 0,3.8 m 0,0 -4.5,0 m 0,0 0,-1.8 m -0.7,-0.7 0.1,0 0.1,0 0.1,0.1 0.2,0.1 0,0.1 0.1,0.1 0,0.1 0.1,0.2 m -0.7,-0.7 -0.8,0 m -2.8,2.8 0.1,-0.5 0.1,-0.6 0.3,-0.5 0.3,-0.4 0.5,-0.3 0.5,-0.3 0.5,-0.2 0.5,0 m -2.8,3.9 0,-1.1 m 1.3,3.5 -0.3,-0.2 -0.2,-0.2 -0.2,-0.3 -0.2,-0.3 -0.2,-0.3 -0.1,-0.4 -0.1,-0.3 0,-0.4 m 1.3,2.4 6.6,4.2 m 1.8,0.4 -0.2,0.1 -0.2,-0.1 -0.3,0 -0.2,0 -0.2,-0.1 -0.2,-0.1 -0.3,-0.1 -0.2,-0.1 m 1.8,0.4 1.6,-0.1 1.3,-0.1 0.9,-0.1 0.8,-0.1 0.6,-0.1 0.5,-0.1 0.5,-0.1 0.9,-0.3 1.2,-0.3 1.2,-0.4 3.4,-1.2 3.2,-1.3 1.8,-0.8 1.8,-0.7 2,-0.7 2.2,-0.4 2.4,-0.3 2.6,-0.1 m 0.3,0 -0.3,0 m 0.3,0 0.4,0.1 0.3,0.3 0.3,0.3 0.2,0.4 0,0.5 -0.1,0.4 -0.3,0.4 -0.3,0.3 -0.4,0.1 -0.5,0 m -29.1,7.3 1.7,-0.1 1.3,-0.2 1.1,-0.1 0.8,-0.1 0.7,-0.1 0.6,-0.1 0.5,-0.1 1.8,-0.4 1.9,-0.6 2.4,-0.8 2.4,-1 2.1,-0.9 1.8,-0.7 1.8,-0.7 1.8,-0.6 1.9,-0.4 2.1,-0.3 2.4,-0.1 m -29.7,8 0,-0.1 0,-0.1 0.1,-0.2 0,-0.1 0.1,-0.1 0.2,0 0.1,-0.1 0.1,0 m -0.6,0.7 0,15.7 m -1.4,2.4 0.3,-0.2 0.3,-0.2 0.2,-0.3 0.2,-0.3 0.2,-0.3 0.1,-0.4 0,-0.3 0.1,-0.4 m -1.4,2.4 -6.1,3.9 m -1.3,2.4 0,-0.4 0.1,-0.3 0.1,-0.4 0.2,-0.3 0.2,-0.3 0.2,-0.3 0.2,-0.2 0.3,-0.2 m -1.3,3.5 0,-1.1 m 2.8,4 -0.5,-0.1 -0.5,-0.2 -0.5,-0.2 -0.5,-0.4 -0.3,-0.4 -0.3,-0.5 -0.1,-0.5 -0.1,-0.6 m 2.8,2.9 0.8,0 m 0.7,-0.8 -0.1,0.2 0,0.1 -0.1,0.1 0,0.1 -0.2,0.1 -0.1,0.1 -0.1,0 -0.1,0.1 m 0.7,-0.8 0,-1.8 m 0,0 4.5,0 m 0,0 0,3.8 m 0.7,0.7 -0.2,0 -0.1,-0.1 -0.1,0 -0.1,-0.1 -0.1,-0.1 -0.1,-0.1 0,-0.2 0,-0.1 m 36.1,0.7 -35.4,0 m 36.1,-0.7 0,0.1 0,0.2 -0.1,0.1 -0.1,0.1 -0.1,0.1 -0.1,0 -0.2,0.1 -0.1,0 m 0.7,-0.7 0,-3.8 m 0,0 14.2,0 m 0,0 0,3.8 m 0.7,0.7 -0.1,0 -0.2,-0.1 -0.1,0 -0.1,-0.1 -0.1,-0.1 -0.1,-0.1 0,-0.2 0,-0.1 m 56,0.7 -55.3,0 m 56,-0.7 0,0.1 -0.1,0.2 0,0.1 -0.1,0.1 -0.1,0.1 -0.2,0 -0.1,0.1 -0.1,0 m 0.7,-0.7 0,-3.8 m 0,0 14.2,0 m 0,0 0,3.8 m 0.7,0.7 -0.2,0 -0.1,-0.1 -0.1,0 -0.1,-0.1 -0.1,-0.1 -0.1,-0.1 0,-0.2 0,-0.1 m 36.1,0.7 -35.4,0 m 36.1,-0.7 0,0.1 -0.1,0.2 0,0.1 -0.1,0.1 -0.1,0.1 -0.1,0 -0.2,0.1 -0.1,0 m 0.7,-0.7 0,-3.8 m 0,0 4.5,0 m 0,0 0,1.8 M -3.6,2.9 -3.7,2.8 -3.9,2.8 -4,2.7 -4.1,2.6 -4.2,2.5 l 0,-0.1 -0.1,-0.1 0,-0.2 m 0.7,0.8 0.7,0 m -113.6,-42 0,4.5 m 0,0 -14.2,0 m 0,0 0,-4.5 m 0,0 14.2,0 m 70.9,0 0,4.5 m 0,0 -14.2,0 m 0,0 0,-4.5 m 0,0 14.2,0 m -55.3,14.5 0,-0.1 -0.1,-0.1 0,-0.2 -0.1,-0.1 -0.1,-0.1 -0.2,0 -0.1,-0.1 -0.1,0 m 0.7,0.7 0,21.3 m -0.7,0.7 0.1,0 0.1,-0.1 0.2,0 0.1,-0.1 0.1,-0.1 0,-0.1 0.1,-0.2 0,-0.1 m -0.7,0.7 -27,0 m -0.7,-0.7 0,0.1 0.1,0.2 0,0.1 0.1,0.1 0.1,0.1 0.2,0 0.1,0.1 0.1,0 m -0.7,-0.7 0,-21.3 m 0.7,-0.7 -0.1,0 -0.1,0.1 -0.2,0 -0.1,0.1 -0.1,0.1 0,0.2 -0.1,0.1 0,0.1 m 0.7,-0.7 27,0 m 54.5,0.7 0,-0.1 0,-0.1 -0.1,-0.2 -0.1,-0.1 -0.1,-0.1 -0.1,0 -0.1,-0.1 -0.2,0 m 0.7,0.7 0,21.3 m -0.7,0.7 0.2,0 0.1,-0.1 0.1,0 0.1,-0.1 0.1,-0.1 0.1,-0.1 0,-0.2 0,-0.1 m -0.7,0.7 -26.9,0 m -0.7,-0.7 0,0.1 0,0.2 0.1,0.1 0.1,0.1 0.1,0.1 0.1,0 0.2,0.1 0.1,0 m -0.7,-0.7 0,-21.3 m 0.7,-0.7 -0.1,0 -0.2,0.1 -0.1,0 -0.1,0.1 -0.1,0.1 -0.1,0.2 0,0.1 0,0.1 m 0.7,-0.7 26.9,0 m 9.2,-11 -0.3,0 m 0.3,2.8 -0.4,0 -0.4,-0.1 -0.4,-0.3 -0.2,-0.4 -0.1,-0.4 0,-0.5 0.1,-0.4 0.3,-0.3 0.4,-0.3 0.4,-0.1"
         style="fill:none;stroke:#000000;stroke-width:0.28629922;stroke-linecap:round;stroke-linejoin:round;stroke-miterlimit:10;stroke-dasharray:none;stroke-opacity:1"
         id="path210"
         inkscape:connector-curvature="0" />
    </g>
    <g
       id="g212"
       transform="matrix(1.25,0,0,-1.25,204.68402,261.59074)"
       style="stroke-width:0.28629922;stroke-miterlimit:10;stroke-dasharray:none">
      <path
         d="m 0,0 0,0.1 -0.1,0.1 -0.1,0.2 0,0.1 -0.1,0 -0.2,0.1 -0.1,0.1 -0.1,0 m -3.6,-52.5 0.7,0.1 0.6,0.1 0.6,0.3 0.6,0.3 0.5,0.5 0.5,0.5 0.3,0.5 0.3,0.7 0.1,0.6 0.1,0.7 m -14.2,0 0,-0.7 0.2,-0.6 0.3,-0.7 0.3,-0.5 0.4,-0.5 0.5,-0.5 0.6,-0.3 0.6,-0.3 0.7,-0.1 0.6,-0.1 m -4.2,4.3 0,0.7 m -0.7,0.7 0.1,0 0.2,-0.1 0.1,0 0.1,-0.1 0.1,-0.1 0,-0.1 0.1,-0.2 0,-0.1 m -0.7,0.7 -111.1,0 m -0.7,-0.7 0,0.1 0.1,0.2 0,0.1 0.1,0.1 0.1,0.1 0.2,0 0.1,0.1 0.1,0 m -0.7,-0.7 0,-0.7 m -4.2,-4.3 0.6,0.1 0.7,0.1 0.6,0.3 0.6,0.3 0.5,0.5 0.4,0.5 0.4,0.5 0.2,0.7 0.2,0.6 0,0.7 m -14.1,0 0,-0.7 0.2,-0.6 0.2,-0.7 0.4,-0.5 0.4,-0.5 0.5,-0.5 0.6,-0.3 0.6,-0.3 0.6,-0.1 0.7,-0.1 m -3.5,52.5 -0.2,0 -0.1,-0.1 -0.1,-0.1 -0.1,0 -0.1,-0.1 -0.1,-0.2 0,-0.1 0,-0.1 m 63.2,0 0,0.1 0,0.1 -0.1,0.2 -0.1,0.1 -0.1,0 -0.1,0.1 -0.1,0.1 -0.2,0 m 0.7,-0.7 0,-3.8 m 0,0 14.3,0 m 0,0 0,3.8 m 0.7,0.7 -0.1,0 -0.2,-0.1 -0.1,-0.1 -0.1,0 -0.1,-0.1 -0.1,-0.2 0,-0.1 0,-0.1 m -70.1,-12.3 0,8.5 m 0,0 -4.6,0 m 0,0 0,-8.5 m 0,0 4.6,0 m 130.5,0 0,8.5 m 0,0 -4.6,0 m 0,0 0,-8.5 m 0,0 4.6,0 m -130.5,-29.3 0,8.5 m 0,0 -4.6,0 m 0,0 0,-8.5 m 0,0 4.6,0 m 130.5,0 0,8.5 m 0,0 -4.6,0 m 0,0 0,-8.5 m 0,0 4.6,0 m -7.1,-10.2 5.7,0 M -140.8,0 l 0,-47.5 M -0.7,0.7 -62.6,0.7 M 0,-47.5 0,0 m -136.6,-51.8 5.7,0 m 52.6,52.5 -61.8,0"
         style="fill:none;stroke:#000000;stroke-width:0.28629922;stroke-linecap:round;stroke-linejoin:round;stroke-miterlimit:10;stroke-dasharray:none;stroke-opacity:1"
         id="path214"
         inkscape:connector-curvature="0" />
    </g>
    <g
       id="g216"
       transform="matrix(1.25,0,0,-1.25,435.68402,261.59074)"
       style="stroke-width:0.28629922;stroke-miterlimit:10;stroke-dasharray:none">
      <path
         d="m 0,0 0,0.1 0,0.1 -0.1,0.2 -0.1,0.1 -0.1,0 -0.1,0.1 -0.2,0.1 -0.1,0 m -3.5,-52.5 0.6,0.1 0.7,0.1 0.6,0.3 0.6,0.3 0.5,0.5 0.4,0.5 0.3,0.5 0.3,0.7 0.2,0.6 0,0.7 m -14.2,0 0.1,-0.7 0.1,-0.6 0.3,-0.7 0.3,-0.5 0.5,-0.5 0.5,-0.5 0.6,-0.3 0.6,-0.3 0.6,-0.1 0.7,-0.1 m -4.3,4.3 0,0.7 m -0.7,0.7 0.2,0 0.1,-0.1 0.1,0 0.1,-0.1 0.1,-0.1 0.1,-0.1 0,-0.2 0,-0.1 m -0.7,0.7 -111,0 m -0.7,-0.7 0,0.1 0,0.2 0.1,0.1 0.1,0.1 0.1,0.1 0.1,0 0.1,0.1 0.2,0 m -0.7,-0.7 0,-0.7 m -4.3,-4.3 0.7,0.1 0.6,0.1 0.6,0.3 0.6,0.3 0.5,0.5 0.5,0.5 0.3,0.5 0.3,0.7 0.1,0.6 0.1,0.7 m -14.2,0 0,-0.7 0.2,-0.6 0.3,-0.7 0.3,-0.5 0.4,-0.5 0.5,-0.5 0.6,-0.3 0.6,-0.3 0.7,-0.1 0.6,-0.1 m -3.5,52.5 -0.1,0 -0.2,-0.1 -0.1,-0.1 -0.1,0 -0.1,-0.1 0,-0.2 -0.1,-0.1 0,-0.1 m 63.3,0 0,0.1 -0.1,0.1 0,0.2 -0.1,0.1 -0.1,0 -0.2,0.1 -0.1,0.1 -0.1,0 m 0.7,-0.7 0,-3.8 m 0,0 14.2,0 m 0,0 0,3.8 m 0.7,0.7 -0.1,0 -0.1,-0.1 -0.2,-0.1 -0.1,0 -0.1,-0.1 0,-0.2 -0.1,-0.1 0,-0.1 m -70,-12.3 0,8.5 m 0,0 -4.7,0 m 0,0 0,-8.5 m 0,0 4.7,0 m 130.5,0 0,8.5 m 0,0 -4.7,0 m 0,0 0,-8.5 m 0,0 4.7,0 m -130.5,-29.3 0,8.5 m 0,0 -4.7,0 m 0,0 0,-8.5 m 0,0 4.7,0 m 130.5,0 0,8.5 m 0,0 -4.7,0 m 0,0 0,-8.5 m 0,0 4.7,0 m -17.4,12.9 0,-0.1 -0.1,-0.2 -0.1,-0.1 0,-0.1 -0.1,-0.1 -0.2,-0.1 -0.1,0 -0.1,0 m 0.7,0.7 0,11.3 m -0.7,0.7 0.1,0 0.1,0 0.2,-0.1 0.1,-0.1 0,-0.1 0.1,-0.1 0.1,-0.1 0,-0.2 m -0.7,0.7 -15.6,0 m -0.7,-0.7 0,0.2 0,0.1 0.1,0.1 0.1,0.1 0.1,0.1 0.1,0.1 0.1,0 0.2,0 m -0.7,-0.7 0,-11.3 m 0.7,-0.7 -0.2,0 -0.1,0 -0.1,0.1 -0.1,0.1 -0.1,0.1 -0.1,0.1 0,0.2 0,0.1 m 0.7,-0.7 15.6,0 m 11,-22.4 5.7,0 M -140.8,0 l 0,-47.5 M -0.7,0.7 -62.6,0.7 M 0,-47.5 0,0 m -136.6,-51.8 5.7,0 m 52.7,52.5 -61.9,0"
         style="fill:none;stroke:#000000;stroke-width:0.28629922;stroke-linecap:round;stroke-linejoin:round;stroke-miterlimit:10;stroke-dasharray:none;stroke-opacity:1"
         id="path218"
         inkscape:connector-curvature="0" />
    </g>
  </g>
</svg>
