G04 #@! TF.GenerationSoftware,KiCad,Pcbnew,(5.0.2)-1*
G04 #@! TF.CreationDate,2020-02-06T14:51:52-05:00*
G04 #@! TF.ProjectId,piezo_V2,7069657a-6f5f-4563-922e-6b696361645f,rev?*
G04 #@! TF.SameCoordinates,Original*
G04 #@! TF.FileFunction,Paste,Top*
G04 #@! TF.FilePolarity,Positive*
%FSLAX46Y46*%
G04 Gerber Fmt 4.6, Leading zero omitted, Abs format (unit mm)*
G04 Created by KiCad (PCBNEW (5.0.2)-1) date 2/6/2020 2:51:52 PM*
%MOMM*%
%LPD*%
G01*
G04 APERTURE LIST*
%ADD10R,2.000000X1.600000*%
%ADD11R,1.600000X2.000000*%
%ADD12R,2.000000X1.700000*%
%ADD13R,1.700000X2.000000*%
%ADD14R,0.600000X1.500000*%
%ADD15R,0.650000X1.560000*%
G04 APERTURE END LIST*
D10*
G04 #@! TO.C,C1*
X142500000Y-61500000D03*
X138500000Y-61500000D03*
G04 #@! TD*
G04 #@! TO.C,C2*
X169500000Y-55000000D03*
X173500000Y-55000000D03*
G04 #@! TD*
D11*
G04 #@! TO.C,C3*
X151500000Y-58750000D03*
X151500000Y-54750000D03*
G04 #@! TD*
D10*
G04 #@! TO.C,C4*
X126500000Y-61750000D03*
X130500000Y-61750000D03*
G04 #@! TD*
G04 #@! TO.C,C5*
X126500000Y-70250000D03*
X130500000Y-70250000D03*
G04 #@! TD*
G04 #@! TO.C,C6*
X142750000Y-97000000D03*
X138750000Y-97000000D03*
G04 #@! TD*
G04 #@! TO.C,C7*
X169750000Y-90500000D03*
X173750000Y-90500000D03*
G04 #@! TD*
D11*
G04 #@! TO.C,C8*
X151750000Y-94250000D03*
X151750000Y-90250000D03*
G04 #@! TD*
D10*
G04 #@! TO.C,C9*
X126750000Y-97500000D03*
X130750000Y-97500000D03*
G04 #@! TD*
G04 #@! TO.C,C10*
X126750000Y-106000000D03*
X130750000Y-106000000D03*
G04 #@! TD*
G04 #@! TO.C,C11*
X142750000Y-132250000D03*
X138750000Y-132250000D03*
G04 #@! TD*
G04 #@! TO.C,C12*
X169500000Y-125750000D03*
X173500000Y-125750000D03*
G04 #@! TD*
D11*
G04 #@! TO.C,C13*
X151750000Y-129500000D03*
X151750000Y-125500000D03*
G04 #@! TD*
D10*
G04 #@! TO.C,C14*
X126750000Y-132750000D03*
X130750000Y-132750000D03*
G04 #@! TD*
G04 #@! TO.C,C15*
X126750000Y-140750000D03*
X130750000Y-140750000D03*
G04 #@! TD*
D12*
G04 #@! TO.C,R1*
X126500000Y-54750000D03*
X130500000Y-54750000D03*
G04 #@! TD*
D13*
G04 #@! TO.C,R2*
X134500000Y-57750000D03*
X134500000Y-61750000D03*
G04 #@! TD*
G04 #@! TO.C,R3*
X134500000Y-66250000D03*
X134500000Y-70250000D03*
G04 #@! TD*
G04 #@! TO.C,R4*
X130500000Y-46750000D03*
X130500000Y-50750000D03*
G04 #@! TD*
G04 #@! TO.C,R5*
X155500000Y-54750000D03*
X155500000Y-58750000D03*
G04 #@! TD*
D12*
G04 #@! TO.C,R6*
X147250000Y-62750000D03*
X151250000Y-62750000D03*
G04 #@! TD*
G04 #@! TO.C,R7*
X134500000Y-41000000D03*
X130500000Y-41000000D03*
G04 #@! TD*
G04 #@! TO.C,R8*
X151500000Y-66750000D03*
X155500000Y-66750000D03*
G04 #@! TD*
G04 #@! TO.C,R9*
X161000000Y-58500000D03*
X165000000Y-58500000D03*
G04 #@! TD*
D13*
G04 #@! TO.C,R10*
X160750000Y-63250000D03*
X160750000Y-67250000D03*
G04 #@! TD*
D12*
G04 #@! TO.C,R11*
X126750000Y-90500000D03*
X130750000Y-90500000D03*
G04 #@! TD*
D13*
G04 #@! TO.C,R12*
X134750000Y-93500000D03*
X134750000Y-97500000D03*
G04 #@! TD*
G04 #@! TO.C,R13*
X134750000Y-102000000D03*
X134750000Y-106000000D03*
G04 #@! TD*
G04 #@! TO.C,R14*
X131000000Y-82500000D03*
X131000000Y-86500000D03*
G04 #@! TD*
G04 #@! TO.C,R15*
X155750000Y-90250000D03*
X155750000Y-94250000D03*
G04 #@! TD*
D12*
G04 #@! TO.C,R16*
X147500000Y-98500000D03*
X151500000Y-98500000D03*
G04 #@! TD*
G04 #@! TO.C,R17*
X135000000Y-76750000D03*
X131000000Y-76750000D03*
G04 #@! TD*
G04 #@! TO.C,R18*
X151250000Y-102750000D03*
X155250000Y-102750000D03*
G04 #@! TD*
G04 #@! TO.C,R19*
X161250000Y-94000000D03*
X165250000Y-94000000D03*
G04 #@! TD*
D13*
G04 #@! TO.C,R20*
X161000000Y-98750000D03*
X161000000Y-102750000D03*
G04 #@! TD*
D12*
G04 #@! TO.C,R21*
X126750000Y-125750000D03*
X130750000Y-125750000D03*
G04 #@! TD*
D13*
G04 #@! TO.C,R22*
X134750000Y-128750000D03*
X134750000Y-132750000D03*
G04 #@! TD*
G04 #@! TO.C,R23*
X134750000Y-136750000D03*
X134750000Y-140750000D03*
G04 #@! TD*
G04 #@! TO.C,R24*
X130750000Y-117750000D03*
X130750000Y-121750000D03*
G04 #@! TD*
G04 #@! TO.C,R25*
X155750000Y-125500000D03*
X155750000Y-129500000D03*
G04 #@! TD*
D12*
G04 #@! TO.C,R26*
X147500000Y-133500000D03*
X151500000Y-133500000D03*
G04 #@! TD*
G04 #@! TO.C,R27*
X134750000Y-112250000D03*
X130750000Y-112250000D03*
G04 #@! TD*
G04 #@! TO.C,R28*
X151750000Y-137500000D03*
X155750000Y-137500000D03*
G04 #@! TD*
G04 #@! TO.C,R29*
X161250000Y-129250000D03*
X165250000Y-129250000D03*
G04 #@! TD*
D13*
G04 #@! TO.C,R30*
X161000000Y-134000000D03*
X161000000Y-138000000D03*
G04 #@! TD*
D14*
G04 #@! TO.C,U1*
X139190000Y-57700000D03*
X140460000Y-57700000D03*
X141730000Y-57700000D03*
X143000000Y-57700000D03*
X144270000Y-57700000D03*
X145540000Y-57700000D03*
X146810000Y-57700000D03*
X146810000Y-52300000D03*
X145540000Y-52300000D03*
X144270000Y-52300000D03*
X143000000Y-52300000D03*
X141730000Y-52300000D03*
X140460000Y-52300000D03*
X139190000Y-52300000D03*
G04 #@! TD*
D15*
G04 #@! TO.C,U2*
X165700000Y-52150000D03*
X164750000Y-52150000D03*
X163800000Y-52150000D03*
X163800000Y-54850000D03*
X165700000Y-54850000D03*
G04 #@! TD*
D14*
G04 #@! TO.C,U3*
X139440000Y-93200000D03*
X140710000Y-93200000D03*
X141980000Y-93200000D03*
X143250000Y-93200000D03*
X144520000Y-93200000D03*
X145790000Y-93200000D03*
X147060000Y-93200000D03*
X147060000Y-87800000D03*
X145790000Y-87800000D03*
X144520000Y-87800000D03*
X143250000Y-87800000D03*
X141980000Y-87800000D03*
X140710000Y-87800000D03*
X139440000Y-87800000D03*
G04 #@! TD*
D15*
G04 #@! TO.C,U4*
X165950000Y-87650000D03*
X165000000Y-87650000D03*
X164050000Y-87650000D03*
X164050000Y-90350000D03*
X165950000Y-90350000D03*
G04 #@! TD*
D14*
G04 #@! TO.C,U5*
X139440000Y-128700000D03*
X140710000Y-128700000D03*
X141980000Y-128700000D03*
X143250000Y-128700000D03*
X144520000Y-128700000D03*
X145790000Y-128700000D03*
X147060000Y-128700000D03*
X147060000Y-123300000D03*
X145790000Y-123300000D03*
X144520000Y-123300000D03*
X143250000Y-123300000D03*
X141980000Y-123300000D03*
X140710000Y-123300000D03*
X139440000Y-123300000D03*
G04 #@! TD*
D15*
G04 #@! TO.C,U6*
X165950000Y-122900000D03*
X165000000Y-122900000D03*
X164050000Y-122900000D03*
X164050000Y-125600000D03*
X165950000Y-125600000D03*
G04 #@! TD*
M02*
